<?xml version="1.0" encoding="UTF-8" standalone="no"?>
<!-- Created with Inkscape (http://www.inkscape.org/) -->
<svg id="svg2" xmlns:rdf="http://www.w3.org/1999/02/22-rdf-syntax-ns#" xmlns="http://www.w3.org/2000/svg" height="35.01" width="36.81" version="1.1" xmlns:cc="http://creativecommons.org/ns#" xmlns:dc="http://purl.org/dc/elements/1.1/">
 <defs id="defs4"></defs>
 <metadata id="metadata7">
  <rdf:RDF>
   <cc:Work rdf:about="">
    <dc:format>image/svg+xml</dc:format>
    <dc:type rdf:resource="http://purl.org/dc/dcmitype/StillImage"/>
    <dc:title/>
   </cc:Work>
  </rdf:RDF>
 </metadata>
 <g id="layer1" transform="translate(-125.6591,-285.34269)">
  <flowRoot id="flowRoot5463" style="letter-spacing:0px;word-spacing:0px;" font-weight="bold" xml:space="preserve" font-size="40px" transform="translate(51.284095,220.10561)" font-stretch="condensed" line-height="125%" font-variant="normal" font-style="normal" font-family="Folio Std" fill="#000000"><flowRegion id="flowRegion5465"><rect id="rect5467" y="67.21" width="147.7" x="25.76" height="66.67"/></flowRegion><flowPara id="flowPara5469"/></flowRoot>
  <path id="text5471" d="m82.56,75.31-7.688,7.812,0,0.3438,7.688,7.781,1.188-0.4375,0-0.3438-6.312-6.5,14.91,0.09375,0.8438,0,14.94-0.09375-6.312,6.5,0,0.3438l1.2,0.45,7.7-7.78v-0.35l-7.7-7.81-1.188,0.4375v0.3438l6.219,6.438-14.88-0.0625h-0.75l-14.91,0.0625,6.25-6.438v-0.3438z" transform="translate(51.284095,220.10561)" fill="#586e75"/>
  <g id="text5471-6" style="letter-spacing:0px;word-spacing:0px;" font-weight="bold" font-size="20.76077843px" font-style="normal" font-stretch="condensed" line-height="125%" font-variant="normal" font-family="Folio Std" fill="#586e75">
   <path id="path5526" fill="#586e75" d="m142,285.9-0.4983,1.536,0.1868,0.2699c2.72,0.1661,3.778,0.7682,3.778,1.848,0,0.6644-0.4152,1.204-1.163,1.599l-1.868,0.955-0.1038,0.2076,0.2076,2.491,0.1868,0.1868,1.931-0.2491-0.1246-1.765,0.0415-0.1038,1.495-0.8927c1.225-0.7059,1.889-1.723,1.889-2.865,0-1.993-2.055-3.156-5.688-3.363l-0.2699,0.1453m1.806,10.94c-0.9342,0-1.516,0.6021-1.516,1.516,0,0.9135,0.4983,1.432,1.412,1.432,0.9135,0,1.474-0.6021,1.474-1.536,0-0.8927-0.4983-1.412-1.37-1.412"/>
  </g>
 </g>
</svg>
