<?xml version="1.0" encoding="UTF-8" standalone="no"?>
<!-- Created with Inkscape (http://www.inkscape.org/) -->
<svg id="svg2" xmlns:rdf="http://www.w3.org/1999/02/22-rdf-syntax-ns#" xmlns="http://www.w3.org/2000/svg" viewBox="0 0 109 88.4" version="1.1" xmlns:cc="http://creativecommons.org/ns#" xmlns:dc="http://purl.org/dc/elements/1.1/">
 <defs id="defs4"></defs>
 <metadata id="metadata7">
  <rdf:RDF>
   <cc:Work rdf:about="">
    <dc:format>image/svg+xml</dc:format>
    <dc:type rdf:resource="http://purl.org/dc/dcmitype/StillImage"/>
    <dc:title/>
   </cc:Work>
  </rdf:RDF>
 </metadata>
 <g id="layer1" transform="translate(-44.979407,-224.50561)">
  <g id="g5326">
   <path id="path2987" style="baseline-shift:baseline;block-progression:tb;color:#000000;direction:ltr;text-indent:0;text-align:start;enable-background:accumulate;text-transform:none;" fill="#000" d="m143,236-2.12,2.66c6.05,4.84,9.38,10.4,10.1,16.3,0.716,5.9-1.15,12.3-6.03,18.8-9.76,13.1-31.6,26.4-66.8,35.8l0.875,3.28c35.7-9.52,58.1-23,68.7-37.1,5.27-7.05,7.53-14.3,6.69-21.2-0.838-6.9-4.77-13.3-11.3-18.5z"/>
   <path id="path5332" d="m91.5,308,4.82-8.32-21.2,12.7,24.7,0.434-8.32-4.82z" fill-rule="evenodd" stroke="#000" stroke-width="0.4pt"/>
  </g>
  <g id="flowRoot5307" style="letter-spacing:0px;word-spacing:0px;" font-weight="bold" transform="translate(12.626907,-29.041886)" font-stretch="condensed" line-height="125%" font-size="40px" font-variant="normal" font-family="Folio Std" font-style="normal" fill="#000">
   <path id="path5316" style="text-align:start;" d="m50.1,257-0.36-0.24c-1.92,0.6-3.92,1.08-5.92,1.4-1.04-0.44-2.24-0.68-3.68-0.68-4.52,0-7.48,2.4-7.48,6.52,0,2.32,0.96,4.12,2.76,5.12v0.2c-1.08,0.68-1.92,1.52-2.56,2.44,0,1.88,1.24,2.8,2.92,3.36v0.2c-1.36,0.88-2.6,1.84-3.44,3.24,0,3.08,2.44,5.36,7.08,5.36,5.04,0,8.84-2.72,8.84-6.28,0-6.12-11.8-3.6-11.8-6.44,0-0.44,0.2-0.8,0.84-1.32,0.76,0.16,1.56,0.24,2.44,0.24,4.68,0,7.56-2.52,7.56-6.44,0-1.16-0.24-2.2-0.76-3.08l0.08-0.16c1.2-0.2,2.36-0.4,3.44-0.76v-2.68m-10.2,10.5c-2.4,0-3.68-1.36-3.68-3.72,0-2.4,1.36-3.68,3.84-3.68,2.44,0,3.64,1.28,3.64,3.56,0,2.44-1.36,3.84-3.8,3.84m4.8,10.9c0,1.72-2.04,2.88-4.84,2.88-2.72,0-4.08-1.08-4.08-2.48,0-1.12,0.92-2.08,2.56-3.12,3.12,0.48,6.36,0.6,6.36,2.72"/>
   <path id="path5318" style="text-align:start;" d="m67.5,258-3.88,0.36,0,13c-1.4,1.32-2.92,2.04-4.36,2.04-1.88,0-2.8-1.2-2.76-3.16l0.2-12.2-4.04,0.36,0.16,8-0.08,5c-0.04,3.44,2.12,5.4,6.16,5.4,1.6-0.44,3.2-1.36,4.8-2.8h0.32c0.32,1.6,1.28,2.68,2.96,2.84,0.96-0.12,1.8-0.44,2.52-0.88l0.4-2.24-0.36-0.28c-0.56,0.12-0.92,0.16-1.24,0.16-0.8,0-1.08-0.32-1.08-1.32l0.28-14.2"/>
   <path id="path5320" style="text-align:start;" d="m86.8,267,0.68-0.64c0.08-0.48,0.16-1.44,0.16-2,0-4.4-2.44-7.08-6.72-7.08-5.36,0-8.84,3.64-8.84,9.64,0,5.84,3.2,9.48,8.72,9.48,1.92,0,3.88-0.52,5.6-1.36l0.48-3.24-0.36-0.24c-1.8,1.08-3.76,1.68-5.4,1.68-3.52,0-5.2-2.28-5.28-6.24h11m-2.88-2.68-7.88,0.2c0.52-2.84,2.2-4.44,4.64-4.44,2,0,3.32,1.16,3.32,3.76l-0.08,0.48"/>
   <path id="path5322" style="text-align:start;" d="m97.5,257c-4.24,0-6.72,2.4-6.72,5.56,0,5.8,8.28,5.04,8.28,8.44,0,1.2-1.04,2.36-2.84,2.36-1.48,0-3.52-0.76-5.12-2.16l-0.44,0.28-0.48,3.4c1.84,0.8,3.84,1.24,5.6,1.24,4.6,0,6.92-2.84,6.92-5.8,0-5.64-8.28-4.92-8.28-8.28,0-1.16,0.96-2.2,2.6-2.2,1.24,0,2.64,0.44,4.08,1.4l0.52-0.12,0.56-3.2c-1.48-0.6-3.12-0.92-4.68-0.92"/>
   <path id="path5324" style="text-align:start;" d="m114,273c-1.64,0-2.36-0.64-2.32-2.64l0.2-10h5.16l0.2-2.32-0.16-0.28h-5.12l0.08-3.96-0.36-0.32-3.6,1.36v2.92h-2.44l-0.2,2.36,0.16,0.24h2.52l0.04,7.8-0.16,2.88c0,3.16,1.4,4.8,4.72,5.32,1.4-0.12,2.64-0.52,4.08-1.2l0.4-2.56-0.4-0.28c-1.08,0.52-1.96,0.72-2.8,0.72"/>
  </g>
 </g>
</svg>
