<?xml version="1.0" encoding="UTF-8" standalone="no"?>
<!-- Created with Inkscape (http://www.inkscape.org/) -->
<svg id="svg2" xmlns:rdf="http://www.w3.org/1999/02/22-rdf-syntax-ns#" xmlns="http://www.w3.org/2000/svg" viewBox="0 0 100 112" version="1.1" xmlns:cc="http://creativecommons.org/ns#" xmlns:dc="http://purl.org/dc/elements/1.1/">
 <defs id="defs4"></defs>
 <metadata id="metadata7">
  <rdf:RDF>
   <cc:Work rdf:about="">
    <dc:format>image/svg+xml</dc:format>
    <dc:type rdf:resource="http://purl.org/dc/dcmitype/StillImage"/>
    <dc:title/>
   </cc:Work>
  </rdf:RDF>
 </metadata>
 <g id="layer1" transform="translate(-45.979407,-135.27114)">
  <g id="g5362">
   <path style="baseline-shift:baseline;block-progression:tb;color:#000000;direction:ltr;text-indent:0;text-align:start;enable-background:accumulate;text-transform:none;" d="m129,139-3.12,1.34c11.4,26.4,17.5,47,17,62.4-0.443,15.4-7.05,25.7-22,32.6l1,3c15.8-7.25,23.5-19.1,24-35.6,0.471-16.4-5.88-37.3-17.3-63.9z" fill="#000"/>
   <path id="path5366" d="m133,152,8.94,3.55-15.7-19.2,3.17,24.5,3.55-8.94z" fill-rule="evenodd" stroke="#000" stroke-width="0.4pt"/>
  </g>
  <g id="flowRoot5307" style="letter-spacing:0px;word-spacing:0px;" font-weight="bold" transform="translate(12.626907,-29.041886)" font-stretch="condensed" line-height="125%" font-size="40px" font-variant="normal" font-family="Folio Std" font-style="normal" fill="#000">
   <path id="path5354" style="text-align:start;" d="m44.6,276,4.12,0-0.2-8.08,0.12-5.2c0.04-3.44-2.08-5.4-6.2-5.4-1.6,0.48-3.32,1.44-4.92,2.84h-0.24l0.2-12.2-4.08,0.32,0.2,20-0.24,7.76h4.08l-0.28-8.12,0.08-4.84c1.56-1.52,3.2-2.4,4.8-2.4,1.92,0,2.88,1.24,2.84,3.24l-0.28,12.1"/>
   <path id="path5356" style="text-align:start;" d="m61.3,257c-5.52,0-8.6,3.56-8.6,9.88,0,5.92,2.92,9.28,8.08,9.28,5.52,0,8.6-3.56,8.6-9.88,0-5.92-2.92-9.28-8.08-9.28m-0.24,2.84c3,0,4.52,2.32,4.52,7.36,0,4.2-1.52,6.16-4.52,6.16-3.04,0-4.56-2.28-4.56-7.36,0-4.12,1.52-6.16,4.56-6.16"/>
   <path id="path5358" style="text-align:start;" d="m79.3,257c-4.24,0-6.72,2.4-6.72,5.56,0,5.8,8.28,5.04,8.28,8.44,0,1.2-1.04,2.36-2.84,2.36-1.48,0-3.52-0.76-5.12-2.16l-0.44,0.28-0.48,3.4c1.84,0.8,3.84,1.24,5.6,1.24,4.6,0,6.92-2.84,6.92-5.8,0-5.64-8.28-4.92-8.28-8.28,0-1.16,0.96-2.2,2.6-2.2,1.24,0,2.64,0.44,4.08,1.4l0.52-0.12,0.56-3.2c-1.48-0.6-3.12-0.92-4.68-0.92"/>
   <path id="path5360" style="text-align:start;" d="m95.4,273c-1.64,0-2.36-0.64-2.32-2.64l0.2-10h5.16l0.2-2.32-0.16-0.28h-5.12l0.08-3.96-0.36-0.32-3.6,1.36v2.92h-2.44l-0.2,2.36,0.16,0.24h2.52l0.04,7.8-0.16,2.88c0,3.16,1.4,4.8,4.72,5.32,1.4-0.12,2.64-0.52,4.08-1.2l0.4-2.56-0.4-0.28c-1.08,0.52-1.96,0.72-2.8,0.72"/>
  </g>
 </g>
</svg>
