<?xml version="1.0" encoding="UTF-8" standalone="no"?>
<!-- Created with Inkscape (http://www.inkscape.org/) -->
<svg id="svg2" xmlns:rdf="http://www.w3.org/1999/02/22-rdf-syntax-ns#" xmlns="http://www.w3.org/2000/svg" viewBox="0 0 228 157" version="1.1" xmlns:cc="http://creativecommons.org/ns#" xmlns:dc="http://purl.org/dc/elements/1.1/">
 <defs id="defs4"></defs>
 <metadata id="metadata7">
  <rdf:RDF>
   <cc:Work rdf:about="">
    <dc:format>image/svg+xml</dc:format>
    <dc:type rdf:resource="http://purl.org/dc/dcmitype/StillImage"/>
    <dc:title/>
   </cc:Work>
  </rdf:RDF>
 </metadata>
 <g id="layer1" transform="translate(-51.284095,-220.10561)">
  <g id="g5438">
   <path style="baseline-shift:baseline;block-progression:tb;color:#000000;direction:ltr;text-indent:0;text-align:start;enable-background:accumulate;text-transform:none;" d="m171,313-3.28,0.906c2.64,9.67,2.54,32.7-2.31,58.6l3.34,0.625c4.92-26.2,5.24-49.1,2.25-60.1z" fill="#000"/>
   <path id="path5442" d="m169,359-5.43-7.94,2.29,24.6,11.1-22.1-7.94,5.43z" fill-rule="evenodd" stroke="#000" stroke-width="0.4pt"/>
  </g>
  <g id="flowRoot5307" style="letter-spacing:0px;text-anchor:middle;word-spacing:0px;text-align:center;" font-weight="bold" transform="translate(12.626907,-29.041886)" line-height="125%" font-stretch="condensed" font-size="40px" font-variant="normal" font-style="normal" font-family="Folio Std" fill="#000">
   <path id="path5396" d="m110,257-0.36-0.24c-1.92,0.6-3.92,1.08-5.92,1.4-1.04-0.44-2.24-0.68-3.68-0.68-4.52,0-7.48,2.4-7.48,6.52,0,2.32,0.96,4.12,2.76,5.12v0.2c-1.08,0.68-1.92,1.52-2.56,2.44,0,1.88,1.24,2.8,2.92,3.36v0.2c-1.36,0.88-2.6,1.84-3.44,3.24,0,3.08,2.44,5.36,7.08,5.36,5.04,0,8.84-2.72,8.84-6.28,0-6.12-11.8-3.6-11.8-6.44,0-0.44,0.2-0.8,0.84-1.32,0.76,0.16,1.56,0.24,2.44,0.24,4.68,0,7.56-2.52,7.56-6.44,0-1.16-0.24-2.2-0.76-3.08l0.08-0.16c1.2-0.2,2.36-0.4,3.44-0.76v-2.68m-10.2,10.5c-2.4,0-3.68-1.36-3.68-3.72,0-2.4,1.36-3.68,3.84-3.68,2.44,0,3.64,1.28,3.64,3.56,0,2.44-1.36,3.84-3.8,3.84m4.8,10.9c0,1.72-2.04,2.88-4.84,2.88-2.72,0-4.08-1.08-4.08-2.48,0-1.12,0.92-2.08,2.56-3.12,3.12,0.48,6.36,0.6,6.36,2.72"/>
   <path id="path5398" d="m128,258-3.88,0.36,0,13c-1.4,1.32-2.92,2.04-4.36,2.04-1.88,0-2.8-1.2-2.76-3.16l0.2-12.2-4.04,0.36,0.16,8-0.08,5c-0.04,3.44,2.12,5.4,6.16,5.4,1.6-0.44,3.2-1.36,4.8-2.8h0.32c0.32,1.6,1.28,2.68,2.96,2.84,0.96-0.12,1.8-0.44,2.52-0.88l0.4-2.24-0.36-0.28c-0.56,0.12-0.92,0.16-1.24,0.16-0.8,0-1.08-0.32-1.08-1.32l0.28-14.2"/>
   <path id="path5400" d="m147,267,0.68-0.64c0.08-0.48,0.16-1.44,0.16-2,0-4.4-2.44-7.08-6.72-7.08-5.36,0-8.84,3.64-8.84,9.64,0,5.84,3.2,9.48,8.72,9.48,1.92,0,3.88-0.52,5.6-1.36l0.48-3.24-0.36-0.24c-1.8,1.08-3.76,1.68-5.4,1.68-3.52,0-5.2-2.28-5.28-6.24h11m-2.88-2.68-7.88,0.2c0.52-2.84,2.2-4.44,4.64-4.44,2,0,3.32,1.16,3.32,3.76l-0.08,0.48"/>
   <path id="path5402" d="m158,257c-4.24,0-6.72,2.4-6.72,5.56,0,5.8,8.28,5.04,8.28,8.44,0,1.2-1.04,2.36-2.84,2.36-1.48,0-3.52-0.76-5.12-2.16l-0.44,0.28-0.48,3.4c1.84,0.8,3.84,1.24,5.6,1.24,4.6,0,6.92-2.84,6.92-5.8,0-5.64-8.28-4.92-8.28-8.28,0-1.16,0.96-2.2,2.6-2.2,1.24,0,2.64,0.44,4.08,1.4l0.52-0.12,0.56-3.2c-1.48-0.6-3.12-0.92-4.68-0.92"/>
   <path id="path5404" d="m174,273c-1.64,0-2.36-0.64-2.32-2.64l0.2-10h5.16l0.2-2.32-0.16-0.28h-5.12l0.08-3.96-0.36-0.32-3.6,1.36v2.92h-2.44l-0.2,2.36,0.16,0.24h2.52l0.04,7.8-0.16,2.88c0,3.16,1.4,4.8,4.72,5.32,1.4-0.12,2.64-0.52,4.08-1.2l0.4-2.56-0.4-0.28c-1.08,0.52-1.96,0.72-2.8,0.72"/>
   <path id="path5406" d="m189,249c-1.44,0-2.32,0.92-2.32,2.32s0.8,2.24,2.2,2.24c1.36,0,2.24-0.92,2.24-2.36,0-1.36-0.76-2.2-2.12-2.2m1.6,19,0.32-10.4-4.08,0.36,0.2,10.4-0.24,7.72,4.08,0-0.28-8.08"/>
   <path id="path5408" d="m208,276,4.12,0-0.2-8.08,0.12-5.2c0.04-3.44-2.08-5.4-6.2-5.4-1.6,0.48-3.32,1.44-4.92,2.84h-0.28l0.04-2.68-3.88,0.36,0.2,10.4-0.24,7.72h4.08l-0.24-8.08,0.04-4.88c1.56-1.52,3.2-2.4,4.8-2.4,1.92,0,2.88,1.24,2.84,3.24l-0.28,12.1"/>
   <path id="path5410" d="m49.9,326,4.12,0-0.2-8.08,0.12-5.2c0.04-3.44-2.08-5.4-6.2-5.4-1.6,0.48-3.32,1.44-4.92,2.84h-0.24l0.2-12.2-4.08,0.32,0.2,20-0.24,7.76h4.08l-0.28-8.12,0.08-4.84c1.56-1.52,3.2-2.4,4.8-2.4,1.92,0,2.88,1.24,2.84,3.24l-0.28,12.1"/>
   <path id="path5412" d="m66.6,307c-5.52,0-8.6,3.56-8.6,9.88,0,5.92,2.92,9.28,8.08,9.28,5.52,0,8.6-3.56,8.6-9.88,0-5.92-2.92-9.28-8.08-9.28m-0.24,2.84c3,0,4.52,2.32,4.52,7.36,0,4.2-1.52,6.16-4.52,6.16-3.04,0-4.56-2.28-4.56-7.36,0-4.12,1.52-6.16,4.56-6.16"/>
   <path id="path5414" d="m84.6,307c-4.24,0-6.72,2.4-6.72,5.56,0,5.8,8.28,5.04,8.28,8.44,0,1.2-1.04,2.36-2.84,2.36-1.48,0-3.52-0.76-5.12-2.16l-0.44,0.28-0.48,3.4c1.84,0.8,3.84,1.24,5.6,1.24,4.6,0,6.92-2.84,6.92-5.8,0-5.64-8.28-4.92-8.28-8.28,0-1.16,0.96-2.2,2.6-2.2,1.24,0,2.64,0.44,4.08,1.4l0.52-0.12,0.56-3.2c-1.48-0.6-3.12-0.92-4.68-0.92"/>
   <path id="path5416" d="m101,323c-1.64,0-2.36-0.64-2.32-2.64l0.2-10h5.16l0.2-2.32-0.16-0.28h-5.12l0.08-3.96-0.36-0.32-3.6,1.36v2.92h-2.44l-0.2,2.36,0.16,0.24h2.52l0.04,7.8-0.16,2.88c0,3.16,1.4,4.8,4.72,5.32,1.4-0.12,2.64-0.52,4.08-1.2l0.4-2.56-0.4-0.28c-1.08,0.52-1.96,0.72-2.8,0.72"/>
   <path id="path5418" d="m115,314-0.36-0.32-9.6,1.4,0,2.56,0.36,0.36,9.6-1.44,0-2.56"/>
   <path id="path5420" d="m123,318,0.32-20-4.08,0.32,0.24,20-0.28,7.76,4.08,0-0.28-8.12"/>
   <path id="path5422" d="m143,317,0.68-0.64c0.08-0.48,0.16-1.44,0.16-2,0-4.4-2.44-7.08-6.72-7.08-5.36,0-8.84,3.64-8.84,9.64,0,5.84,3.2,9.48,8.72,9.48,1.92,0,3.88-0.52,5.6-1.36l0.48-3.24-0.36-0.24c-1.8,1.08-3.76,1.68-5.4,1.68-3.52,0-5.2-2.28-5.28-6.24h11m-2.88-2.68-7.88,0.2c0.52-2.84,2.2-4.44,4.64-4.44,2,0,3.32,1.16,3.32,3.76l-0.08,0.48"/>
   <path id="path5424" d="m153,307c-4.24,0-6.72,2.4-6.72,5.56,0,5.8,8.28,5.04,8.28,8.44,0,1.2-1.04,2.36-2.84,2.36-1.48,0-3.52-0.76-5.12-2.16l-0.44,0.28-0.48,3.4c1.84,0.8,3.84,1.24,5.6,1.24,4.6,0,6.92-2.84,6.92-5.8,0-5.64-8.28-4.92-8.28-8.28,0-1.16,0.96-2.2,2.6-2.2,1.24,0,2.64,0.44,4.08,1.4l0.52-0.12,0.56-3.2c-1.48-0.6-3.12-0.92-4.68-0.92"/>
   <path id="path5426" d="m168,307c-4.24,0-6.72,2.4-6.72,5.56,0,5.8,8.28,5.04,8.28,8.44,0,1.2-1.04,2.36-2.84,2.36-1.48,0-3.52-0.76-5.12-2.16l-0.44,0.28-0.48,3.4c1.84,0.8,3.84,1.24,5.6,1.24,4.6,0,6.92-2.84,6.92-5.8,0-5.64-8.28-4.92-8.28-8.28,0-1.16,0.96-2.2,2.6-2.2,1.24,0,2.64,0.44,4.08,1.4l0.52-0.12,0.56-3.2c-1.48-0.6-3.12-0.92-4.68-0.92"/>
   <path id="path5428" d="m193,308c-1.84,0.6-3.08,1.32-4.8,2.76h-0.24l0.16-12.2-4.08,0.32,0.24,20.1-0.28,7.76,0.64,0.4,2.52-1.04c1.32,0.6,2.72,0.92,4.08,0.92,5.52,0,8.92-3.6,8.92-10.2,0-5.52-2.44-8.84-7.16-8.84m-1.6,16.2c-1.08,0-2.24-0.36-3.44-1.08l-0.12-4.64,0.08-4.8c1.6-1.68,3-2.4,4.4-2.4,2.6,0,3.96,2.24,4.04,6.12,0.04,4.68-1.96,6.8-4.96,6.8"/>
   <path id="path5430" d="m211,307c-2.44,0-4.92,0.84-7.2,2.4l0.52,2.84,0.32,0.2c2.16-1.76,3.92-2.56,5.72-2.56,1.84,0,2.88,1,2.88,3l-0.04,2.16-6.32,1.4c-2.48,0.56-3.88,1.92-3.88,4.44,0,3.2,2.2,5.2,5.92,5.24,1.52-0.6,2.88-1.64,4.16-3h0.28c0.2,1.72,1.28,2.8,2.92,2.96,0.92-0.12,1.8-0.44,2.52-0.88l0.4-2.24-0.36-0.28c-0.6,0.12-0.92,0.16-1.2,0.16-0.84,0-1.16-0.32-1.16-1.36,0-1.36,0.48-8.08,0.48-9.48,0-3.16-2.32-5-5.96-5m2.2,10.4-0.12,3.08c-1.32,1.52-2.6,2.44-4,2.44-1.48,0-2.44-0.92-2.44-2.56,0-1.08,0.4-1.52,1.36-1.72l5.2-1.24"/>
   <path id="path5432" d="m230,323c-1.64,0-2.36-0.64-2.32-2.64l0.2-10h5.16l0.2-2.32-0.16-0.28h-5.12l0.08-3.96-0.36-0.32-3.6,1.36v2.92h-2.44l-0.2,2.36,0.16,0.24h2.52l0.04,7.8-0.16,2.88c0,3.16,1.4,4.8,4.72,5.32,1.4-0.12,2.64-0.52,4.08-1.2l0.4-2.56-0.4-0.28c-1.08,0.52-1.96,0.72-2.8,0.72"/>
   <path id="path5434" d="m243,307c-5.28,0-8.44,3.72-8.44,9.76,0,5.84,2.96,9.4,7.96,9.4,1.64,0,3.4-0.36,4.88-0.92l0.4-3.28-0.36-0.24c-1.36,0.72-2.92,1.2-4.28,1.2-3.04,0-4.76-2.4-4.76-6.48,0-3.88,1.68-6.08,4.52-6.08,1.36,0,2.68,0.52,3.92,1.24l0.4-0.16,0.68-3.4c-1.32-0.64-3.2-1.04-4.92-1.04"/>
   <path id="path5436" d="m263,326,4.12,0-0.2-8.08,0.12-5.2c0.04-3.44-2.08-5.4-6.2-5.4-1.6,0.48-3.32,1.44-4.92,2.84h-0.24l0.2-12.2-4.08,0.32,0.2,20-0.24,7.76h4.08l-0.28-8.12,0.08-4.84c1.56-1.52,3.2-2.4,4.8-2.4,1.92,0,2.88,1.24,2.84,3.24l-0.28,12.1"/>
  </g>
 </g>
</svg>
