<?xml version="1.0" encoding="UTF-8" standalone="no"?>
<!-- Created with Inkscape (http://www.inkscape.org/) -->

<svg
   xmlns:dc="http://purl.org/dc/elements/1.1/"
   xmlns:cc="http://creativecommons.org/ns#"
   xmlns:rdf="http://www.w3.org/1999/02/22-rdf-syntax-ns#"
   xmlns:svg="http://www.w3.org/2000/svg"
   xmlns="http://www.w3.org/2000/svg"
   xmlns:sodipodi="http://sodipodi.sourceforge.net/DTD/sodipodi-0.dtd"
   xmlns:inkscape="http://www.inkscape.org/namespaces/inkscape"
   id="svg2"
   height="345.4"
   width="607.89"
   version="1.1"
   inkscape:version="0.48.4 r9939"
   sodipodi:docname="outline.svg">
  <sodipodi:namedview
     pagecolor="#ffffff"
     bordercolor="#666666"
     borderopacity="1"
     objecttolerance="10"
     gridtolerance="10"
     guidetolerance="10"
     inkscape:pageopacity="0"
     inkscape:pageshadow="2"
     inkscape:window-width="1417"
     inkscape:window-height="886"
     id="namedview3041"
     showgrid="false"
     inkscape:zoom="1.5402432"
     inkscape:cx="303.94501"
     inkscape:cy="172.7"
     inkscape:window-x="0"
     inkscape:window-y="23"
     inkscape:window-maximized="0"
     inkscape:current-layer="flowRoot2990-9" />
  <defs
     id="defs4" />
  <metadata
     id="metadata7">
    <rdf:RDF>
      <cc:Work
         rdf:about="">
        <dc:format>image/svg+xml</dc:format>
        <dc:type
           rdf:resource="http://purl.org/dc/dcmitype/StillImage" />
        <dc:title />
      </cc:Work>
    </rdf:RDF>
  </metadata>
  <g
     id="layer1"
     transform="translate(-49.941543,-269.17641)">
    <path
       id="path2985"
       stroke-linejoin="miter"
       d="m89.286,351.65c-24.294-8.7688-15.131-57.106,11.579-35.236,4.811-6.4356-4.0028-43.398,22.251-42.554,18.735-8.5069,31.998,17.902,39.618,20.491,4.7431-28.588,37.465-18.031,44.137,0.004,16.767-5.49,46.225-22.601,50.115,7.406,5.8444,13.482,33.64-3.5596,32.326,21.28-11.404,15.63,32.347-0.46548,25.996,25.272,7.1092,15.619-18.181,26.296,4.7183,32.066,22.593,10.069,8.186,35.131-6.871,35.01,22.264,6.5464,10.207,37.284,0.8537,37.823,23.491,3.5578,32.346,39.329,5.7004,45.887,22.268-0.58794,22.635,32.373,9.7948,35.358,28.416,3.156,3.5314,34.572-0.94648,38.78,11.364,21.991-21.315,24.335-27.263,22.102-3.4358,29.948-44.953,11.008-51.638,2.0726-12.666,15.679-29.712,11.991-38.474-3.4096-14.756,4.9424-55.183,14.465-52.431-10.549,6.1468,2.8566-32.268,21.223-34.946-1.0272-7.5801-7.9496,11.309-22.867-0.55416-6.2376-18.139,20.092-23.045-19.291-17.092-20.713-20.8,14.18-44.796-20.774-17.323-27.154-18.756-6.3017-26.214-42.206-1.3693-36.521-14.898-7.5761-33.836-25.301-21.447-42.94,6.0034-11.241,33.925-0.48484,12.222-7.812-22.194-4.7818-37.699-34.064-11.794-45.801,14.388-4.9246-28.708-25.309-4.8433-37.163,10.808,1.6348,19.306,4.5662,12.157-8.5534,2.7267-6.5322,12.356-0.84554,15.524,2.1198z"
       stroke="#000"
       stroke-linecap="butt"
       stroke-width="2"
       fill="none" />
    <g
       id="flowRoot2990"
       style="letter-spacing:0px;word-spacing:0px;"
       font-weight="bold"
       transform="translate(-21.652649,-15.642497)"
       font-stretch="condensed"
       line-height="125%"
       font-size="40px"
       font-variant="normal"
       font-family="Folio Std"
       font-style="normal"
       fill="#000">
      <path
         id="path4750"
         style="text-align:center;"
         d="m166.84,336.74c-1.44,0-2.32,0.92-2.32,2.32s0.8,2.24,2.2,2.24c1.36,0,2.24-0.92,2.24-2.36,0-1.36-0.76-2.2-2.12-2.2m1.6,18.96,0.32-10.44-4.08,0.36,0.2,10.44-0.24,7.72,4.08,0-0.28-8.08" />
      <path
         id="path4752"
         style="text-align:center;"
         d="m185.65,363.78,4.12,0-0.2-8.08,0.12-5.2c0.04-3.44-2.08-5.4-6.2-5.4-1.6,0.48-3.32,1.44-4.92,2.84h-0.28l0.04-2.68-3.88,0.36,0.2,10.44-0.24,7.72h4.08l-0.24-8.08,0.04-4.88c1.56-1.52,3.2-2.4,4.8-2.4,1.92,0,2.88,1.24,2.84,3.24l-0.28,12.12" />
      <path
         id="path4754"
         style="text-align:center;"
         d="m197.39,336.74c-1.44,0-2.32,0.92-2.32,2.32s0.8,2.24,2.2,2.24c1.36,0,2.24-0.92,2.24-2.36,0-1.36-0.76-2.2-2.12-2.2m1.6,18.96,0.32-10.44-4.08,0.36,0.2,10.44-0.24,7.72,4.08,0-0.28-8.08" />
      <path
         id="path4756"
         style="text-align:center;"
         d="m211.48,360.7c-1.64,0-2.36-0.64-2.32-2.64l0.2-10.04h5.16l0.2-2.32-0.16-0.28h-5.12l0.08-3.96-0.36-0.32-3.6,1.36v2.92h-2.44l-0.2,2.36,0.16,0.24h2.52l0.04,7.8-0.16,2.88c0,3.16,1.4,4.8,4.72,5.32,1.4-0.12,2.64-0.52,4.08-1.2l0.4-2.56-0.4-0.28c-1.08,0.52-1.96,0.72-2.8,0.72" />
      <path
         id="path4758"
         style="text-align:center;"
         d="m220.2,336.74c-1.44,0-2.32,0.92-2.32,2.32s0.8,2.24,2.2,2.24c1.36,0,2.24-0.92,2.24-2.36,0-1.36-0.76-2.2-2.12-2.2m1.6,18.96,0.32-10.44-4.08,0.36,0.2,10.44-0.24,7.72,4.08,0-0.28-8.08" />
      <path
         id="path4760"
         style="text-align:center;"
         d="m234.41,344.98c-2.44,0-4.92,0.84-7.2,2.4l0.52,2.84,0.32,0.2c2.16-1.76,3.92-2.56,5.72-2.56,1.84,0,2.88,1,2.88,3l-0.04,2.16-6.32,1.4c-2.48,0.56-3.88,1.92-3.88,4.44,0,3.2,2.2,5.2,5.92,5.24,1.52-0.6,2.88-1.64,4.16-3h0.28c0.2,1.72,1.28,2.8,2.92,2.96,0.92-0.12,1.8-0.44,2.52-0.88l0.4-2.24-0.36-0.28c-0.6,0.12-0.92,0.16-1.2,0.16-0.84,0-1.16-0.32-1.16-1.36,0-1.36,0.48-8.08,0.48-9.48,0-3.16-2.32-5-5.96-5m2.2,10.4-0.12,3.08c-1.32,1.52-2.6,2.44-4,2.44-1.48,0-2.44-0.92-2.44-2.56,0-1.08,0.4-1.52,1.36-1.72l5.2-1.24" />
      <path
         id="path4762"
         style="text-align:center;"
         d="m250.6,355.66,0.32-19.96-4.08,0.32,0.24,20-0.28,7.76,4.08,0-0.28-8.12" />
      <path
         id="path4764"
         style="text-align:center;"
         d="m146.45,385.02c-4.24,0-6.72,2.4-6.72,5.56,0,5.8,8.28,5.04,8.28,8.44,0,1.2-1.04,2.36-2.84,2.36-1.48,0-3.52-0.76-5.12-2.16l-0.44,0.28-0.48,3.4c1.84,0.8,3.84,1.24,5.6,1.24,4.6,0,6.92-2.84,6.92-5.8,0-5.64-8.28-4.92-8.28-8.28,0-1.16,0.96-2.2,2.6-2.2,1.24,0,2.64,0.44,4.08,1.4l0.52-0.12,0.56-3.2c-1.48-0.6-3.12-0.92-4.68-0.92" />
      <path
         id="path4766"
         style="text-align:center;"
         d="m163.05,384.98c-5.28,0-8.44,3.72-8.44,9.76,0,5.84,2.96,9.4,7.96,9.4,1.64,0,3.4-0.36,4.88-0.92l0.4-3.28-0.36-0.24c-1.36,0.72-2.92,1.2-4.28,1.2-3.04,0-4.76-2.4-4.76-6.48,0-3.88,1.68-6.08,4.52-6.08,1.36,0,2.68,0.52,3.92,1.24l0.4-0.16,0.68-3.4c-1.32-0.64-3.2-1.04-4.92-1.04" />
      <path
         id="path4768"
         style="text-align:center;"
         d="m182.65,403.78,4.12,0-0.2-8.08,0.12-5.2c0.04-3.44-2.08-5.4-6.2-5.4-1.6,0.48-3.32,1.44-4.92,2.84h-0.24l0.2-12.24-4.08,0.32,0.2,20-0.24,7.76h4.08l-0.28-8.12,0.08-4.84c1.56-1.52,3.2-2.4,4.8-2.4,1.92,0,2.88,1.24,2.84,3.24l-0.28,12.12" />
      <path
         id="path4770"
         style="text-align:center;"
         d="m205.5,394.74,0.68-0.64c0.08-0.48,0.16-1.44,0.16-2,0-4.4-2.44-7.08-6.72-7.08-5.36,0-8.84,3.64-8.84,9.64,0,5.84,3.2,9.48,8.72,9.48,1.92,0,3.88-0.52,5.6-1.36l0.48-3.24-0.36-0.24c-1.8,1.08-3.76,1.68-5.4,1.68-3.52,0-5.2-2.28-5.28-6.24h10.96m-2.88-2.68-7.88,0.2c0.52-2.84,2.2-4.44,4.64-4.44,2,0,3.32,1.16,3.32,3.76l-0.08,0.48" />
      <path
         id="path4772"
         style="text-align:center;"
         d="m224.94,395.66,0.32-19.96-4.08,0.32,0.08,9.32c-1.04-0.2-2.12-0.32-3.12-0.32-5.64,0-9.08,3.44-9.08,9.6,0,5.92,2.92,9.4,8.28,9.4,1.6-0.72,2.64-1.48,4.16-2.76h0.32c0.28,1.56,1.28,2.64,2.96,2.8,0.96-0.12,1.84-0.44,2.56-0.88l0.36-2.24-0.36-0.28c-0.56,0.12-0.92,0.16-1.24,0.16-0.76,0-1-0.32-1.04-1.32l-0.12-3.84m-7.2-7.84c1.16,0,2.28,0.32,3.56,0.92l0.12,7.28-0.08,2.6c-1.44,1.6-2.68,2.08-3.92,2.08-2.8,0-4.48-2.28-4.52-6.56-0.08-4.28,1.84-6.32,4.84-6.32" />
      <path
         id="path4774"
         style="text-align:center;"
         d="m245.93,385.26-3.88,0.36,0,13c-1.4,1.32-2.92,2.04-4.36,2.04-1.88,0-2.8-1.2-2.76-3.16l0.2-12.24-4.04,0.36,0.16,8-0.08,5c-0.04,3.44,2.12,5.4,6.16,5.4,1.6-0.44,3.2-1.36,4.8-2.8h0.32c0.32,1.6,1.28,2.68,2.96,2.84,0.96-0.12,1.8-0.44,2.52-0.88l0.4-2.24-0.36-0.28c-0.56,0.12-0.92,0.16-1.24,0.16-0.8,0-1.08-0.32-1.08-1.32l0.28-14.24" />
      <path
         id="path4776"
         style="text-align:center;"
         d="m255.91,395.66,0.32-19.96-4.08,0.32,0.24,20-0.28,7.76,4.08,0-0.28-8.12" />
      <path
         id="path4778"
         style="text-align:center;"
         d="m275.43,394.74,0.68-0.64c0.08-0.48,0.16-1.44,0.16-2,0-4.4-2.44-7.08-6.72-7.08-5.36,0-8.84,3.64-8.84,9.64,0,5.84,3.2,9.48,8.72,9.48,1.92,0,3.88-0.52,5.6-1.36l0.48-3.24-0.36-0.24c-1.8,1.08-3.76,1.68-5.4,1.68-3.52,0-5.2-2.28-5.28-6.24h10.96m-2.88-2.68-7.88,0.2c0.52-2.84,2.2-4.44,4.64-4.44,2,0,3.32,1.16,3.32,3.76l-0.08,0.48" />
    </g>
    <g
       id="flowRoot2990-6"
       style="letter-spacing:0px;word-spacing:0px;"
       font-weight="bold"
       transform="translate(11.5133,156.23644)"
       font-stretch="condensed"
       line-height="125%"
       font-size="40px"
       font-variant="normal"
       font-family="Folio Std"
       font-style="normal"
       fill="#000">
      <path
         id="path4719"
         style="text-align:center;"
         d="m156.03,344.98c-5.52,0-8.6,3.56-8.6,9.88,0,5.92,2.92,9.28,8.08,9.28,5.52,0,8.6-3.56,8.6-9.88,0-5.92-2.92-9.28-8.08-9.28m-0.24,2.84c3,0,4.52,2.32,4.52,7.36,0,4.2-1.52,6.16-4.52,6.16-3.04,0-4.56-2.28-4.56-7.36,0-4.12,1.52-6.16,4.56-6.16" />
      <path
         id="path4721"
         style="text-align:center;"
         d="m177.43,345.14c-1.84,0.56-3.08,1.28-4.8,2.76h-0.28l0.04-2.64-3.92,0.36,0.24,10.44-0.24,15.12h4.04l-0.12-7.36c1.08,0.2,2.12,0.32,3.12,0.32,5.72,0,9.08-3.6,9.08-10.12,0-5.56-2.44-8.88-7.16-8.88m-1.6,16.2c-1.12,0-2.28-0.28-3.48-0.88l-0.08-4.76,0.04-4.88c1.64-1.68,3.04-2.4,4.44-2.4,2.56,0,3.96,2.24,4,6.12,0.08,4.68-1.92,6.8-4.92,6.8" />
      <path
         id="path4723"
         style="text-align:center;"
         d="m195.38,360.7c-1.64,0-2.36-0.64-2.32-2.64l0.2-10.04h5.16l0.2-2.32-0.16-0.28h-5.12l0.08-3.96-0.36-0.32-3.6,1.36v2.92h-2.44l-0.2,2.36,0.16,0.24h2.52l0.04,7.8-0.16,2.88c0,3.16,1.4,4.8,4.72,5.32,1.4-0.12,2.64-0.52,4.08-1.2l0.4-2.56-0.4-0.28c-1.08,0.52-1.96,0.72-2.8,0.72" />
      <path
         id="path4725"
         style="text-align:center;"
         d="m204.11,336.74c-1.44,0-2.32,0.92-2.32,2.32s0.8,2.24,2.2,2.24c1.36,0,2.24-0.92,2.24-2.36,0-1.36-0.76-2.2-2.12-2.2m1.6,18.96,0.32-10.44-4.08,0.36,0.2,10.44-0.24,7.72,4.08,0-0.28-8.08" />
      <path
         id="path4727"
         style="text-align:center;"
         d="m234.2,363.78,4.12,0-0.2-8.08,0.12-5.2c0.04-3.44-2.08-5.4-6.2-5.4-1.72,0.52-3.6,1.52-5.28,3h-0.24c-0.8-1.92-2.76-3-5.76-3-1.64,0.48-3.32,1.44-4.92,2.84h-0.28l0.04-2.68-3.88,0.36,0.2,10.44-0.24,7.72h4.04l-0.2-8.08,0.04-4.88c1.56-1.52,3.2-2.4,4.8-2.4,1.92,0,2.88,1.24,2.84,3.24l-0.28,12.12h4.08l-0.16-8.08,0.08-4.96c1.56-1.48,3.12-2.32,4.72-2.32,1.92,0,2.88,1.24,2.84,3.24l-0.28,12.12" />
      <path
         id="path4729"
         style="text-align:center;"
         d="m250.27,344.98c-2.44,0-4.92,0.84-7.2,2.4l0.52,2.84,0.32,0.2c2.16-1.76,3.92-2.56,5.72-2.56,1.84,0,2.88,1,2.88,3l-0.04,2.16-6.32,1.4c-2.48,0.56-3.88,1.92-3.88,4.44,0,3.2,2.2,5.2,5.92,5.24,1.52-0.6,2.88-1.64,4.16-3h0.28c0.2,1.72,1.28,2.8,2.92,2.96,0.92-0.12,1.8-0.44,2.52-0.88l0.4-2.24-0.36-0.28c-0.6,0.12-0.92,0.16-1.2,0.16-0.84,0-1.16-0.32-1.16-1.36,0-1.36,0.48-8.08,0.48-9.48,0-3.16-2.32-5-5.96-5m2.2,10.4-0.12,3.08c-1.32,1.52-2.6,2.44-4,2.44-1.48,0-2.44-0.92-2.44-2.56,0-1.08,0.4-1.52,1.36-1.72l5.2-1.24" />
      <path
         id="path4731"
         style="text-align:center;"
         d="m266.46,355.66,0.32-19.96-4.08,0.32,0.24,20-0.28,7.76,4.08,0-0.28-8.12" />
      <path
         id="path4733"
         style="text-align:center;"
         d="m146.45,385.02c-4.24,0-6.72,2.4-6.72,5.56,0,5.8,8.28,5.04,8.28,8.44,0,1.2-1.04,2.36-2.84,2.36-1.48,0-3.52-0.76-5.12-2.16l-0.44,0.28-0.48,3.4c1.84,0.8,3.84,1.24,5.6,1.24,4.6,0,6.92-2.84,6.92-5.8,0-5.64-8.28-4.92-8.28-8.28,0-1.16,0.96-2.2,2.6-2.2,1.24,0,2.64,0.44,4.08,1.4l0.52-0.12,0.56-3.2c-1.48-0.6-3.12-0.92-4.68-0.92" />
      <path
         id="path4735"
         style="text-align:center;"
         d="m163.05,384.98c-5.28,0-8.44,3.72-8.44,9.76,0,5.84,2.96,9.4,7.96,9.4,1.64,0,3.4-0.36,4.88-0.92l0.4-3.28-0.36-0.24c-1.36,0.72-2.92,1.2-4.28,1.2-3.04,0-4.76-2.4-4.76-6.48,0-3.88,1.68-6.08,4.52-6.08,1.36,0,2.68,0.52,3.92,1.24l0.4-0.16,0.68-3.4c-1.32-0.64-3.2-1.04-4.92-1.04" />
      <path
         id="path4737"
         style="text-align:center;"
         d="m182.65,403.78,4.12,0-0.2-8.08,0.12-5.2c0.04-3.44-2.08-5.4-6.2-5.4-1.6,0.48-3.32,1.44-4.92,2.84h-0.24l0.2-12.24-4.08,0.32,0.2,20-0.24,7.76h4.08l-0.28-8.12,0.08-4.84c1.56-1.52,3.2-2.4,4.8-2.4,1.92,0,2.88,1.24,2.84,3.24l-0.28,12.12" />
      <path
         id="path4739"
         style="text-align:center;"
         d="m205.5,394.74,0.68-0.64c0.08-0.48,0.16-1.44,0.16-2,0-4.4-2.44-7.08-6.72-7.08-5.36,0-8.84,3.64-8.84,9.64,0,5.84,3.2,9.48,8.72,9.48,1.92,0,3.88-0.52,5.6-1.36l0.48-3.24-0.36-0.24c-1.8,1.08-3.76,1.68-5.4,1.68-3.52,0-5.2-2.28-5.28-6.24h10.96m-2.88-2.68-7.88,0.2c0.52-2.84,2.2-4.44,4.64-4.44,2,0,3.32,1.16,3.32,3.76l-0.08,0.48" />
      <path
         id="path4741"
         style="text-align:center;"
         d="m224.94,395.66,0.32-19.96-4.08,0.32,0.08,9.32c-1.04-0.2-2.12-0.32-3.12-0.32-5.64,0-9.08,3.44-9.08,9.6,0,5.92,2.92,9.4,8.28,9.4,1.6-0.72,2.64-1.48,4.16-2.76h0.32c0.28,1.56,1.28,2.64,2.96,2.8,0.96-0.12,1.84-0.44,2.56-0.88l0.36-2.24-0.36-0.28c-0.56,0.12-0.92,0.16-1.24,0.16-0.76,0-1-0.32-1.04-1.32l-0.12-3.84m-7.2-7.84c1.16,0,2.28,0.32,3.56,0.92l0.12,7.28-0.08,2.6c-1.44,1.6-2.68,2.08-3.92,2.08-2.8,0-4.48-2.28-4.52-6.56-0.08-4.28,1.84-6.32,4.84-6.32" />
      <path
         id="path4743"
         style="text-align:center;"
         d="m245.93,385.26-3.88,0.36,0,13c-1.4,1.32-2.92,2.04-4.36,2.04-1.88,0-2.8-1.2-2.76-3.16l0.2-12.24-4.04,0.36,0.16,8-0.08,5c-0.04,3.44,2.12,5.4,6.16,5.4,1.6-0.44,3.2-1.36,4.8-2.8h0.32c0.32,1.6,1.28,2.68,2.96,2.84,0.96-0.12,1.8-0.44,2.52-0.88l0.4-2.24-0.36-0.28c-0.56,0.12-0.92,0.16-1.24,0.16-0.8,0-1.08-0.32-1.08-1.32l0.28-14.24" />
      <path
         id="path4745"
         style="text-align:center;"
         d="m255.91,395.66,0.32-19.96-4.08,0.32,0.24,20-0.28,7.76,4.08,0-0.28-8.12" />
      <path
         id="path4747"
         style="text-align:center;"
         d="m275.43,394.74,0.68-0.64c0.08-0.48,0.16-1.44,0.16-2,0-4.4-2.44-7.08-6.72-7.08-5.36,0-8.84,3.64-8.84,9.64,0,5.84,3.2,9.48,8.72,9.48,1.92,0,3.88-0.52,5.6-1.36l0.48-3.24-0.36-0.24c-1.8,1.08-3.76,1.68-5.4,1.68-3.52,0-5.2-2.28-5.28-6.24h10.96m-2.88-2.68-7.88,0.2c0.52-2.84,2.2-4.44,4.64-4.44,2,0,3.32,1.16,3.32,3.76l-0.08,0.48" />
    </g>
    <g
       id="flowRoot2990-9"
       style="letter-spacing:0px;word-spacing:0px;"
       font-weight="bold"
       transform="translate(362.29938,65.298075)"
       font-stretch="condensed"
       line-height="125%"
       font-size="40px"
       font-variant="normal"
       font-family="Folio Std"
       font-style="normal"
       fill="#000">
      <g
         transform="translate(-296.77589,269.45239)"
         style="line-height:125%;fill:#000000;fill-opacity:1;stroke:none;font-family:Folio Std;-inkscape-font-specification:Folio Std Bold Condensed"
         id="flowRoot3043">
        <path
           d="m 435.9175,114.75 -2.44,-25.68 -4.68,0 -1.2,3.72 -5.2,13.76 -0.32,0 -4.92,-13.64 -1.2,-3.84 -4.72,0 -2.68,25.68 3.48,0 0.64,-8.16 1.2,-11.24 0.36,0 6.12,16.56 3.28,0 6.6,-16.56 0.28,0 1.2,11.6 0.52,7.8 3.68,0"
           style="font-weight:500;font-stretch:normal;text-align:start;line-height:125%;writing-mode:lr-tb;text-anchor:start;font-family:Alegreya Sans;-inkscape-font-specification:Alegreya Sans Medium"
           id="path3056" />
        <path
           d="m 445.59625,106.67 0.24,-17.6 -4.24,0 0.28,17.96 -0.28,7.72 4.2,0 -0.2,-8.08"
           style="font-weight:500;font-stretch:normal;text-align:start;line-height:125%;writing-mode:lr-tb;text-anchor:start;font-family:Alegreya Sans;-inkscape-font-specification:Alegreya Sans Medium"
           id="path3058" />
        <path
           d="m 452.76812,89.07 0.28001,17.96 -0.28001,7.72 4.2,0 -0.2,-8.08 0,-0.6 2.84,0 c 6.2,0 9.96,-3.60001 9.96,-9.36 0,-4.959995 -2.92,-7.68 -8.07999,-7.68 l -8.72001,0.04 m 4.04001,13.72 0.15999,-10.4 3.40001,-0.12 c 3.23999,0.12 4.91999,1.560003 4.91999,4.8 0,3.28 -1.56,5.24 -4.47999,5.8 l -4,-0.08"
           style="font-weight:500;font-stretch:normal;text-align:start;line-height:125%;writing-mode:lr-tb;text-anchor:start;font-family:Alegreya Sans;-inkscape-font-specification:Alegreya Sans Medium"
           id="path3060" />
        <path
           d="m 502.4225,114.75 4.12,0 -0.2,-8.08 0.12,-5.2 c 0.04,-3.439997 -2.08,-5.4 -6.2,-5.4 -1.72,0.519999 -3.6,1.520001 -5.28,3 l -0.24,0 c -0.8,-1.919998 -2.76,-3 -5.76,-3 -1.64,0.48 -3.32,1.440001 -4.92,2.84 l -0.28,0 0.04,-2.68 -3.88,0.36 0.2,10.44 -0.24,7.72 4.04,0 -0.2,-8.08 0.04,-4.88 c 1.56,-1.52 3.2,-2.4 4.8,-2.4 1.92,0 2.88,1.24 2.84,3.24 l -0.28,12.12 4.08,0 -0.16,-8.08 0.08,-4.96 c 1.56,-1.48 3.12,-2.32 4.72,-2.32 1.92,0 2.88,1.24 2.84,3.24 l -0.28,12.12"
           style="font-weight:500;font-stretch:normal;text-align:start;line-height:125%;writing-mode:lr-tb;text-anchor:start;font-family:Alegreya Sans;-inkscape-font-specification:Alegreya Sans Medium"
           id="path3062" />
        <path
           d="m 519.09563,95.95 c -5.52,0 -8.6,3.560006 -8.6,9.88 0,5.91999 2.92,9.28 8.07999,9.28 5.52,0 8.6,-3.56001 8.6,-9.88 0,-5.919994 -2.92,-9.28 -8.07999,-9.28 m -0.24,2.84 c 2.99999,0 4.52,2.32001 4.52,7.36 0,4.2 -1.52001,6.16 -4.52,6.16 -3.04,0 -4.56001,-2.28001 -4.56001,-7.36 0,-4.12 1.52001,-6.16 4.56001,-6.16"
           style="font-weight:500;font-stretch:normal;text-align:start;line-height:125%;writing-mode:lr-tb;text-anchor:start;font-family:Alegreya Sans;-inkscape-font-specification:Alegreya Sans Medium"
           id="path3064" />
        <path
           d="m 545.98312,106.63 0.32001,-19.96 -4.08001,0.32 0.08,9.32 c -1.04,-0.2 -2.12001,-0.32 -3.12,-0.32 -5.64,0 -9.08001,3.440006 -9.08001,9.6 0,5.91999 2.92001,9.4 8.28,9.4 1.6,-0.72 2.64001,-1.48 4.16001,-2.76 l 0.31999,0 c 0.28,1.56 1.28001,2.64 2.96,2.8 0.96,-0.12 1.84001,-0.44 2.56,-0.88 l 0.36,-2.24 -0.36,-0.28 c -0.55999,0.12 -0.92,0.16 -1.23999,0.16 -0.76,0 -1.00001,-0.32 -1.04001,-1.32 l -0.12,-3.84 m -7.19999,-7.84 c 1.15999,0 2.28,0.320001 3.55999,0.92 l 0.12,7.28 -0.08,2.6 c -1.43999,1.6 -2.68,2.08 -3.92,2.08 -2.79999,0 -4.48,-2.28 -4.52,-6.56 -0.08,-4.28 1.84001,-6.32 4.84001,-6.32"
           style="font-weight:500;font-stretch:normal;text-align:start;line-height:125%;writing-mode:lr-tb;text-anchor:start;font-family:Alegreya Sans;-inkscape-font-specification:Alegreya Sans Medium"
           id="path3066" />
        <path
           d="m 565.68438,105.71 0.67999,-0.64 c 0.08,-0.48 0.16,-1.44 0.16,-2 0,-4.399996 -2.44,-7.08 -6.71999,-7.08 -5.36,0 -8.84,3.640006 -8.84,9.64 0,5.83999 3.2,9.48 8.72,9.48 1.91999,0 3.88,-0.52 5.59999,-1.36 l 0.48,-3.24 -0.36,-0.24 c -1.79999,1.08 -3.76,1.68 -5.4,1.68 -3.51999,0 -5.2,-2.28 -5.28,-6.24 l 10.96001,0 m -2.88,-2.68 -7.88,0.2 c 0.51999,-2.84 2.2,-4.44 4.64,-4.44 1.99999,0 3.31999,1.160003 3.31999,3.76 l -0.08,0.48"
           style="font-weight:500;font-stretch:normal;text-align:start;line-height:125%;writing-mode:lr-tb;text-anchor:start;font-family:Alegreya Sans;-inkscape-font-specification:Alegreya Sans Medium"
           id="path3068" />
        <path
           d="m 574.60563,106.63 0.31999,-19.96 -4.07999,0.32 0.24,20 -0.28001,7.76 4.08,0 -0.27999,-8.12"
           style="font-weight:500;font-stretch:normal;text-align:start;line-height:125%;writing-mode:lr-tb;text-anchor:start;font-family:Alegreya Sans;-inkscape-font-specification:Alegreya Sans Medium"
           id="path3070" />
      </g>
    </g>
    <g
       id="g4662"
       transform="matrix(0.89523991,0,0,0.89523991,40.23666,48.183761)">
      <path
         id="path3082"
         style="baseline-shift:baseline;block-progression:tb;color:#000000;direction:ltr;text-indent:0;text-align:start;enable-background:accumulate;text-transform:none;"
         fill="#000"
         d="m355.16,430.94,0,10,101.34,0,0-10-101.34,0z" />
      <path
         id="path4668"
         stroke-linejoin="round"
         d="m404.2,411.73,65.555,24.106-65.555,24.106c10.473-14.232,10.413-33.705,0-48.213z"
         fill-rule="evenodd"
         stroke-width="0.625" />
    </g>
    <path
       id="path4660"
       style="baseline-shift:baseline;block-progression:tb;color:#000000;direction:ltr;text-indent:0;text-align:start;enable-background:accumulate;text-transform:none;"
       fill="#000"
       d="m195.47,413.12,0,0.0312-0.0312,0.0312-0.3125,0.96875,2.75,0.90625,0.28125-0.90625,0.0312-0.0312,0.65625-1.7188-2.6875-1.0312zm-2,7.7188,0,0.0312,0,0.0625-0.15625,1.75-0.0312,0.0625,0,0.0312,0,0.28125,2.9062,0.0625,0-0.15625,0-0.125,0.15625-1.5312,0-0.0937,0.125-0.78125-2.8438-0.46875zm0.3125,8.3125,0.15625,0.71875,0,0.0312,0.0312,0.0625,0.46875,1.6875,0.0312,0.0312,0,0.0625,0.15625,0.40625,2.7188-1-0.125-0.3125,0-0.0625-0.0312-0.0312-0.40625-1.4688-0.0312-0.0937-0.125-0.625zm3.375,8.4688,1.3438,2.3125,0,0.0312,0.125,0.1875,2.5-1.4688l-0.8,1.57-1.3125-2.3125zm4.3438,7.5312,0.75,1.375,0.0312,0.0312,0.5625,1.0938,2.5625-1.3438-0.59375-1.125,0-0.0312-0.78125-1.4062zm3.75,7.625,0.53125,1.3125,0.0312,0.0625,0.46875,1.2812,2.7188-0.96875-0.5-1.375,0-0.0312-0.5625-1.375zm2.5938,8.0312,0.375,1.9062,0.125,0.84375,2.875-0.40625-0.125-0.875,0-0.0312,0-0.0312-0.40625-2zm0.90625,8.5625,0,0.125-0.125,0.875-0.125,0.71875-0.0312,0.0937-0.0937,0.4375,2.7812,0.71875,0.15625-0.53125,0-0.0625,0.0312-0.0312,0.15625-0.90625,0-0.0625,0.0312-0.0312,0.0937-1,0-0.0312,0-0.0625,0.0312-0.40625-2.9062-0.15625z" />
  </g>
</svg>
