<?xml version="1.0" encoding="UTF-8" standalone="no"?>
<!-- Created with Inkscape (http://www.inkscape.org/) -->
<svg id="svg3218" xmlns:rdf="http://www.w3.org/1999/02/22-rdf-syntax-ns#" xmlns="http://www.w3.org/2000/svg" height="41.96" width="181.1" version="1.1" xmlns:cc="http://creativecommons.org/ns#" xmlns:xlink="http://www.w3.org/1999/xlink" xmlns:dc="http://purl.org/dc/elements/1.1/">
 <metadata id="metadata3223">
  <rdf:RDF>
   <cc:Work rdf:about="">
    <dc:format>image/svg+xml</dc:format>
    <dc:type rdf:resource="http://purl.org/dc/dcmitype/StillImage"/>
    <dc:title/>
   </cc:Work>
  </rdf:RDF>
 </metadata>
 <g id="layer1" transform="translate(-184.80938,-298.16943)">
  <use id="use103" xlink:href="#g0-80" transform="matrix(1.4072249,0,0,1.4072249,-31.250872,-76.274995)" height="64.361099" width="259.19299" y="93.703796" x="39"/>
  <use id="use105" xlink:href="#g6-48" transform="matrix(1.4072249,0,0,1.4072249,-31.250872,-76.274995)" height="64.361099" width="259.19299" y="88.7491" x="48.205502"/>
  <use id="use107" xlink:href="#g3-107" transform="matrix(1.4072249,0,0,1.4072249,-31.250872,-76.274995)" height="64.361099" width="259.19299" y="96.670303" x="46.573601"/>
  <use id="use109" xlink:href="#g2-21" transform="matrix(1.4072249,0,0,1.4072249,-31.250872,-76.274995)" height="64.361099" width="259.19299" y="93.703796" x="55.045799"/>
  <use id="use111" xlink:href="#g0-120" transform="matrix(1.4072249,0,0,1.4072249,-31.250872,-76.274995)" height="64.361099" width="259.19299" y="93.703796" x="67.712402"/>
  <use id="use113" xlink:href="#g3-106" transform="matrix(1.4072249,0,0,1.4072249,-31.250872,-76.274995)" height="64.361099" width="259.19299" y="95.5037" x="74.389503"/>
  <use id="use115" xlink:href="#g3-107" transform="matrix(1.4072249,0,0,1.4072249,-31.250872,-76.274995)" height="64.361099" width="259.19299" y="95.5037" x="78.288101"/>
  <use id="use117" xlink:href="#g0-112" transform="matrix(1.4072249,0,0,1.4072249,-31.250872,-76.274995)" height="64.361099" width="259.19299" y="93.703796" x="85.427002"/>
  <use id="use119" xlink:href="#g3-106" transform="matrix(1.4072249,0,0,1.4072249,-31.250872,-76.274995)" height="64.361099" width="259.19299" y="95.5037" x="91.324203"/>
  <use id="use121" xlink:href="#g2-0" transform="matrix(1.4072249,0,0,1.4072249,-31.250872,-76.274995)" height="64.361099" width="259.19299" y="93.703796" x="98.389397"/>
  <use id="use123" xlink:href="#g0-112" transform="matrix(1.4072249,0,0,1.4072249,-31.250872,-76.274995)" height="64.361099" width="259.19299" y="93.703796" x="110.389"/>
  <use id="use125" xlink:href="#g3-107" transform="matrix(1.4072249,0,0,1.4072249,-31.250872,-76.274995)" height="64.361099" width="259.19299" y="95.5037" x="116.287"/>
  <use id="use127" xlink:href="#g2-56" transform="matrix(1.4072249,0,0,1.4072249,-18.008305,-76.274995)" height="64.361099" width="259.19299" y="93.703796" x="133.175"/>
  <use id="use129" xlink:href="#g0-106" transform="matrix(1.4072249,0,0,1.4072249,-18.008305,-76.274995)" height="64.361099" width="259.19299" y="93.703796" x="139.842"/>
  <use id="use131" xlink:href="#g0-59" transform="matrix(1.4072249,0,0,1.4072249,-18.008305,-76.274995)" height="64.361099" width="259.19299" y="93.703796" x="144.72501"/>
  <use id="use133" xlink:href="#g0-107" transform="matrix(1.4072249,0,0,1.4072249,-18.008305,-76.274995)" height="64.361099" width="259.19299" y="93.703796" x="149.989"/>
  <use id="use135" xlink:href="#g0-80" transform="matrix(1.4072249,0,0,1.4072249,-31.250872,-76.274995)" height="64.361099" width="259.19299" y="108.204" x="39"/>
  <use id="use137" xlink:href="#g6-48" transform="matrix(1.4072249,0,0,1.4072249,-31.250872,-76.274995)" height="64.361099" width="259.19299" y="103.249" x="48.205502"/>
  <use id="use139" xlink:href="#g3-107" transform="matrix(1.4072249,0,0,1.4072249,-31.250872,-76.274995)" height="64.361099" width="259.19299" y="111.17" x="46.573601"/>
  <use id="use141" xlink:href="#g2-21" transform="matrix(1.4072249,0,0,1.4072249,-31.250872,-76.274995)" height="64.361099" width="259.19299" y="108.204" x="55.045799"/>
  <use id="use143" xlink:href="#g4-48" transform="matrix(1.4072249,0,0,1.4072249,-31.250872,-76.274995)" height="64.361099" width="259.19299" y="108.204" x="67.712402"/>
  <use id="use145" xlink:href="#g2-56" transform="matrix(1.4072249,0,0,1.4072249,49.528785,-76.274995)" height="64.361099" width="259.19299" y="108.204" x="85.337303"/>
  <use id="use147" xlink:href="#g0-107" transform="matrix(1.4072249,0,0,1.4072249,49.528785,-76.274995)" height="64.361099" width="259.19299" y="108.204" x="92.003899"/>
  <use id="use103-8" xlink:href="#g0-80" transform="matrix(1.4072249,0,0,1.4072249,-31.250872,-76.274995)" height="64.361099" width="259.19299" y="93.703796" x="39"/>
  <use id="use105-2" xlink:href="#g6-48" transform="matrix(1.4072249,0,0,1.4072249,-31.250872,-76.274995)" height="64.361099" width="259.19299" y="88.7491" x="48.205502"/>
  <use id="use107-1" xlink:href="#g3-107" transform="matrix(1.4072249,0,0,1.4072249,-31.250872,-76.274995)" height="64.361099" width="259.19299" y="96.670303" x="46.573601"/>
  <use id="use109-8" xlink:href="#g2-21" transform="matrix(1.4072249,0,0,1.4072249,-31.250872,-76.274995)" height="64.361099" width="259.19299" y="93.703796" x="55.045799"/>
  <use id="use111-5" xlink:href="#g0-120" transform="matrix(1.4072249,0,0,1.4072249,-31.250872,-76.274995)" height="64.361099" width="259.19299" y="93.703796" x="67.712402"/>
  <use id="use113-0" xlink:href="#g3-106" transform="matrix(1.4072249,0,0,1.4072249,-31.250872,-76.274995)" height="64.361099" width="259.19299" y="95.5037" x="74.389503"/>
  <use id="use115-4" xlink:href="#g3-107" transform="matrix(1.4072249,0,0,1.4072249,-31.250872,-76.274995)" height="64.361099" width="259.19299" y="95.5037" x="78.288101"/>
  <use id="use117-1" xlink:href="#g0-112" transform="matrix(1.4072249,0,0,1.4072249,-31.250872,-76.274995)" height="64.361099" width="259.19299" y="93.703796" x="85.427002"/>
  <use id="use119-8" xlink:href="#g3-106" transform="matrix(1.4072249,0,0,1.4072249,-31.250872,-76.274995)" height="64.361099" width="259.19299" y="95.5037" x="91.324203"/>
  <use id="use121-9" xlink:href="#g2-0" transform="matrix(1.4072249,0,0,1.4072249,-31.250872,-76.274995)" height="64.361099" width="259.19299" y="93.703796" x="98.389397"/>
  <use id="use123-7" xlink:href="#g0-112" transform="matrix(1.4072249,0,0,1.4072249,-31.250872,-76.274995)" height="64.361099" width="259.19299" y="93.703796" x="110.389"/>
  <use id="use125-4" xlink:href="#g3-107" transform="matrix(1.4072249,0,0,1.4072249,-31.250872,-76.274995)" height="64.361099" width="259.19299" y="95.5037" x="116.287"/>
  <use id="use127-9" xlink:href="#g2-56" transform="matrix(1.4072249,0,0,1.4072249,-18.008305,-76.274995)" height="64.361099" width="259.19299" y="93.703796" x="133.175"/>
  <use id="use129-2" xlink:href="#g0-106" transform="matrix(1.4072249,0,0,1.4072249,-18.008305,-76.274995)" height="64.361099" width="259.19299" y="93.703796" x="139.842"/>
  <use id="use131-4" xlink:href="#g0-59" transform="matrix(1.4072249,0,0,1.4072249,-18.008305,-76.274995)" height="64.361099" width="259.19299" y="93.703796" x="144.72501"/>
  <use id="use133-6" xlink:href="#g0-107" transform="matrix(1.4072249,0,0,1.4072249,-18.008305,-76.274995)" height="64.361099" width="259.19299" y="93.703796" x="149.989"/>
  <use id="use135-2" xlink:href="#g0-80" transform="matrix(1.4072249,0,0,1.4072249,-31.250872,-76.274995)" height="64.361099" width="259.19299" y="108.204" x="39"/>
  <use id="use137-0" xlink:href="#g6-48" transform="matrix(1.4072249,0,0,1.4072249,-31.250872,-76.274995)" height="64.361099" width="259.19299" y="103.249" x="48.205502"/>
  <use id="use139-7" xlink:href="#g3-107" transform="matrix(1.4072249,0,0,1.4072249,-31.250872,-76.274995)" height="64.361099" width="259.19299" y="111.17" x="46.573601"/>
  <use id="use141-3" xlink:href="#g2-21" transform="matrix(1.4072249,0,0,1.4072249,-31.250872,-76.274995)" height="64.361099" width="259.19299" y="108.204" x="55.045799"/>
  <use id="use143-9" xlink:href="#g4-48" transform="matrix(1.4072249,0,0,1.4072249,-31.250872,-76.274995)" height="64.361099" width="259.19299" y="108.204" x="67.712402"/>
  <use id="use145-2" xlink:href="#g2-56" transform="matrix(1.4072249,0,0,1.4072249,49.528785,-76.274995)" height="64.361099" width="259.19299" y="108.204" x="85.337303"/>
  <use id="use147-4" xlink:href="#g0-107" transform="matrix(1.4072249,0,0,1.4072249,49.528785,-76.274995)" height="64.361099" width="259.19299" y="108.204" x="92.003899"/>
  <use id="use103-6" xlink:href="#g0-80" transform="matrix(1.4072249,0,0,1.4072249,-31.250872,-76.274995)" height="64.361099" width="259.19299" y="93.703796" x="39"/>
  <use id="use105-4" xlink:href="#g6-48" transform="matrix(1.4072249,0,0,1.4072249,-31.250872,-76.274995)" height="64.361099" width="259.19299" y="88.7491" x="48.205502"/>
  <use id="use107-9" xlink:href="#g3-107" transform="matrix(1.4072249,0,0,1.4072249,-31.250872,-76.274995)" height="64.361099" width="259.19299" y="96.670303" x="46.573601"/>
  <use id="use109-82" xlink:href="#g2-21" transform="matrix(1.4072249,0,0,1.4072249,-31.250872,-76.274995)" height="64.361099" width="259.19299" y="93.703796" x="55.045799"/>
  <use id="use111-52" xlink:href="#g0-120" transform="matrix(1.4072249,0,0,1.4072249,-31.250872,-76.274995)" height="64.361099" width="259.19299" y="93.703796" x="67.712402"/>
  <use id="use113-4" xlink:href="#g3-106" transform="matrix(1.4072249,0,0,1.4072249,-31.250872,-76.274995)" height="64.361099" width="259.19299" y="95.5037" x="74.389503"/>
  <use id="use115-3" xlink:href="#g3-107" transform="matrix(1.4072249,0,0,1.4072249,-31.250872,-76.274995)" height="64.361099" width="259.19299" y="95.5037" x="78.288101"/>
  <use id="use117-6" xlink:href="#g0-112" transform="matrix(1.4072249,0,0,1.4072249,-31.250872,-76.274995)" height="64.361099" width="259.19299" y="93.703796" x="85.427002"/>
  <use id="use119-7" xlink:href="#g3-106" transform="matrix(1.4072249,0,0,1.4072249,-31.250872,-76.274995)" height="64.361099" width="259.19299" y="95.5037" x="91.324203"/>
  <use id="use121-3" xlink:href="#g2-0" transform="matrix(1.4072249,0,0,1.4072249,-31.250872,-76.274995)" height="64.361099" width="259.19299" y="93.703796" x="98.389397"/>
  <use id="use123-3" xlink:href="#g0-112" transform="matrix(1.4072249,0,0,1.4072249,-31.250872,-76.274995)" height="64.361099" width="259.19299" y="93.703796" x="110.389"/>
  <use id="use125-7" xlink:href="#g3-107" transform="matrix(1.4072249,0,0,1.4072249,-31.250872,-76.274995)" height="64.361099" width="259.19299" y="95.5037" x="116.287"/>
  <use id="use127-7" xlink:href="#g2-56" transform="matrix(1.4072249,0,0,1.4072249,-18.008305,-76.274995)" height="64.361099" width="259.19299" y="93.703796" x="133.175"/>
  <use id="use129-4" xlink:href="#g0-106" transform="matrix(1.4072249,0,0,1.4072249,-18.008305,-76.274995)" height="64.361099" width="259.19299" y="93.703796" x="139.842"/>
  <use id="use131-8" xlink:href="#g0-59" transform="matrix(1.4072249,0,0,1.4072249,-18.008305,-76.274995)" height="64.361099" width="259.19299" y="93.703796" x="144.72501"/>
  <use id="use133-63" xlink:href="#g0-107" transform="matrix(1.4072249,0,0,1.4072249,-18.008305,-76.274995)" height="64.361099" width="259.19299" y="93.703796" x="149.989"/>
  <use id="use135-4" xlink:href="#g0-80" transform="matrix(1.4072249,0,0,1.4072249,-31.250872,-76.274995)" height="64.361099" width="259.19299" y="108.204" x="39"/>
  <use id="use137-7" xlink:href="#g6-48" transform="matrix(1.4072249,0,0,1.4072249,-31.250872,-76.274995)" height="64.361099" width="259.19299" y="103.249" x="48.205502"/>
  <use id="use139-8" xlink:href="#g3-107" transform="matrix(1.4072249,0,0,1.4072249,-31.250872,-76.274995)" height="64.361099" width="259.19299" y="111.17" x="46.573601"/>
  <use id="use141-8" xlink:href="#g2-21" transform="matrix(1.4072249,0,0,1.4072249,-31.250872,-76.274995)" height="64.361099" width="259.19299" y="108.204" x="55.045799"/>
  <use id="use143-3" xlink:href="#g4-48" transform="matrix(1.4072249,0,0,1.4072249,-31.250872,-76.274995)" height="64.361099" width="259.19299" y="108.204" x="67.712402"/>
  <use id="use145-0" xlink:href="#g2-56" transform="matrix(1.4072249,0,0,1.4072249,49.528785,-76.274995)" height="64.361099" width="259.19299" y="108.204" x="85.337303"/>
  <use id="use147-0" xlink:href="#g0-107" transform="matrix(1.4072249,0,0,1.4072249,49.528785,-76.274995)" height="64.361099" width="259.19299" y="108.204" x="92.003899"/>
  <use id="use103-3" xlink:href="#g0-80" transform="matrix(1.4072249,0,0,1.4072249,-130.31856,-83.278001)" height="64.361099" width="259.19299" y="93.703796" x="39"/>
  <use id="use105-40" xlink:href="#g6-48" transform="matrix(1.4072249,0,0,1.4072249,-130.31856,-83.278001)" height="64.361099" width="259.19299" y="88.7491" x="48.205502"/>
  <use id="use107-5" xlink:href="#g3-107" transform="matrix(1.4072249,0,0,1.4072249,-130.31856,-83.278001)" height="64.361099" width="259.19299" y="96.670303" x="46.573601"/>
  <use id="use109-0" xlink:href="#g2-21" transform="matrix(1.4072249,0,0,1.4072249,-130.31856,-83.278001)" height="64.361099" width="259.19299" y="93.703796" x="55.045799"/>
  <use id="use111-8" xlink:href="#g0-120" transform="matrix(1.4072249,0,0,1.4072249,-130.31856,-83.278001)" height="64.361099" width="259.19299" y="93.703796" x="67.712402"/>
  <use id="use113-9" xlink:href="#g3-106" transform="matrix(1.4072249,0,0,1.4072249,-130.31856,-83.278001)" height="64.361099" width="259.19299" y="95.5037" x="74.389503"/>
  <use id="use115-9" xlink:href="#g3-107" transform="matrix(1.4072249,0,0,1.4072249,-130.31856,-83.278001)" height="64.361099" width="259.19299" y="95.5037" x="78.288101"/>
  <use id="use117-8" xlink:href="#g0-112" transform="matrix(1.4072249,0,0,1.4072249,-130.31856,-83.278001)" height="64.361099" width="259.19299" y="93.703796" x="85.427002"/>
  <use id="use119-3" xlink:href="#g3-106" transform="matrix(1.4072249,0,0,1.4072249,-130.31856,-83.278001)" height="64.361099" width="259.19299" y="95.5037" x="91.324203"/>
  <use id="use121-4" xlink:href="#g2-0" transform="matrix(1.4072249,0,0,1.4072249,-130.31856,-83.278001)" height="64.361099" width="259.19299" y="93.703796" x="98.389397"/>
  <use id="use123-0" xlink:href="#g0-112" transform="matrix(1.4072249,0,0,1.4072249,-130.31856,-83.278001)" height="64.361099" width="259.19299" y="93.703796" x="110.389"/>
  <use id="use125-9" xlink:href="#g3-107" transform="matrix(1.4072249,0,0,1.4072249,-130.31856,-83.278001)" height="64.361099" width="259.19299" y="95.5037" x="116.287"/>
  <use id="use127-97" xlink:href="#g2-56" transform="matrix(1.4072249,0,0,1.4072249,-117.07599,-83.278001)" height="64.361099" width="259.19299" y="93.703796" x="133.175"/>
  <use id="use129-6" xlink:href="#g0-106" transform="matrix(1.4072249,0,0,1.4072249,-117.07599,-83.278001)" height="64.361099" width="259.19299" y="93.703796" x="139.842"/>
  <use id="use131-2" xlink:href="#g0-59" transform="matrix(1.4072249,0,0,1.4072249,-117.07599,-83.278001)" height="64.361099" width="259.19299" y="93.703796" x="144.72501"/>
  <use id="use133-0" xlink:href="#g0-107" transform="matrix(1.4072249,0,0,1.4072249,-117.07599,-83.278001)" height="64.361099" width="259.19299" y="93.703796" x="149.989"/>
  <use id="use135-49" xlink:href="#g0-80" transform="matrix(1.4072249,0,0,1.4072249,-130.31856,-83.278001)" height="64.361099" width="259.19299" y="108.204" x="39"/>
  <use id="use137-74" xlink:href="#g6-48" transform="matrix(1.4072249,0,0,1.4072249,-130.31856,-83.278001)" height="64.361099" width="259.19299" y="103.249" x="48.205502"/>
  <use id="use139-72" xlink:href="#g3-107" transform="matrix(1.4072249,0,0,1.4072249,-130.31856,-83.278001)" height="64.361099" width="259.19299" y="111.17" x="46.573601"/>
  <use id="use141-84" xlink:href="#g2-21" transform="matrix(1.4072249,0,0,1.4072249,-130.31856,-83.278001)" height="64.361099" width="259.19299" y="108.204" x="55.045799"/>
  <use id="use143-0" xlink:href="#g4-48" transform="matrix(1.4072249,0,0,1.4072249,-130.31856,-83.278001)" height="64.361099" width="259.19299" y="108.204" x="67.712402"/>
  <use id="use145-8" xlink:href="#g2-56" transform="matrix(1.4072249,0,0,1.4072249,-49.538902,-83.278001)" height="64.361099" width="259.19299" y="108.204" x="85.337303"/>
  <use id="use147-03" xlink:href="#g0-107" transform="matrix(1.4072249,0,0,1.4072249,-49.538902,-83.278001)" height="64.361099" width="259.19299" y="108.204" x="92.003899"/>
  <use id="use103-9" xlink:href="#g0-80" transform="matrix(1.4072249,0,0,1.4072249,-130.31856,-83.278001)" height="64.361099" width="259.19299" y="93.703796" x="39"/>
  <use id="use105-3" xlink:href="#g6-48" transform="matrix(1.4072249,0,0,1.4072249,-130.31856,-83.278001)" height="64.361099" width="259.19299" y="88.7491" x="48.205502"/>
  <use id="use107-7" xlink:href="#g3-107" transform="matrix(1.4072249,0,0,1.4072249,-130.31856,-83.278001)" height="64.361099" width="259.19299" y="96.670303" x="46.573601"/>
  <use id="use109-1" xlink:href="#g2-21" transform="matrix(1.4072249,0,0,1.4072249,-130.31856,-83.278001)" height="64.361099" width="259.19299" y="93.703796" x="55.045799"/>
  <use id="use111-0" xlink:href="#g0-120" transform="matrix(1.4072249,0,0,1.4072249,-130.31856,-83.278001)" height="64.361099" width="259.19299" y="93.703796" x="67.712402"/>
  <use id="use113-99" xlink:href="#g3-106" transform="matrix(1.4072249,0,0,1.4072249,-130.31856,-83.278001)" height="64.361099" width="259.19299" y="95.5037" x="74.389503"/>
  <use id="use115-1" xlink:href="#g3-107" transform="matrix(1.4072249,0,0,1.4072249,-130.31856,-83.278001)" height="64.361099" width="259.19299" y="95.5037" x="78.288101"/>
  <use id="use117-0" xlink:href="#g0-112" transform="matrix(1.4072249,0,0,1.4072249,-130.31856,-83.278001)" height="64.361099" width="259.19299" y="93.703796" x="85.427002"/>
  <use id="use119-75" xlink:href="#g3-106" transform="matrix(1.4072249,0,0,1.4072249,-130.31856,-83.278001)" height="64.361099" width="259.19299" y="95.5037" x="91.324203"/>
  <use id="use121-5" xlink:href="#g2-0" transform="matrix(1.4072249,0,0,1.4072249,-130.31856,-83.278001)" height="64.361099" width="259.19299" y="93.703796" x="98.389397"/>
  <use id="use123-9" xlink:href="#g0-112" transform="matrix(1.4072249,0,0,1.4072249,-130.31856,-83.278001)" height="64.361099" width="259.19299" y="93.703796" x="110.389"/>
  <use id="use125-6" xlink:href="#g3-107" transform="matrix(1.4072249,0,0,1.4072249,-130.31856,-83.278001)" height="64.361099" width="259.19299" y="95.5037" x="116.287"/>
  <use id="use127-4" xlink:href="#g2-56" transform="matrix(1.4072249,0,0,1.4072249,-117.07599,-83.278001)" height="64.361099" width="259.19299" y="93.703796" x="133.175"/>
  <use id="use129-8" xlink:href="#g0-106" transform="matrix(1.4072249,0,0,1.4072249,-117.07599,-83.278001)" height="64.361099" width="259.19299" y="93.703796" x="139.842"/>
  <use id="use131-3" xlink:href="#g0-59" transform="matrix(1.4072249,0,0,1.4072249,-117.07599,-83.278001)" height="64.361099" width="259.19299" y="93.703796" x="144.72501"/>
  <use id="use133-9" xlink:href="#g0-107" transform="matrix(1.4072249,0,0,1.4072249,-117.07599,-83.278001)" height="64.361099" width="259.19299" y="93.703796" x="149.989"/>
  <use id="use135-1" xlink:href="#g0-80" transform="matrix(1.4072249,0,0,1.4072249,-130.31856,-83.278001)" height="64.361099" width="259.19299" y="108.204" x="39"/>
  <use id="use137-9" xlink:href="#g6-48" transform="matrix(1.4072249,0,0,1.4072249,-130.31856,-83.278001)" height="64.361099" width="259.19299" y="103.249" x="48.205502"/>
  <use id="use139-80" xlink:href="#g3-107" transform="matrix(1.4072249,0,0,1.4072249,-130.31856,-83.278001)" height="64.361099" width="259.19299" y="111.17" x="46.573601"/>
  <use id="use141-38" xlink:href="#g2-21" transform="matrix(1.4072249,0,0,1.4072249,-130.31856,-83.278001)" height="64.361099" width="259.19299" y="108.204" x="55.045799"/>
  <use id="use143-2" xlink:href="#g4-48" transform="matrix(1.4072249,0,0,1.4072249,-130.31856,-83.278001)" height="64.361099" width="259.19299" y="108.204" x="67.712402"/>
  <use id="use145-1" xlink:href="#g2-56" transform="matrix(1.4072249,0,0,1.4072249,-49.538902,-83.278001)" height="64.361099" width="259.19299" y="108.204" x="85.337303"/>
  <use id="use147-2" xlink:href="#g0-107" transform="matrix(1.4072249,0,0,1.4072249,-49.538902,-83.278001)" height="64.361099" width="259.19299" y="108.204" x="92.003899"/>
  <use id="use103-5" xlink:href="#g0-80" transform="matrix(1.4072249,0,0,1.4072249,-102.84023,-73.015012)" height="64.361099" width="259.19299" y="93.703796" x="39"/>
  <use id="use105-1" xlink:href="#g6-48" transform="matrix(1.4072249,0,0,1.4072249,-102.84023,-73.015012)" height="64.361099" width="259.19299" y="88.7491" x="48.205502"/>
  <use id="use107-4" xlink:href="#g3-107" transform="matrix(1.4072249,0,0,1.4072249,-102.84023,-73.015012)" height="64.361099" width="259.19299" y="96.670303" x="46.573601"/>
  <use id="use109-80" xlink:href="#g2-21" transform="matrix(1.4072249,0,0,1.4072249,-102.84023,-73.015012)" height="64.361099" width="259.19299" y="93.703796" x="55.045799"/>
  <use id="use111-9" xlink:href="#g0-120" transform="matrix(1.4072249,0,0,1.4072249,-102.84023,-73.015012)" height="64.361099" width="259.19299" y="93.703796" x="67.712402"/>
  <use id="use113-7" xlink:href="#g3-106" transform="matrix(1.4072249,0,0,1.4072249,-102.84023,-73.015012)" height="64.361099" width="259.19299" y="95.5037" x="74.389503"/>
  <use id="use115-39" xlink:href="#g3-107" transform="matrix(1.4072249,0,0,1.4072249,-102.84023,-73.015012)" height="64.361099" width="259.19299" y="95.5037" x="78.288101"/>
  <use id="use117-64" xlink:href="#g0-112" transform="matrix(1.4072249,0,0,1.4072249,-102.84023,-73.015012)" height="64.361099" width="259.19299" y="93.703796" x="85.427002"/>
  <use id="use119-36" xlink:href="#g3-106" transform="matrix(1.4072249,0,0,1.4072249,-102.84023,-73.015012)" height="64.361099" width="259.19299" y="95.5037" x="91.324203"/>
  <use id="use121-30" xlink:href="#g2-0" transform="matrix(1.4072249,0,0,1.4072249,-102.84023,-73.015012)" height="64.361099" width="259.19299" y="93.703796" x="98.389397"/>
  <use id="use123-33" xlink:href="#g0-112" transform="matrix(1.4072249,0,0,1.4072249,-102.84023,-73.015012)" height="64.361099" width="259.19299" y="93.703796" x="110.389"/>
  <use id="use125-60" xlink:href="#g3-107" transform="matrix(1.4072249,0,0,1.4072249,-102.84023,-73.015012)" height="64.361099" width="259.19299" y="95.5037" x="116.287"/>
  <use id="use127-3" xlink:href="#g2-56" transform="matrix(1.4072249,0,0,1.4072249,-89.597662,-73.015012)" height="64.361099" width="259.19299" y="93.703796" x="133.175"/>
  <use id="use129-9" xlink:href="#g0-106" transform="matrix(1.4072249,0,0,1.4072249,-89.597662,-73.015012)" height="64.361099" width="259.19299" y="93.703796" x="139.842"/>
  <use id="use131-9" xlink:href="#g0-59" transform="matrix(1.4072249,0,0,1.4072249,-89.597662,-73.015012)" height="64.361099" width="259.19299" y="93.703796" x="144.72501"/>
  <use id="use133-4" xlink:href="#g0-107" transform="matrix(1.4072249,0,0,1.4072249,-89.597662,-73.015012)" height="64.361099" width="259.19299" y="93.703796" x="149.989"/>
  <use id="use135-8" xlink:href="#g0-80" transform="matrix(1.4072249,0,0,1.4072249,-102.84023,-73.015012)" height="64.361099" width="259.19299" y="108.204" x="39"/>
  <use id="use137-94" xlink:href="#g6-48" transform="matrix(1.4072249,0,0,1.4072249,-102.84023,-73.015012)" height="64.361099" width="259.19299" y="103.249" x="48.205502"/>
  <use id="use139-3" xlink:href="#g3-107" transform="matrix(1.4072249,0,0,1.4072249,-102.84023,-73.015012)" height="64.361099" width="259.19299" y="111.17" x="46.573601"/>
  <use id="use141-7" xlink:href="#g2-21" transform="matrix(1.4072249,0,0,1.4072249,-102.84023,-73.015012)" height="64.361099" width="259.19299" y="108.204" x="55.045799"/>
  <use id="use143-96" xlink:href="#g4-48" transform="matrix(1.4072249,0,0,1.4072249,-102.84023,-73.015012)" height="64.361099" width="259.19299" y="108.204" x="67.712402"/>
  <use id="use145-24" xlink:href="#g2-56" transform="matrix(1.4072249,0,0,1.4072249,-22.060573,-73.015012)" height="64.361099" width="259.19299" y="108.204" x="85.337303"/>
  <use id="use147-8" xlink:href="#g0-107" transform="matrix(1.4072249,0,0,1.4072249,-22.060573,-73.015012)" height="64.361099" width="259.19299" y="108.204" x="92.003899"/>
  <use id="use103-62" xlink:href="#g0-80" transform="matrix(1.4072249,0,0,1.4072249,-102.84023,-73.015012)" height="64.361099" width="259.19299" y="93.703796" x="39"/>
  <use id="use105-0" xlink:href="#g6-48" transform="matrix(1.4072249,0,0,1.4072249,-102.84023,-73.015012)" height="64.361099" width="259.19299" y="88.7491" x="48.205502"/>
  <use id="use107-8" xlink:href="#g3-107" transform="matrix(1.4072249,0,0,1.4072249,-102.84023,-73.015012)" height="64.361099" width="259.19299" y="96.670303" x="46.573601"/>
  <use id="use109-14" xlink:href="#g2-21" transform="matrix(1.4072249,0,0,1.4072249,-102.84023,-73.015012)" height="64.361099" width="259.19299" y="93.703796" x="55.045799"/>
  <use id="use111-99" xlink:href="#g0-120" transform="matrix(1.4072249,0,0,1.4072249,-102.84023,-73.015012)" height="64.361099" width="259.19299" y="93.703796" x="67.712402"/>
  <use id="use113-02" xlink:href="#g3-106" transform="matrix(1.4072249,0,0,1.4072249,-102.84023,-73.015012)" height="64.361099" width="259.19299" y="95.5037" x="74.389503"/>
  <use id="use115-5" xlink:href="#g3-107" transform="matrix(1.4072249,0,0,1.4072249,-102.84023,-73.015012)" height="64.361099" width="259.19299" y="95.5037" x="78.288101"/>
  <use id="use117-4" xlink:href="#g0-112" transform="matrix(1.4072249,0,0,1.4072249,-102.84023,-73.015012)" height="64.361099" width="259.19299" y="93.703796" x="85.427002"/>
  <use id="use119-2" xlink:href="#g3-106" transform="matrix(1.4072249,0,0,1.4072249,-102.84023,-73.015012)" height="64.361099" width="259.19299" y="95.5037" x="91.324203"/>
  <use id="use121-1" xlink:href="#g2-0" transform="matrix(1.4072249,0,0,1.4072249,-102.84023,-73.015012)" height="64.361099" width="259.19299" y="93.703796" x="98.389397"/>
  <use id="use123-91" xlink:href="#g0-112" transform="matrix(1.4072249,0,0,1.4072249,-102.84023,-73.015012)" height="64.361099" width="259.19299" y="93.703796" x="110.389"/>
  <use id="use125-3" xlink:href="#g3-107" transform="matrix(1.4072249,0,0,1.4072249,-102.84023,-73.015012)" height="64.361099" width="259.19299" y="95.5037" x="116.287"/>
  <use id="use127-2" xlink:href="#g2-56" transform="matrix(1.4072249,0,0,1.4072249,-89.597662,-73.015012)" height="64.361099" width="259.19299" y="93.703796" x="133.175"/>
  <use id="use129-24" xlink:href="#g0-106" transform="matrix(1.4072249,0,0,1.4072249,-89.597662,-73.015012)" height="64.361099" width="259.19299" y="93.703796" x="139.842"/>
  <use id="use131-93" xlink:href="#g0-59" transform="matrix(1.4072249,0,0,1.4072249,-89.597662,-73.015012)" height="64.361099" width="259.19299" y="93.703796" x="144.72501"/>
  <use id="use133-3" xlink:href="#g0-107" transform="matrix(1.4072249,0,0,1.4072249,-89.597662,-73.015012)" height="64.361099" width="259.19299" y="93.703796" x="149.989"/>
  <use id="use135-3" xlink:href="#g0-80" transform="matrix(1.4072249,0,0,1.4072249,-102.84023,-73.015012)" height="64.361099" width="259.19299" y="108.204" x="39"/>
  <use id="use137-6" xlink:href="#g6-48" transform="matrix(1.4072249,0,0,1.4072249,-102.84023,-73.015012)" height="64.361099" width="259.19299" y="103.249" x="48.205502"/>
  <use id="use139-32" xlink:href="#g3-107" transform="matrix(1.4072249,0,0,1.4072249,-102.84023,-73.015012)" height="64.361099" width="259.19299" y="111.17" x="46.573601"/>
  <use id="use141-35" xlink:href="#g2-21" transform="matrix(1.4072249,0,0,1.4072249,-102.84023,-73.015012)" height="64.361099" width="259.19299" y="108.204" x="55.045799"/>
  <use id="use143-6" xlink:href="#g4-48" transform="matrix(1.4072249,0,0,1.4072249,-102.84023,-73.015012)" height="64.361099" width="259.19299" y="108.204" x="67.712402"/>
  <use id="use145-3" xlink:href="#g2-56" transform="matrix(1.4072249,0,0,1.4072249,-22.060573,-73.015012)" height="64.361099" width="259.19299" y="108.204" x="85.337303"/>
  <use id="use147-3" xlink:href="#g0-107" transform="matrix(1.4072249,0,0,1.4072249,-22.060573,-73.015012)" height="64.361099" width="259.19299" y="108.204" x="92.003899"/>
  <use id="use103-0" xlink:href="#g0-80" transform="matrix(1.4072249,0,0,1.4072249,-102.84023,-73.015012)" height="64.361099" width="259.19299" y="93.703796" x="39"/>
  <use id="use105-31" xlink:href="#g6-48" transform="matrix(1.4072249,0,0,1.4072249,-102.84023,-73.015012)" height="64.361099" width="259.19299" y="88.7491" x="48.205502"/>
  <use id="use107-19" xlink:href="#g3-107" transform="matrix(1.4072249,0,0,1.4072249,-102.84023,-73.015012)" height="64.361099" width="259.19299" y="96.670303" x="46.573601"/>
  <use id="use109-3" xlink:href="#g2-21" transform="matrix(1.4072249,0,0,1.4072249,-102.84023,-73.015012)" height="64.361099" width="259.19299" y="93.703796" x="55.045799"/>
  <use id="use111-00" xlink:href="#g0-120" transform="matrix(1.4072249,0,0,1.4072249,-102.84023,-73.015012)" height="64.361099" width="259.19299" y="93.703796" x="67.712402"/>
  <use id="use113-5" xlink:href="#g3-106" transform="matrix(1.4072249,0,0,1.4072249,-102.84023,-73.015012)" height="64.361099" width="259.19299" y="95.5037" x="74.389503"/>
  <use id="use115-8" xlink:href="#g3-107" transform="matrix(1.4072249,0,0,1.4072249,-102.84023,-73.015012)" height="64.361099" width="259.19299" y="95.5037" x="78.288101"/>
  <use id="use117-60" xlink:href="#g0-112" transform="matrix(1.4072249,0,0,1.4072249,-102.84023,-73.015012)" height="64.361099" width="259.19299" y="93.703796" x="85.427002"/>
  <use id="use119-1" xlink:href="#g3-106" transform="matrix(1.4072249,0,0,1.4072249,-102.84023,-73.015012)" height="64.361099" width="259.19299" y="95.5037" x="91.324203"/>
  <use id="use121-51" xlink:href="#g2-0" transform="matrix(1.4072249,0,0,1.4072249,-102.84023,-73.015012)" height="64.361099" width="259.19299" y="93.703796" x="98.389397"/>
  <use id="use123-4" xlink:href="#g0-112" transform="matrix(1.4072249,0,0,1.4072249,-102.84023,-73.015012)" height="64.361099" width="259.19299" y="93.703796" x="110.389"/>
  <use id="use125-95" xlink:href="#g3-107" transform="matrix(1.4072249,0,0,1.4072249,-102.84023,-73.015012)" height="64.361099" width="259.19299" y="95.5037" x="116.287"/>
  <use id="use127-0" xlink:href="#g2-56" transform="matrix(1.4072249,0,0,1.4072249,-89.597662,-73.015012)" height="64.361099" width="259.19299" y="93.703796" x="133.175"/>
  <use id="use129-88" xlink:href="#g0-106" transform="matrix(1.4072249,0,0,1.4072249,-89.597662,-73.015012)" height="64.361099" width="259.19299" y="93.703796" x="139.842"/>
  <use id="use131-34" xlink:href="#g0-59" transform="matrix(1.4072249,0,0,1.4072249,-89.597662,-73.015012)" height="64.361099" width="259.19299" y="93.703796" x="144.72501"/>
  <use id="use133-5" xlink:href="#g0-107" transform="matrix(1.4072249,0,0,1.4072249,-89.597662,-73.015012)" height="64.361099" width="259.19299" y="93.703796" x="149.989"/>
  <use id="use135-88" xlink:href="#g0-80" transform="matrix(1.4072249,0,0,1.4072249,-102.84023,-73.015012)" height="64.361099" width="259.19299" y="108.204" x="39"/>
  <use id="use137-03" xlink:href="#g6-48" transform="matrix(1.4072249,0,0,1.4072249,-102.84023,-73.015012)" height="64.361099" width="259.19299" y="103.249" x="48.205502"/>
  <use id="use139-73" xlink:href="#g3-107" transform="matrix(1.4072249,0,0,1.4072249,-102.84023,-73.015012)" height="64.361099" width="259.19299" y="111.17" x="46.573601"/>
  <use id="use141-9" xlink:href="#g2-21" transform="matrix(1.4072249,0,0,1.4072249,-102.84023,-73.015012)" height="64.361099" width="259.19299" y="108.204" x="55.045799"/>
  <use id="use143-7" xlink:href="#g4-48" transform="matrix(1.4072249,0,0,1.4072249,-102.84023,-73.015012)" height="64.361099" width="259.19299" y="108.204" x="67.712402"/>
  <use id="use145-82" xlink:href="#g2-56" transform="matrix(1.4072249,0,0,1.4072249,-22.060573,-73.015012)" height="64.361099" width="259.19299" y="108.204" x="85.337303"/>
  <use id="use147-1" xlink:href="#g0-107" transform="matrix(1.4072249,0,0,1.4072249,-22.060573,-73.015012)" height="64.361099" width="259.19299" y="108.204" x="92.003899"/>
  <use id="use103-85" xlink:href="#g0-80" transform="matrix(1.4072249,0,0,1.4072249,-102.84023,-73.015012)" height="64.361099" width="259.19299" y="93.703796" x="39"/>
  <use id="use105-30" xlink:href="#g6-48" transform="matrix(1.4072249,0,0,1.4072249,-102.84023,-73.015012)" height="64.361099" width="259.19299" y="88.7491" x="48.205502"/>
  <use id="use107-3" xlink:href="#g3-107" transform="matrix(1.4072249,0,0,1.4072249,-102.84023,-73.015012)" height="64.361099" width="259.19299" y="96.670303" x="46.573601"/>
  <use id="use109-36" xlink:href="#g2-21" transform="matrix(1.4072249,0,0,1.4072249,-102.84023,-73.015012)" height="64.361099" width="259.19299" y="93.703796" x="55.045799"/>
  <use id="use111-3" xlink:href="#g0-120" transform="matrix(1.4072249,0,0,1.4072249,-102.84023,-73.015012)" height="64.361099" width="259.19299" y="93.703796" x="67.712402"/>
  <use id="use113-43" xlink:href="#g3-106" transform="matrix(1.4072249,0,0,1.4072249,-102.84023,-73.015012)" height="64.361099" width="259.19299" y="95.5037" x="74.389503"/>
  <use id="use115-6" xlink:href="#g3-107" transform="matrix(1.4072249,0,0,1.4072249,-102.84023,-73.015012)" height="64.361099" width="259.19299" y="95.5037" x="78.288101"/>
  <use id="use117-02" xlink:href="#g0-112" transform="matrix(1.4072249,0,0,1.4072249,-102.84023,-73.015012)" height="64.361099" width="259.19299" y="93.703796" x="85.427002"/>
  <use id="use119-10" xlink:href="#g3-106" transform="matrix(1.4072249,0,0,1.4072249,-102.84023,-73.015012)" height="64.361099" width="259.19299" y="95.5037" x="91.324203"/>
  <use id="use121-306" xlink:href="#g2-0" transform="matrix(1.4072249,0,0,1.4072249,-102.84023,-73.015012)" height="64.361099" width="259.19299" y="93.703796" x="98.389397"/>
  <use id="use123-97" xlink:href="#g0-112" transform="matrix(1.4072249,0,0,1.4072249,-102.84023,-73.015012)" height="64.361099" width="259.19299" y="93.703796" x="110.389"/>
  <use id="use125-67" xlink:href="#g3-107" transform="matrix(1.4072249,0,0,1.4072249,-102.84023,-73.015012)" height="64.361099" width="259.19299" y="95.5037" x="116.287"/>
  <use id="use127-90" xlink:href="#g2-56" transform="matrix(1.4072249,0,0,1.4072249,-89.597662,-73.015012)" height="64.361099" width="259.19299" y="93.703796" x="133.175"/>
  <use id="use129-64" xlink:href="#g0-106" transform="matrix(1.4072249,0,0,1.4072249,-89.597662,-73.015012)" height="64.361099" width="259.19299" y="93.703796" x="139.842"/>
  <use id="use131-1" xlink:href="#g0-59" transform="matrix(1.4072249,0,0,1.4072249,-89.597662,-73.015012)" height="64.361099" width="259.19299" y="93.703796" x="144.72501"/>
  <use id="use133-62" xlink:href="#g0-107" transform="matrix(1.4072249,0,0,1.4072249,-89.597662,-73.015012)" height="64.361099" width="259.19299" y="93.703796" x="149.989"/>
  <use id="use135-37" xlink:href="#g0-80" transform="matrix(1.4072249,0,0,1.4072249,-102.84023,-73.015012)" height="64.361099" width="259.19299" y="108.204" x="39"/>
  <use id="use137-2" xlink:href="#g6-48" transform="matrix(1.4072249,0,0,1.4072249,-102.84023,-73.015012)" height="64.361099" width="259.19299" y="103.249" x="48.205502"/>
  <use id="use139-1" xlink:href="#g3-107" transform="matrix(1.4072249,0,0,1.4072249,-102.84023,-73.015012)" height="64.361099" width="259.19299" y="111.17" x="46.573601"/>
  <use id="use141-2" xlink:href="#g2-21" transform="matrix(1.4072249,0,0,1.4072249,-102.84023,-73.015012)" height="64.361099" width="259.19299" y="108.204" x="55.045799"/>
  <use id="use143-24" xlink:href="#g4-48" transform="matrix(1.4072249,0,0,1.4072249,-102.84023,-73.015012)" height="64.361099" width="259.19299" y="108.204" x="67.712402"/>
  <use id="use145-6" xlink:href="#g2-56" transform="matrix(1.4072249,0,0,1.4072249,-22.060573,-73.015012)" height="64.361099" width="259.19299" y="108.204" x="85.337303"/>
  <use id="use147-09" xlink:href="#g0-107" transform="matrix(1.4072249,0,0,1.4072249,-22.060573,-73.015012)" height="64.361099" width="259.19299" y="108.204" x="92.003899"/>
  <use id="use103-2" xlink:href="#g0-80" transform="matrix(1.4072249,0,0,1.4072249,-102.84023,-73.015012)" height="64.361099" width="259.19299" y="93.703796" x="39"/>
  <use id="use105-35" xlink:href="#g6-48" transform="matrix(1.4072249,0,0,1.4072249,-102.84023,-73.015012)" height="64.361099" width="259.19299" y="88.7491" x="48.205502"/>
  <use id="use107-38" xlink:href="#g3-107" transform="matrix(1.4072249,0,0,1.4072249,-102.84023,-73.015012)" height="64.361099" width="259.19299" y="96.670303" x="46.573601"/>
  <use id="use109-85" xlink:href="#g2-21" transform="matrix(1.4072249,0,0,1.4072249,-102.84023,-73.015012)" height="64.361099" width="259.19299" y="93.703796" x="55.045799"/>
  <use id="use111-30" xlink:href="#g0-120" transform="matrix(1.4072249,0,0,1.4072249,-102.84023,-73.015012)" height="64.361099" width="259.19299" y="93.703796" x="67.712402"/>
  <use id="use113-3" xlink:href="#g3-106" transform="matrix(1.4072249,0,0,1.4072249,-102.84023,-73.015012)" height="64.361099" width="259.19299" y="95.5037" x="74.389503"/>
  <use id="use115-2" xlink:href="#g3-107" transform="matrix(1.4072249,0,0,1.4072249,-102.84023,-73.015012)" height="64.361099" width="259.19299" y="95.5037" x="78.288101"/>
  <use id="use117-9" xlink:href="#g0-112" transform="matrix(1.4072249,0,0,1.4072249,-102.84023,-73.015012)" height="64.361099" width="259.19299" y="93.703796" x="85.427002"/>
  <use id="use119-0" xlink:href="#g3-106" transform="matrix(1.4072249,0,0,1.4072249,-102.84023,-73.015012)" height="64.361099" width="259.19299" y="95.5037" x="91.324203"/>
  <use id="use121-18" xlink:href="#g2-0" transform="matrix(1.4072249,0,0,1.4072249,-102.84023,-73.015012)" height="64.361099" width="259.19299" y="93.703796" x="98.389397"/>
  <use id="use123-2" xlink:href="#g0-112" transform="matrix(1.4072249,0,0,1.4072249,-102.84023,-73.015012)" height="64.361099" width="259.19299" y="93.703796" x="110.389"/>
  <use id="use125-8" xlink:href="#g3-107" transform="matrix(1.4072249,0,0,1.4072249,-102.84023,-73.015012)" height="64.361099" width="259.19299" y="95.5037" x="116.287"/>
  <use id="use127-43" xlink:href="#g2-56" transform="matrix(1.4072249,0,0,1.4072249,-89.597662,-73.015012)" height="64.361099" width="259.19299" y="93.703796" x="133.175"/>
  <use id="use129-47" xlink:href="#g0-106" transform="matrix(1.4072249,0,0,1.4072249,-89.597662,-73.015012)" height="64.361099" width="259.19299" y="93.703796" x="139.842"/>
  <use id="use131-83" xlink:href="#g0-59" transform="matrix(1.4072249,0,0,1.4072249,-89.597662,-73.015012)" height="64.361099" width="259.19299" y="93.703796" x="144.72501"/>
  <use id="use133-1" xlink:href="#g0-107" transform="matrix(1.4072249,0,0,1.4072249,-89.597662,-73.015012)" height="64.361099" width="259.19299" y="93.703796" x="149.989"/>
  <use id="use135-9" xlink:href="#g0-80" transform="matrix(1.4072249,0,0,1.4072249,-102.84023,-73.015012)" height="64.361099" width="259.19299" y="108.204" x="39"/>
  <use id="use137-5" xlink:href="#g6-48" transform="matrix(1.4072249,0,0,1.4072249,-102.84023,-73.015012)" height="64.361099" width="259.19299" y="103.249" x="48.205502"/>
  <use id="use139-4" xlink:href="#g3-107" transform="matrix(1.4072249,0,0,1.4072249,-102.84023,-73.015012)" height="64.361099" width="259.19299" y="111.17" x="46.573601"/>
  <use id="use141-31" xlink:href="#g2-21" transform="matrix(1.4072249,0,0,1.4072249,-102.84023,-73.015012)" height="64.361099" width="259.19299" y="108.204" x="55.045799"/>
  <use id="use143-4" xlink:href="#g4-48" transform="matrix(1.4072249,0,0,1.4072249,-102.84023,-73.015012)" height="64.361099" width="259.19299" y="108.204" x="67.712402"/>
  <use id="use145-240" xlink:href="#g2-56" transform="matrix(1.4072249,0,0,1.4072249,-22.060573,-73.015012)" height="64.361099" width="259.19299" y="108.204" x="85.337303"/>
  <use id="use147-9" xlink:href="#g0-107" transform="matrix(1.4072249,0,0,1.4072249,-22.060573,-73.015012)" height="64.361099" width="259.19299" y="108.204" x="92.003899"/>
  <use id="use103-98" xlink:href="#g0-80" transform="matrix(1.4072249,0,0,1.4072249,-102.84023,-73.015012)" height="64.361099" width="259.19299" y="93.703796" x="39"/>
  <use id="use105-06" xlink:href="#g6-48" transform="matrix(1.4072249,0,0,1.4072249,-102.84023,-73.015012)" height="64.361099" width="259.19299" y="88.7491" x="48.205502"/>
  <use id="use107-10" xlink:href="#g3-107" transform="matrix(1.4072249,0,0,1.4072249,-102.84023,-73.015012)" height="64.361099" width="259.19299" y="96.670303" x="46.573601"/>
  <use id="use109-05" xlink:href="#g2-21" transform="matrix(1.4072249,0,0,1.4072249,-102.84023,-73.015012)" height="64.361099" width="259.19299" y="93.703796" x="55.045799"/>
  <use id="use111-2" xlink:href="#g0-120" transform="matrix(1.4072249,0,0,1.4072249,-102.84023,-73.015012)" height="64.361099" width="259.19299" y="93.703796" x="67.712402"/>
  <use id="use113-08" xlink:href="#g3-106" transform="matrix(1.4072249,0,0,1.4072249,-102.84023,-73.015012)" height="64.361099" width="259.19299" y="95.5037" x="74.389503"/>
  <use id="use115-0" xlink:href="#g3-107" transform="matrix(1.4072249,0,0,1.4072249,-102.84023,-73.015012)" height="64.361099" width="259.19299" y="95.5037" x="78.288101"/>
  <use id="use117-2" xlink:href="#g0-112" transform="matrix(1.4072249,0,0,1.4072249,-102.84023,-73.015012)" height="64.361099" width="259.19299" y="93.703796" x="85.427002"/>
  <use id="use119-6" xlink:href="#g3-106" transform="matrix(1.4072249,0,0,1.4072249,-102.84023,-73.015012)" height="64.361099" width="259.19299" y="95.5037" x="91.324203"/>
  <use id="use121-57" xlink:href="#g2-0" transform="matrix(1.4072249,0,0,1.4072249,-102.84023,-73.015012)" height="64.361099" width="259.19299" y="93.703796" x="98.389397"/>
  <use id="use123-24" xlink:href="#g0-112" transform="matrix(1.4072249,0,0,1.4072249,-102.84023,-73.015012)" height="64.361099" width="259.19299" y="93.703796" x="110.389"/>
  <use id="use125-5" xlink:href="#g3-107" transform="matrix(1.4072249,0,0,1.4072249,-102.84023,-73.015012)" height="64.361099" width="259.19299" y="95.5037" x="116.287"/>
  <use id="use127-5" xlink:href="#g2-56" transform="matrix(1.4072249,0,0,1.4072249,-89.597662,-73.015012)" height="64.361099" width="259.19299" y="93.703796" x="133.175"/>
  <use id="use129-5" xlink:href="#g0-106" transform="matrix(1.4072249,0,0,1.4072249,-89.597662,-73.015012)" height="64.361099" width="259.19299" y="93.703796" x="139.842"/>
  <use id="use131-5" xlink:href="#g0-59" transform="matrix(1.4072249,0,0,1.4072249,-89.597662,-73.015012)" height="64.361099" width="259.19299" y="93.703796" x="144.72501"/>
  <use id="use133-31" xlink:href="#g0-107" transform="matrix(1.4072249,0,0,1.4072249,-89.597662,-73.015012)" height="64.361099" width="259.19299" y="93.703796" x="149.989"/>
  <use id="use135-0" xlink:href="#g0-80" transform="matrix(1.4072249,0,0,1.4072249,-102.84023,-73.015012)" height="64.361099" width="259.19299" y="108.204" x="39"/>
  <use id="use137-68" xlink:href="#g6-48" transform="matrix(1.4072249,0,0,1.4072249,-102.84023,-73.015012)" height="64.361099" width="259.19299" y="103.249" x="48.205502"/>
  <use id="use139-5" xlink:href="#g3-107" transform="matrix(1.4072249,0,0,1.4072249,-102.84023,-73.015012)" height="64.361099" width="259.19299" y="111.17" x="46.573601"/>
  <use id="use141-20" xlink:href="#g2-21" transform="matrix(1.4072249,0,0,1.4072249,-102.84023,-73.015012)" height="64.361099" width="259.19299" y="108.204" x="55.045799"/>
  <use id="use143-61" xlink:href="#g4-48" transform="matrix(1.4072249,0,0,1.4072249,-102.84023,-73.015012)" height="64.361099" width="259.19299" y="108.204" x="67.712402"/>
  <use id="use145-86" xlink:href="#g2-56" transform="matrix(1.4072249,0,0,1.4072249,-22.060573,-73.015012)" height="64.361099" width="259.19299" y="108.204" x="85.337303"/>
  <use id="use147-81" xlink:href="#g0-107" transform="matrix(1.4072249,0,0,1.4072249,-22.060573,-73.015012)" height="64.361099" width="259.19299" y="108.204" x="92.003899"/>
  <use id="use103-90" xlink:href="#g0-80" transform="matrix(1.4072249,0,0,1.4072249,-102.84023,-73.015012)" height="64.361099" width="259.19299" y="93.703796" x="39"/>
  <use id="use105-8" xlink:href="#g6-48" transform="matrix(1.4072249,0,0,1.4072249,-102.84023,-73.015012)" height="64.361099" width="259.19299" y="88.7491" x="48.205502"/>
  <use id="use107-106" xlink:href="#g3-107" transform="matrix(1.4072249,0,0,1.4072249,-102.84023,-73.015012)" height="64.361099" width="259.19299" y="96.670303" x="46.573601"/>
  <use id="use109-34" xlink:href="#g2-21" transform="matrix(1.4072249,0,0,1.4072249,-102.84023,-73.015012)" height="64.361099" width="259.19299" y="93.703796" x="55.045799"/>
  <use id="use111-58" xlink:href="#g0-120" transform="matrix(1.4072249,0,0,1.4072249,-102.84023,-73.015012)" height="64.361099" width="259.19299" y="93.703796" x="67.712402"/>
  <use id="use113-1" xlink:href="#g3-106" transform="matrix(1.4072249,0,0,1.4072249,-102.84023,-73.015012)" height="64.361099" width="259.19299" y="95.5037" x="74.389503"/>
  <use id="use115-7" xlink:href="#g3-107" transform="matrix(1.4072249,0,0,1.4072249,-102.84023,-73.015012)" height="64.361099" width="259.19299" y="95.5037" x="78.288101"/>
  <use id="use117-48" xlink:href="#g0-112" transform="matrix(1.4072249,0,0,1.4072249,-102.84023,-73.015012)" height="64.361099" width="259.19299" y="93.703796" x="85.427002"/>
  <use id="use119-5" xlink:href="#g3-106" transform="matrix(1.4072249,0,0,1.4072249,-102.84023,-73.015012)" height="64.361099" width="259.19299" y="95.5037" x="91.324203"/>
  <use id="use121-2" xlink:href="#g2-0" transform="matrix(1.4072249,0,0,1.4072249,-102.84023,-73.015012)" height="64.361099" width="259.19299" y="93.703796" x="98.389397"/>
  <use id="use123-5" xlink:href="#g0-112" transform="matrix(1.4072249,0,0,1.4072249,-102.84023,-73.015012)" height="64.361099" width="259.19299" y="93.703796" x="110.389"/>
  <use id="use125-83" xlink:href="#g3-107" transform="matrix(1.4072249,0,0,1.4072249,-102.84023,-73.015012)" height="64.361099" width="259.19299" y="95.5037" x="116.287"/>
  <use id="use127-6" xlink:href="#g2-56" transform="matrix(1.4072249,0,0,1.4072249,-89.597662,-73.015012)" height="64.361099" width="259.19299" y="93.703796" x="133.175"/>
  <use id="use129-63" xlink:href="#g0-106" transform="matrix(1.4072249,0,0,1.4072249,-89.597662,-73.015012)" height="64.361099" width="259.19299" y="93.703796" x="139.842"/>
  <use id="use131-39" xlink:href="#g0-59" transform="matrix(1.4072249,0,0,1.4072249,-89.597662,-73.015012)" height="64.361099" width="259.19299" y="93.703796" x="144.72501"/>
  <use id="use133-39" xlink:href="#g0-107" transform="matrix(1.4072249,0,0,1.4072249,-89.597662,-73.015012)" height="64.361099" width="259.19299" y="93.703796" x="149.989"/>
  <use id="use135-23" xlink:href="#g0-80" transform="matrix(1.4072249,0,0,1.4072249,-102.84023,-73.015012)" height="64.361099" width="259.19299" y="108.204" x="39"/>
  <use id="use137-8" xlink:href="#g6-48" transform="matrix(1.4072249,0,0,1.4072249,-102.84023,-73.015012)" height="64.361099" width="259.19299" y="103.249" x="48.205502"/>
  <use id="use139-2" xlink:href="#g3-107" transform="matrix(1.4072249,0,0,1.4072249,-102.84023,-73.015012)" height="64.361099" width="259.19299" y="111.17" x="46.573601"/>
  <use id="use141-4" xlink:href="#g2-21" transform="matrix(1.4072249,0,0,1.4072249,-102.84023,-73.015012)" height="64.361099" width="259.19299" y="108.204" x="55.045799"/>
  <use id="use143-72" xlink:href="#g4-48" transform="matrix(1.4072249,0,0,1.4072249,-102.84023,-73.015012)" height="64.361099" width="259.19299" y="108.204" x="67.712402"/>
  <use id="use145-28" xlink:href="#g2-56" transform="matrix(1.4072249,0,0,1.4072249,-22.060573,-73.015012)" height="64.361099" width="259.19299" y="108.204" x="85.337303"/>
  <use id="use147-41" xlink:href="#g0-107" transform="matrix(1.4072249,0,0,1.4072249,-22.060573,-73.015012)" height="64.361099" width="259.19299" y="108.204" x="92.003899"/>
  <use id="use103-1" xlink:href="#g0-80" transform="matrix(1.4072249,0,0,1.4072249,-102.84023,-73.015012)" height="64.361099" width="259.19299" y="93.703796" x="39"/>
  <use id="use105-062" xlink:href="#g6-48" transform="matrix(1.4072249,0,0,1.4072249,-102.84023,-73.015012)" height="64.361099" width="259.19299" y="88.7491" x="48.205502"/>
  <use id="use107-13" xlink:href="#g3-107" transform="matrix(1.4072249,0,0,1.4072249,-102.84023,-73.015012)" height="64.361099" width="259.19299" y="96.670303" x="46.573601"/>
  <use id="use109-800" xlink:href="#g2-21" transform="matrix(1.4072249,0,0,1.4072249,-102.84023,-73.015012)" height="64.361099" width="259.19299" y="93.703796" x="55.045799"/>
  <use id="use111-07" xlink:href="#g0-120" transform="matrix(1.4072249,0,0,1.4072249,-102.84023,-73.015012)" height="64.361099" width="259.19299" y="93.703796" x="67.712402"/>
  <use id="use113-06" xlink:href="#g3-106" transform="matrix(1.4072249,0,0,1.4072249,-102.84023,-73.015012)" height="64.361099" width="259.19299" y="95.5037" x="74.389503"/>
  <use id="use115-37" xlink:href="#g3-107" transform="matrix(1.4072249,0,0,1.4072249,-102.84023,-73.015012)" height="64.361099" width="259.19299" y="95.5037" x="78.288101"/>
  <use id="use117-98" xlink:href="#g0-112" transform="matrix(1.4072249,0,0,1.4072249,-102.84023,-73.015012)" height="64.361099" width="259.19299" y="93.703796" x="85.427002"/>
  <use id="use119-85" xlink:href="#g3-106" transform="matrix(1.4072249,0,0,1.4072249,-102.84023,-73.015012)" height="64.361099" width="259.19299" y="95.5037" x="91.324203"/>
  <use id="use121-8" xlink:href="#g2-0" transform="matrix(1.4072249,0,0,1.4072249,-102.84023,-73.015012)" height="64.361099" width="259.19299" y="93.703796" x="98.389397"/>
  <use id="use123-08" xlink:href="#g0-112" transform="matrix(1.4072249,0,0,1.4072249,-102.84023,-73.015012)" height="64.361099" width="259.19299" y="93.703796" x="110.389"/>
  <use id="use125-65" xlink:href="#g3-107" transform="matrix(1.4072249,0,0,1.4072249,-102.84023,-73.015012)" height="64.361099" width="259.19299" y="95.5037" x="116.287"/>
  <use id="use127-55" xlink:href="#g2-56" transform="matrix(1.4072249,0,0,1.4072249,-89.597662,-73.015012)" height="64.361099" width="259.19299" y="93.703796" x="133.175"/>
  <use id="use129-99" xlink:href="#g0-106" transform="matrix(1.4072249,0,0,1.4072249,-89.597662,-73.015012)" height="64.361099" width="259.19299" y="93.703796" x="139.842"/>
  <use id="use131-340" xlink:href="#g0-59" transform="matrix(1.4072249,0,0,1.4072249,-89.597662,-73.015012)" height="64.361099" width="259.19299" y="93.703796" x="144.72501"/>
  <use id="use133-64" xlink:href="#g0-107" transform="matrix(1.4072249,0,0,1.4072249,-89.597662,-73.015012)" height="64.361099" width="259.19299" y="93.703796" x="149.989"/>
  <use id="use135-6" xlink:href="#g0-80" transform="matrix(1.4072249,0,0,1.4072249,-102.84023,-73.015012)" height="64.361099" width="259.19299" y="108.204" x="39"/>
  <use id="use137-08" xlink:href="#g6-48" transform="matrix(1.4072249,0,0,1.4072249,-102.84023,-73.015012)" height="64.361099" width="259.19299" y="103.249" x="48.205502"/>
  <use id="use139-29" xlink:href="#g3-107" transform="matrix(1.4072249,0,0,1.4072249,-102.84023,-73.015012)" height="64.361099" width="259.19299" y="111.17" x="46.573601"/>
  <use id="use141-0" xlink:href="#g2-21" transform="matrix(1.4072249,0,0,1.4072249,-102.84023,-73.015012)" height="64.361099" width="259.19299" y="108.204" x="55.045799"/>
  <use id="use143-49" xlink:href="#g4-48" transform="matrix(1.4072249,0,0,1.4072249,-102.84023,-73.015012)" height="64.361099" width="259.19299" y="108.204" x="67.712402"/>
  <use id="use145-7" xlink:href="#g2-56" transform="matrix(1.4072249,0,0,1.4072249,-22.060573,-73.015012)" height="64.361099" width="259.19299" y="108.204" x="85.337303"/>
  <use id="use147-5" xlink:href="#g0-107" transform="matrix(1.4072249,0,0,1.4072249,-22.060573,-73.015012)" height="64.361099" width="259.19299" y="108.204" x="92.003899"/>
  <path id="use103-7" d="m191,308.1h2.837c2.33,0,4.661-1.722,4.661-3.648,0-1.317-1.115-2.516-3.242-2.516h-5.218c-0.3208,0-0.4728,0-0.4728,0.3208,0,0.1689,0.152,0.1689,0.4053,0.1689,1.03,0,1.03,0.1351,1.03,0.3208,0,0.0338,0,0.1351-0.0675,0.3884l-2.28,9.085c-0.152,0.591-0.1858,0.7599-1.368,0.7599-0.3208,0-0.4897,0-0.4897,0.304,0,0.1858,0.152,0.1858,0.2533,0.1858,0.3208,0,0.6586-0.0338,0.9794-0.0338h1.976c0.3208,0,0.6755,0.0338,0.9963,0.0338,0.1351,0,0.3208,0,0.3208-0.3208,0-0.1689-0.152-0.1689-0.4053-0.1689-1.013,0-1.03-0.1182-1.03-0.2871,0-0.0844,0.0169-0.2026,0.0338-0.2871l1.081-4.306zm1.216-5.015c0.152-0.6248,0.2195-0.6586,0.8781-0.6586h1.672c1.266,0,2.313,0.4053,2.313,1.672,0,0.439-0.2195,1.874-0.9963,2.651-0.2871,0.304-1.098,0.9457-2.634,0.9457h-2.381l1.148-4.61z"/>
  <path id="use105-32" d="m202,301.1c0.0563-0.1464,0.1013-0.2252,0.1013-0.3377,0-0.3715-0.3377-0.6192-0.653-0.6192-0.4503,0-0.5742,0.394-0.6192,0.5516l-1.43,4.852c-0.045,0.1351-0.045,0.1689-0.045,0.1801,0,0.1013,0.0675,0.1238,0.1801,0.1576,0.2026,0.0901,0.2252,0.0901,0.2477,0.0901,0.0338,0,0.1013,0,0.1801-0.1914l2.038-4.683z"/>
  <path id="use107-71" d="m200,310.1c0.0112-0.0225,0.045-0.1689,0.045-0.1801,0-0.0563-0.045-0.1576-0.1801-0.1576-0.045,0-0.394,0.0338-0.653,0.0563l-0.6304,0.045c-0.2477,0.0225-0.3602,0.0338-0.3602,0.2364,0,0.1576,0.1576,0.1576,0.2927,0.1576,0.5404,0,0.5404,0.0675,0.5404,0.1689,0,0.0338,0,0.0563-0.0563,0.2589l-1.599,6.406c-0.045,0.1689-0.045,0.2364-0.045,0.2477,0,0.1914,0.1576,0.349,0.3715,0.349,0.3828,0,0.4728-0.3602,0.5179-0.5179,0.1126-0.4728,0.4053-1.666,0.5291-2.139,0.6192,0.0675,1.373,0.2814,1.373,0.9231,0,0.0563,0,0.1126-0.0225,0.2252-0.0338,0.1464-0.0563,0.304-0.0563,0.3602,0,0.6642,0.4953,1.148,1.148,1.148,0.4728,0,0.7655-0.349,0.9119-0.5629,0.2702-0.4165,0.4503-1.092,0.4503-1.16,0-0.1126-0.0901-0.1464-0.1689-0.1464-0.1351,0-0.1576,0.0675-0.2026,0.2702-0.1464,0.5291-0.439,1.283-0.9682,1.283-0.2927,0-0.3602-0.2477-0.3602-0.5516,0-0.1464,0.0113-0.2814,0.0676-0.5404,0.0112-0.045,0.0563-0.2252,0.0563-0.349,0-0.9231-1.16-1.126-1.734-1.205,0.4165-0.2477,0.7993-0.6304,0.9344-0.7768,0.6192-0.6079,1.126-1.024,1.666-1.024,0.1464,0,0.2814,0.0338,0.3715,0.1464-0.6079,0.0788-0.6079,0.6079-0.6079,0.6192,0,0.2477,0.1914,0.4165,0.439,0.4165,0.304,0,0.6417-0.2477,0.6417-0.7092,0-0.3828-0.2702-0.788-0.8331-0.788-0.653,0-1.238,0.4954-1.88,1.137-0.653,0.6417-0.9344,0.7655-1.115,0.8443l1.115-4.492z"/>
  <path id="use109-2" d="m220,308c0.2364-0.1013,0.3377-0.2195,0.3377-0.3715,0-0.1689-0.0675-0.2702-0.3377-0.3884l-9.305-4.391c-0.2364-0.1182-0.304-0.1182-0.3377-0.1182-0.2026,0-0.3377,0.152-0.3377,0.3377,0,0.2026,0.1351,0.2871,0.3208,0.3715l8.866,4.171-8.832,4.171c-0.3377,0.152-0.3546,0.2871-0.3546,0.3884,0,0.1858,0.152,0.3377,0.3377,0.3377,0.0507,0,0.0844,0,0.304-0.1182l9.338-4.391zm-0.2533,7.785c0.2871,0,0.591,0,0.591-0.3377s-0.3546-0.3377-0.6079-0.3377h-9.102c-0.2533,0-0.6079,0-0.6079,0.3377s0.304,0.3377,0.591,0.3377h9.136z"/>
  <path id="use111-4" d="m234.4,306.5c-0.5404,0.1013-0.743,0.5066-0.743,0.8274,0,0.4053,0.3208,0.5404,0.5573,0.5404,0.5066,0,0.8612-0.4391,0.8612-0.895,0-0.7092-0.8106-1.03-1.52-1.03-1.03,0-1.604,1.013-1.756,1.334-0.3884-1.266-1.435-1.334-1.739-1.334-1.722,0-2.634,2.212-2.634,2.584,0,0.0675,0.0676,0.152,0.1858,0.152,0.1351,0,0.1689-0.1013,0.2026-0.1689,0.5742-1.874,1.706-2.229,2.195-2.229,0.7599,0,0.9119,0.7092,0.9119,1.115,0,0.3715-0.1013,0.7599-0.304,1.57l-0.5741,2.313c-0.2533,1.013-0.743,1.942-1.638,1.942-0.0844,0-0.5066,0-0.8612-0.2195,0.6079-0.1182,0.743-0.6248,0.743-0.8274,0-0.3377-0.2533-0.5404-0.5742-0.5404-0.4053,0-0.8443,0.3546-0.8443,0.895,0,0.7092,0.7937,1.03,1.52,1.03,0.8106,0,1.385-0.6417,1.739-1.334,0.2702,0.9963,1.115,1.334,1.739,1.334,1.722,0,2.634-2.212,2.634-2.584,0-0.0844-0.0676-0.152-0.1689-0.152-0.152,0-0.1689,0.0844-0.2195,0.2195-0.4559,1.486-1.435,2.178-2.195,2.178-0.591,0-0.9119-0.4391-0.9119-1.131,0-0.3715,0.0676-0.6417,0.3377-1.756l0.591-2.297c0.2533-1.013,0.8274-1.756,1.604-1.756,0.0338,0,0.5066,0,0.8612,0.2195z"/>
  <path id="use113-12" d="m240.5,308.9c0-0.2139-0.1689-0.4278-0.439-0.4278-0.3377,0-0.6304,0.3152-0.6304,0.6079,0,0.2139,0.1689,0.4278,0.4391,0.4278,0.3377,0,0.6304-0.3152,0.6304-0.6079zm-2.353,7.588c-0.1689,0.6867-0.7205,1.418-1.407,1.418-0.1801,0-0.349-0.045-0.3715-0.0563,0.349-0.1689,0.394-0.4728,0.394-0.5742,0-0.2702-0.2026-0.4165-0.439-0.4165-0.3265,0-0.6304,0.2814-0.6304,0.653,0,0.4278,0.4165,0.7092,1.058,0.7092,0.6867,0,1.925-0.4278,2.263-1.779l1.013-4.03c0.0338-0.1351,0.0563-0.2252,0.0563-0.394,0-0.6192-0.4953-1.058-1.148-1.058-1.193,0-1.891,1.576-1.891,1.722,0,0.1013,0.0788,0.1464,0.1689,0.1464,0.1238,0,0.1351-0.0338,0.2139-0.2026,0.3377-0.7768,0.9119-1.351,1.475-1.351,0.2364,0,0.3715,0.1576,0.3715,0.5291,0,0.1576-0.0338,0.3152-0.0676,0.4728l-1.058,4.21z"/>
  <path id="use115-29" d="m244.6,308.5c0.0113-0.0225,0.045-0.1689,0.045-0.1801,0-0.0563-0.045-0.1576-0.1801-0.1576-0.045,0-0.394,0.0338-0.653,0.0563l-0.6304,0.045c-0.2477,0.0225-0.3602,0.0338-0.3602,0.2364,0,0.1576,0.1576,0.1576,0.2927,0.1576,0.5404,0,0.5404,0.0675,0.5404,0.1689,0,0.0338,0,0.0563-0.0563,0.2589l-1.599,6.406c-0.045,0.1689-0.045,0.2364-0.045,0.2477,0,0.1914,0.1576,0.349,0.3715,0.349,0.3828,0,0.4728-0.3602,0.5178-0.5179,0.1126-0.4728,0.4053-1.666,0.5291-2.139,0.6192,0.0675,1.373,0.2814,1.373,0.9231,0,0.0563,0,0.1126-0.0225,0.2252-0.0338,0.1464-0.0563,0.304-0.0563,0.3602,0,0.6642,0.4954,1.148,1.148,1.148,0.4728,0,0.7655-0.349,0.9119-0.5629,0.2702-0.4165,0.4503-1.092,0.4503-1.16,0-0.1126-0.0901-0.1464-0.1689-0.1464-0.1351,0-0.1576,0.0675-0.2026,0.2702-0.1464,0.5291-0.4391,1.283-0.9682,1.283-0.2927,0-0.3602-0.2477-0.3602-0.5516,0-0.1464,0.0113-0.2814,0.0675-0.5404,0.0113-0.045,0.0563-0.2252,0.0563-0.349,0-0.9231-1.16-1.126-1.734-1.205,0.4165-0.2477,0.7993-0.6304,0.9344-0.7768,0.6192-0.6079,1.126-1.024,1.666-1.024,0.1464,0,0.2814,0.0338,0.3715,0.1464-0.6079,0.0788-0.6079,0.6079-0.6079,0.6192,0,0.2477,0.1914,0.4165,0.4391,0.4165,0.304,0,0.6417-0.2477,0.6417-0.7092,0-0.3828-0.2702-0.788-0.8331-0.788-0.653,0-1.238,0.4953-1.88,1.137-0.653,0.6417-0.9344,0.7655-1.115,0.8443l1.115-4.492z"/>
  <path id="use117-99" d="m252.1,315.6c-0.1182,0.5066-0.1858,0.6417-0.8781,0.6417-0.2026,0-0.3715,0-0.3715,0.3208,0,0.0338,0.0169,0.1689,0.2026,0.1689,0.2195,0,0.4559-0.0338,0.6755-0.0338h0.7261c0.3546,0,1.216,0.0338,1.57,0.0338,0.1013,0,0.304,0,0.304-0.304,0-0.1858-0.1182-0.1858-0.4053-0.1858-0.7768,0-0.8274-0.1182-0.8274-0.2533,0-0.2026,0.7599-3.107,0.8612-3.496,0.1858,0.4728,0.6417,1.131,1.52,1.131,1.908,0,3.968-2.482,3.968-4.965,0-1.554-0.8781-2.651-2.145-2.651-1.081,0-1.993,1.047-2.178,1.283-0.1351-0.8443-0.7937-1.283-1.469-1.283-0.4897,0-0.8781,0.2364-1.199,0.8781-0.304,0.6079-0.5404,1.638-0.5404,1.706,0,0.0675,0.0675,0.152,0.1858,0.152,0.1351,0,0.152-0.0169,0.2533-0.4053,0.2533-0.9963,0.5742-1.993,1.25-1.993,0.3884,0,0.5235,0.2702,0.5235,0.7768,0,0.4053-0.0507,0.5742-0.1182,0.8781l-1.908,7.599zm2.921-7.413c0.1182-0.4728,0.591-0.9626,0.8612-1.199,0.1858-0.1689,0.743-0.6417,1.385-0.6417,0.743,0,1.081,0.743,1.081,1.621,0,0.8106-0.4728,2.719-0.895,3.597-0.4222,0.9119-1.199,1.722-1.976,1.722-1.148,0-1.334-1.452-1.334-1.52,0-0.0507,0.0338-0.1858,0.0507-0.2702l0.8274-3.31z"/>
  <path id="use119-4" d="m264.3,308.9c0-0.2139-0.1689-0.4278-0.439-0.4278-0.3377,0-0.6304,0.3152-0.6304,0.6079,0,0.2139,0.1689,0.4278,0.4391,0.4278,0.3377,0,0.6304-0.3152,0.6304-0.6079zm-2.353,7.588c-0.1689,0.6867-0.7205,1.418-1.407,1.418-0.1801,0-0.349-0.045-0.3715-0.0563,0.349-0.1689,0.394-0.4728,0.394-0.5742,0-0.2702-0.2026-0.4165-0.439-0.4165-0.3265,0-0.6304,0.2814-0.6304,0.653,0,0.4278,0.4165,0.7092,1.058,0.7092,0.6867,0,1.925-0.4278,2.263-1.779l1.013-4.03c0.0338-0.1351,0.0563-0.2252,0.0563-0.394,0-0.6192-0.4954-1.058-1.148-1.058-1.193,0-1.891,1.576-1.891,1.722,0,0.1013,0.0788,0.1464,0.1689,0.1464,0.1238,0,0.1351-0.0338,0.2139-0.2026,0.3377-0.7768,0.9119-1.351,1.475-1.351,0.2364,0,0.3715,0.1576,0.3715,0.5291,0,0.1576-0.0338,0.3152-0.0675,0.4728l-1.058,4.21z"/>
  <path id="use121-99" d="m280.7,309.6c0.2871,0,0.591,0,0.591-0.3377s-0.304-0.3377-0.591-0.3377h-9.136c-0.2871,0-0.591,0-0.591,0.3377s0.304,0.3377,0.591,0.3377h9.136z"/>
  <path id="use123-93" d="m287.2,315.6c-0.1182,0.5066-0.1858,0.6417-0.8781,0.6417-0.2026,0-0.3715,0-0.3715,0.3208,0,0.0338,0.0169,0.1689,0.2026,0.1689,0.2195,0,0.4559-0.0338,0.6755-0.0338h0.7261c0.3546,0,1.216,0.0338,1.57,0.0338,0.1013,0,0.304,0,0.304-0.304,0-0.1858-0.1182-0.1858-0.4053-0.1858-0.7768,0-0.8274-0.1182-0.8274-0.2533,0-0.2026,0.7599-3.107,0.8612-3.496,0.1858,0.4728,0.6417,1.131,1.52,1.131,1.908,0,3.968-2.482,3.968-4.965,0-1.554-0.8781-2.651-2.145-2.651-1.081,0-1.993,1.047-2.178,1.283-0.1351-0.8443-0.7937-1.283-1.469-1.283-0.4897,0-0.8781,0.2364-1.199,0.8781-0.304,0.6079-0.5404,1.638-0.5404,1.706,0,0.0675,0.0675,0.152,0.1858,0.152,0.1351,0,0.152-0.0169,0.2533-0.4053,0.2533-0.9963,0.5742-1.993,1.25-1.993,0.3884,0,0.5235,0.2702,0.5235,0.7768,0,0.4053-0.0507,0.5742-0.1182,0.8781l-1.908,7.599zm2.921-7.413c0.1182-0.4728,0.591-0.9626,0.8612-1.199,0.1858-0.1689,0.743-0.6417,1.385-0.6417,0.743,0,1.081,0.743,1.081,1.621,0,0.8106-0.4728,2.719-0.895,3.597-0.4222,0.9119-1.199,1.722-1.976,1.722-1.148,0-1.334-1.452-1.334-1.52,0-0.0507,0.0338-0.1858,0.0507-0.2702l0.8274-3.31z"/>
  <path id="use125-96" d="m298.1,308.5c0.0113-0.0225,0.045-0.1689,0.045-0.1801,0-0.0563-0.045-0.1576-0.1801-0.1576-0.045,0-0.394,0.0338-0.653,0.0563l-0.6304,0.045c-0.2477,0.0225-0.3602,0.0338-0.3602,0.2364,0,0.1576,0.1576,0.1576,0.2927,0.1576,0.5404,0,0.5404,0.0675,0.5404,0.1689,0,0.0338,0,0.0563-0.0563,0.2589l-1.599,6.406c-0.045,0.1689-0.045,0.2364-0.045,0.2477,0,0.1914,0.1576,0.349,0.3715,0.349,0.3828,0,0.4728-0.3602,0.5179-0.5179,0.1126-0.4728,0.4053-1.666,0.5291-2.139,0.6192,0.0675,1.373,0.2814,1.373,0.9231,0,0.0563,0,0.1126-0.0225,0.2252-0.0338,0.1464-0.0563,0.304-0.0563,0.3602,0,0.6642,0.4953,1.148,1.148,1.148,0.4728,0,0.7655-0.349,0.9119-0.5629,0.2702-0.4165,0.4503-1.092,0.4503-1.16,0-0.1126-0.0901-0.1464-0.1689-0.1464-0.1351,0-0.1576,0.0675-0.2026,0.2702-0.1464,0.5291-0.439,1.283-0.9682,1.283-0.2927,0-0.3602-0.2477-0.3602-0.5516,0-0.1464,0.0113-0.2814,0.0675-0.5404,0.0113-0.045,0.0563-0.2252,0.0563-0.349,0-0.9231-1.16-1.126-1.734-1.205,0.4165-0.2477,0.7993-0.6304,0.9344-0.7768,0.6192-0.6079,1.126-1.024,1.666-1.024,0.1464,0,0.2814,0.0338,0.3715,0.1464-0.6079,0.0788-0.6079,0.6079-0.6079,0.6192,0,0.2477,0.1914,0.4165,0.439,0.4165,0.304,0,0.6417-0.2477,0.6417-0.7092,0-0.3828-0.2702-0.788-0.8331-0.788-0.653,0-1.238,0.4953-1.88,1.137-0.653,0.6417-0.9344,0.7655-1.115,0.8443l1.115-4.492z"/>
  <path id="use127-98" d="m341.1,302.4c0.0844-0.1858,0.0844-0.2195,0.0844-0.304,0-0.1689-0.1351-0.3377-0.3377-0.3377-0.2195,0-0.3208,0.2026-0.3884,0.3884l-1.402,3.715h-5.134l-1.402-3.715c-0.0844-0.2364-0.1689-0.3884-0.3884-0.3884-0.1689,0-0.3377,0.1689-0.3377,0.3377,0,0.0338,0,0.0676,0.1013,0.304l4.205,11.06c0.0844,0.2364,0.1689,0.3884,0.3884,0.3884,0.2364,0,0.304-0.1858,0.3715-0.3546l4.239-11.09zm-6.907,4.137h4.593l-2.297,6.012-2.297-6.012z"/>
  <path id="use129-89" d="m347.1,308.1c0.0676-0.2702,0.0676-0.5066,0.0676-0.5741,0-0.9794-0.7261-1.52-1.486-1.52-1.706,0-2.617,2.465-2.617,2.584,0,0.0844,0.0675,0.152,0.1689,0.152,0.1351,0,0.152-0.0675,0.2364-0.2364,0.6755-1.638,1.52-2.161,2.162-2.161,0.3546,0,0.5404,0.1858,0.5404,0.7768,0,0.4053-0.0507,0.5742-0.1182,0.8781l-1.604,6.366c-0.3208,1.25-1.115,2.195-2.043,2.195-0.0676,0-0.4222,0-0.743-0.1689,0.4053-0.0844,0.7261-0.4053,0.7261-0.8106,0-0.2702-0.2026-0.5404-0.5742-0.5404-0.439,0-0.8443,0.3715-0.8443,0.8781,0,0.6924,0.743,0.9794,1.435,0.9794,1.165,0,2.702-0.8612,3.124-2.55l1.57-6.248zm0.6924-5.184c0-0.4222-0.3546-0.5573-0.5573-0.5573-0.4559,0-0.8443,0.4391-0.8443,0.8106,0,0.2533,0.2026,0.5573,0.5742,0.5573,0.3884,0,0.8274-0.3715,0.8274-0.8106z"/>
  <path id="use131-27" d="m351.3,313.5c0-0.9794-0.3208-1.706-1.013-1.706-0.5404,0-0.8106,0.439-0.8106,0.8106,0,0.3715,0.2533,0.8274,0.8274,0.8274,0.2195,0,0.4053-0.0675,0.5573-0.2195,0.0338-0.0338,0.0507-0.0338,0.0675-0.0338,0.0338,0,0.0338,0.2364,0.0338,0.3208,0,0.5573-0.1013,1.655-1.081,2.753-0.1858,0.2026-0.1858,0.2364-0.1858,0.2702,0,0.0844,0.0844,0.1689,0.1689,0.1689,0.1351,0,1.435-1.25,1.435-3.192z"/>
  <path id="use133-96" d="m360.2,302.1c0.0169-0.0676,0.0506-0.1689,0.0506-0.2533,0-0.1689-0.1689-0.1689-0.2026-0.1689-0.0169,0-0.6248,0.0507-0.9288,0.0844-0.2871,0.0169-0.5404,0.0507-0.8443,0.0675-0.4053,0.0338-0.5235,0.0507-0.5235,0.3546,0,0.1689,0.1689,0.1689,0.3377,0.1689,0.8612,0,0.8612,0.152,0.8612,0.3208,0,0.0676,0,0.1013-0.0844,0.4053l-2.415,9.659c-0.0676,0.2533-0.0676,0.2871-0.0676,0.3884,0,0.3715,0.2871,0.439,0.4559,0.439,0.4728,0,0.5742-0.3715,0.7092-0.895l0.7937-3.158c1.216,0.1351,1.942,0.6417,1.942,1.452,0,0.1013,0,0.1689-0.0506,0.4222-0.0675,0.2533-0.0675,0.4559-0.0675,0.5404,0,0.9794,0.6417,1.638,1.503,1.638,0.7768,0,1.182-0.7092,1.317-0.9457,0.3546-0.6248,0.5742-1.57,0.5742-1.638,0-0.0844-0.0675-0.152-0.1689-0.152-0.152,0-0.1689,0.0675-0.2364,0.3377-0.2364,0.8781-0.591,2.06-1.452,2.06-0.3377,0-0.5573-0.1689-0.5573-0.8106,0-0.3208,0.0675-0.6924,0.1351-0.9457,0.0675-0.304,0.0675-0.3208,0.0675-0.5235,0-0.9963-0.895-1.554-2.449-1.756,0.6079-0.3715,1.216-1.03,1.452-1.283,0.9625-1.081,1.621-1.621,2.398-1.621,0.3884,0,0.4897,0.1013,0.6079,0.2026-0.6248,0.0675-0.8612,0.5066-0.8612,0.8443,0,0.4053,0.3208,0.5404,0.5573,0.5404,0.4559,0,0.8612-0.3884,0.8612-0.9288,0-0.4897-0.3884-0.9963-1.148-0.9963-0.9288,0-1.689,0.6586-2.888,2.01-0.1689,0.2026-0.7937,0.8443-1.418,1.081l1.739-6.94z"/>
  <path id="use135-99" d="m191,328.5h2.837c2.33,0,4.661-1.722,4.661-3.648,0-1.317-1.115-2.516-3.242-2.516h-5.218c-0.3208,0-0.4728,0-0.4728,0.3208,0,0.1689,0.152,0.1689,0.4053,0.1689,1.03,0,1.03,0.1351,1.03,0.3208,0,0.0338,0,0.1351-0.0675,0.3884l-2.28,9.085c-0.152,0.591-0.1858,0.7599-1.368,0.7599-0.3208,0-0.4897,0-0.4897,0.304,0,0.1858,0.152,0.1858,0.2533,0.1858,0.3208,0,0.6586-0.0338,0.9794-0.0338h1.976c0.3208,0,0.6755,0.0338,0.9963,0.0338,0.1351,0,0.3208,0,0.3208-0.3208,0-0.1689-0.152-0.1689-0.4053-0.1689-1.013,0-1.03-0.1182-1.03-0.2871,0-0.0844,0.0169-0.2026,0.0338-0.2871l1.081-4.306zm1.216-5.015c0.152-0.6248,0.2195-0.6586,0.8781-0.6586h1.672c1.266,0,2.313,0.4053,2.313,1.672,0,0.439-0.2195,1.874-0.9963,2.651-0.2871,0.304-1.098,0.9457-2.634,0.9457h-2.381l1.148-4.61z"/>
  <path id="use137-1" d="m202,321.5c0.0563-0.1464,0.1013-0.2252,0.1013-0.3377,0-0.3715-0.3377-0.6192-0.653-0.6192-0.4503,0-0.5742,0.394-0.6192,0.5516l-1.43,4.852c-0.045,0.1351-0.045,0.1689-0.045,0.1801,0,0.1013,0.0675,0.1238,0.1801,0.1576,0.2026,0.0901,0.2252,0.0901,0.2477,0.0901,0.0338,0,0.1013,0,0.1801-0.1914l2.038-4.683z"/>
  <path id="use139-6" d="m200,330.5c0.0112-0.0225,0.045-0.1689,0.045-0.1801,0-0.0563-0.045-0.1576-0.1801-0.1576-0.045,0-0.394,0.0338-0.653,0.0563l-0.6304,0.045c-0.2477,0.0225-0.3602,0.0338-0.3602,0.2364,0,0.1576,0.1576,0.1576,0.2927,0.1576,0.5404,0,0.5404,0.0675,0.5404,0.1689,0,0.0338,0,0.0563-0.0563,0.2589l-1.599,6.406c-0.045,0.1689-0.045,0.2364-0.045,0.2477,0,0.1914,0.1576,0.349,0.3715,0.349,0.3828,0,0.4728-0.3602,0.5179-0.5179,0.1126-0.4728,0.4053-1.666,0.5291-2.139,0.6192,0.0676,1.373,0.2814,1.373,0.9231,0,0.0563,0,0.1126-0.0225,0.2252-0.0338,0.1464-0.0563,0.304-0.0563,0.3602,0,0.6642,0.4953,1.148,1.148,1.148,0.4728,0,0.7655-0.349,0.9119-0.5629,0.2702-0.4165,0.4503-1.092,0.4503-1.16,0-0.1126-0.0901-0.1464-0.1689-0.1464-0.1351,0-0.1576,0.0675-0.2026,0.2702-0.1464,0.5291-0.439,1.283-0.9682,1.283-0.2927,0-0.3602-0.2477-0.3602-0.5516,0-0.1464,0.0113-0.2814,0.0676-0.5404,0.0112-0.045,0.0563-0.2252,0.0563-0.349,0-0.9231-1.16-1.126-1.734-1.205,0.4165-0.2477,0.7993-0.6304,0.9344-0.7768,0.6192-0.6079,1.126-1.024,1.666-1.024,0.1464,0,0.2814,0.0338,0.3715,0.1464-0.6079,0.0788-0.6079,0.6079-0.6079,0.6192,0,0.2477,0.1914,0.4165,0.439,0.4165,0.304,0,0.6417-0.2477,0.6417-0.7092,0-0.3828-0.2702-0.788-0.8331-0.788-0.653,0-1.238,0.4953-1.88,1.137-0.653,0.6417-0.9344,0.7655-1.115,0.8443l1.115-4.492z"/>
  <path id="use141-25" d="m220,328.4c0.2364-0.1013,0.3377-0.2195,0.3377-0.3715,0-0.1689-0.0675-0.2702-0.3377-0.3884l-9.305-4.391c-0.2364-0.1182-0.304-0.1182-0.3377-0.1182-0.2026,0-0.3377,0.152-0.3377,0.3377,0,0.2026,0.1351,0.2871,0.3208,0.3715l8.866,4.171-8.832,4.171c-0.3377,0.152-0.3546,0.2871-0.3546,0.3884,0,0.1858,0.152,0.3377,0.3377,0.3377,0.0507,0,0.0844,0,0.304-0.1182l9.338-4.391zm-0.2533,7.785c0.2871,0,0.591,0,0.591-0.3377s-0.3546-0.3377-0.6079-0.3377h-9.102c-0.2533,0-0.6079,0-0.6079,0.3377s0.304,0.3377,0.591,0.3377h9.136z"/>
  <path id="use143-5" d="m234,328.4c0-1.402-0.0844-2.769-0.6924-4.053-0.6924-1.402-1.908-1.773-2.736-1.773-0.9794,0-2.178,0.4897-2.803,1.891-0.4728,1.064-0.6417,2.111-0.6417,3.935,0,1.638,0.1182,2.871,0.7261,4.07,0.6586,1.283,1.824,1.689,2.702,1.689,1.469,0,2.313-0.8781,2.803-1.858,0.6079-1.266,0.6417-2.921,0.6417-3.901zm-3.445,5.421c-0.5404,0-1.638-0.304-1.959-2.145-0.1858-1.013-0.1858-2.297-0.1858-3.479,0-1.385,0-2.634,0.2702-3.631,0.2871-1.131,1.148-1.655,1.874-1.655,0.6417,0,1.621,0.3884,1.942,1.841,0.2195,0.9625,0.2195,2.297,0.2195,3.445,0,1.131,0,2.415-0.1858,3.445-0.3208,1.858-1.385,2.178-1.976,2.178z"/>
  <path id="use145-5" d="m341.3,322.8c0.0844-0.1858,0.0844-0.2195,0.0844-0.304,0-0.1689-0.1351-0.3377-0.3377-0.3377-0.2195,0-0.3208,0.2026-0.3884,0.3884l-1.402,3.715h-5.134l-1.402-3.715c-0.0844-0.2364-0.1689-0.3884-0.3884-0.3884-0.1689,0-0.3377,0.1689-0.3377,0.3377,0,0.0338,0,0.0675,0.1013,0.304l4.205,11.06c0.0844,0.2364,0.1689,0.3884,0.3884,0.3884,0.2364,0,0.304-0.1858,0.3715-0.3546l4.239-11.09zm-6.907,4.137h4.593l-2.297,6.012-2.297-6.012z"/>
  <path id="use147-7" d="m346.1,322.5c0.0169-0.0676,0.0507-0.1689,0.0507-0.2533,0-0.1689-0.1689-0.1689-0.2026-0.1689-0.0169,0-0.6248,0.0507-0.9288,0.0844-0.2871,0.0169-0.5404,0.0507-0.8443,0.0675-0.4053,0.0338-0.5235,0.0507-0.5235,0.3546,0,0.1689,0.1689,0.1689,0.3377,0.1689,0.8612,0,0.8612,0.152,0.8612,0.3208,0,0.0675,0,0.1013-0.0844,0.4053l-2.415,9.659c-0.0675,0.2533-0.0675,0.2871-0.0675,0.3884,0,0.3715,0.2871,0.439,0.4559,0.439,0.4728,0,0.5741-0.3715,0.7092-0.895l0.7937-3.158c1.216,0.1351,1.942,0.6417,1.942,1.452,0,0.1013,0,0.1689-0.0507,0.4222-0.0675,0.2533-0.0675,0.4559-0.0675,0.5404,0,0.9794,0.6417,1.638,1.503,1.638,0.7768,0,1.182-0.7092,1.317-0.9456,0.3546-0.6248,0.5742-1.57,0.5742-1.638,0-0.0844-0.0676-0.152-0.1689-0.152-0.152,0-0.1689,0.0676-0.2364,0.3377-0.2364,0.8781-0.591,2.06-1.452,2.06-0.3377,0-0.5573-0.1689-0.5573-0.8106,0-0.3208,0.0676-0.6924,0.1351-0.9457,0.0675-0.304,0.0675-0.3208,0.0675-0.5235,0-0.9963-0.895-1.554-2.449-1.756,0.6079-0.3715,1.216-1.03,1.452-1.283,0.9625-1.081,1.621-1.621,2.398-1.621,0.3884,0,0.4897,0.1013,0.6079,0.2026-0.6248,0.0676-0.8612,0.5066-0.8612,0.8443,0,0.4053,0.3208,0.5404,0.5573,0.5404,0.4559,0,0.8612-0.3884,0.8612-0.9288,0-0.4897-0.3884-0.9963-1.148-0.9963-0.9288,0-1.689,0.6586-2.888,2.01-0.1689,0.2026-0.7937,0.8443-1.418,1.081l1.739-6.94z"/>
 </g>
</svg>
