<?xml version="1.0" encoding="UTF-8" standalone="no"?>
<!-- Created with Inkscape (http://www.inkscape.org/) -->

<svg
   xmlns:dc="http://purl.org/dc/elements/1.1/"
   xmlns:cc="http://creativecommons.org/ns#"
   xmlns:rdf="http://www.w3.org/1999/02/22-rdf-syntax-ns#"
   xmlns:svg="http://www.w3.org/2000/svg"
   xmlns="http://www.w3.org/2000/svg"
   xmlns:sodipodi="http://sodipodi.sourceforge.net/DTD/sodipodi-0.dtd"
   xmlns:inkscape="http://www.inkscape.org/namespaces/inkscape"
   id="svg2"
   viewBox="0 0 292.02875 69.339627"
   height="100%"
   width="100%"
   version="1.1"
   inkscape:version="0.48.4 r9939"
   sodipodi:docname="p12.svg">
  <sodipodi:namedview
     pagecolor="#ffffff"
     bordercolor="#666666"
     borderopacity="1"
     objecttolerance="10"
     gridtolerance="10"
     guidetolerance="10"
     inkscape:pageopacity="0"
     inkscape:pageshadow="2"
     inkscape:window-width="640"
     inkscape:window-height="480"
     id="namedview5640"
     showgrid="false"
     inkscape:zoom="1.1848149"
     inkscape:cx="146.01437"
     inkscape:cy="34.669813"
     inkscape:window-x="153"
     inkscape:window-y="164"
     inkscape:window-maximized="0"
     inkscape:current-layer="svg2" />
  <defs
     id="defs4" />
  <metadata
     id="metadata7">
    <rdf:RDF>
      <cc:Work
         rdf:about="">
        <dc:format>image/svg+xml</dc:format>
        <dc:type
           rdf:resource="http://purl.org/dc/dcmitype/StillImage" />
        <dc:title />
      </cc:Work>
    </rdf:RDF>
  </metadata>
  <path
     inkscape:connector-curvature="0"
     id="path5647"
     style="font-size:40px;font-style:normal;font-variant:normal;font-weight:bold;font-stretch:condensed;line-height:125%;letter-spacing:0px;word-spacing:0px;fill:#000000;font-family:Folio Std"
     d="m 23.52,62.739628 4.12,0 -0.2,-8.08 0.12,-5.2 c 0.04,-3.439997 -2.080004,-5.4 -6.2,-5.4 -1.719998,0.519999 -3.600002,1.520001 -5.28,3 l -0.24,0 c -0.799999,-1.919998 -2.760003,-3 -5.76,-3 -1.6399984,0.479999 -3.3200016,1.440001 -4.92,2.84 l -0.28,0 0.04,-2.68 -3.88,0.36 0.2,10.44 -0.24000003,7.72 4.04000003,0 -0.2,-8.08 0.04,-4.88 c 1.5599984,-1.519999 3.2000016,-2.4 4.8,-2.4 1.919998,0 2.88,1.240002 2.84,3.24 l -0.28,12.12 4.08,0 -0.16,-8.08 0.08,-4.96 c 1.559998,-1.479999 3.120002,-2.32 4.72,-2.32 1.919998,0 2.88,1.240002 2.84,3.24 l -0.28,12.12" />
  <path
     inkscape:connector-curvature="0"
     id="path5649"
     style="font-size:40px;font-style:normal;font-variant:normal;font-weight:bold;font-stretch:condensed;line-height:125%;letter-spacing:0px;word-spacing:0px;fill:#000000;font-family:Folio Std"
     d="m 39.593125,43.939628 c -2.439998,0 -4.920002,0.840001 -7.2,2.4 l 0.52,2.84 0.32,0.2 c 2.159998,-1.759998 3.920002,-2.56 5.72,-2.56 1.839998,0 2.88,1.000002 2.88,3 l -0.04,2.16 -6.32,1.4 c -2.479998,0.559999 -3.88,1.920002 -3.88,4.44 0,3.199997 2.200004,5.2 5.92,5.24 1.519998,-0.6 2.880001,-1.640002 4.16,-3 l 0.28,0 c 0.2,1.719998 1.280002,2.8 2.92,2.96 0.919999,-0.12 1.800001,-0.440001 2.52,-0.88 l 0.4,-2.24 -0.36,-0.28 c -0.599999,0.12 -0.92,0.16 -1.2,0.16 -0.839999,0 -1.16,-0.320001 -1.16,-1.36 0,-1.359999 0.48,-8.080002 0.48,-9.48 0,-3.159997 -2.320004,-5 -5.96,-5 m 2.2,10.4 -0.12,3.08 c -1.319999,1.519998 -2.600001,2.44 -4,2.44 -1.479999,0 -2.44,-0.920002 -2.44,-2.56 0,-1.079999 0.400001,-1.52 1.36,-1.72 l 5.2,-1.24" />
  <path
     inkscape:connector-curvature="0"
     id="path5651"
     style="font-size:40px;font-style:normal;font-variant:normal;font-weight:bold;font-stretch:condensed;line-height:125%;letter-spacing:0px;word-spacing:0px;fill:#000000;font-family:Folio Std"
     d="m 54.86125,46.139628 -0.8,-1.96 -4.32,0.24 5.64,9 -5.64,9.32 3.64,0 0.84,-1.68 3.4,-5.36 3.4,5.16 0.88,2.08 4.28,-0.36 -5.88,-9.24 5.52,-9.04 -3.64,0 -0.96,1.76 -3.08,5.04 -3.28,-4.96" />
  <path
     inkscape:connector-curvature="0"
     id="path5653"
     style="font-size:40px;font-style:normal;font-variant:normal;font-weight:bold;font-stretch:condensed;line-height:125%;letter-spacing:0px;word-spacing:0px;fill:#000000;font-family:Folio Std"
     d="m 78.19375,37.579628 -1.44,-1.32 -0.4,0 c -4.599995,3.399996 -6.48,8.120008 -6.52,16.28 0.04,7.879992 1.920005,12.440003 6.52,15.8 l 0.4,0 1.44,-1.28 0,-0.36 c -3.599996,-2.999997 -5.04,-7.080007 -5.08,-14.2 0.04,-7.359993 1.480004,-11.560003 5.08,-14.56 l 0,-0.36" />
  <path
     inkscape:connector-curvature="0"
     id="path5655"
     style="font-size:40px;font-style:normal;font-variant:normal;font-weight:bold;font-stretch:condensed;line-height:125%;letter-spacing:0px;word-spacing:0px;fill:#000000;font-family:Folio Std"
     d="m 89.194375,42.419628 c -5.759994,0 -9.08,3.880007 -9.08,10.64 0,6.359993 3.120005,10 8.56,10 5.759994,0 9,-3.840007 9,-10.56 0,-6.439994 -3.080005,-10.08 -8.48,-10.08 m -0.32,3.76 c 3.679996,0 5.64,2.240004 5.64,6.8 0,4.319996 -1.920004,6.48 -5.6,6.48 -3.759996,0 -5.6,-2.240005 -5.6,-6.68 0,-4.439996 1.840004,-6.6 5.56,-6.6" />
  <path
     inkscape:connector-curvature="0"
     id="path5657"
     style="font-size:40px;font-style:normal;font-variant:normal;font-weight:bold;font-stretch:condensed;line-height:125%;letter-spacing:0px;word-spacing:0px;fill:#000000;font-family:Folio Std"
     d="m 104.77,58.499628 c -1.08,0.28 -2.04,0.76 -2.92,1.32 l 0,0.36 c 0.84,0.599999 1.24,1.280001 1.24,2.12 0,1.279999 -0.72,2.480001 -2.2,3.68 l 0.04,0.32 1.32,1.2 c 2.84,-2.039998 4.24,-4.000002 4.24,-6 0,-1.199999 -0.6,-2.200001 -1.72,-3" />
  <path
     inkscape:connector-curvature="0"
     id="path5659"
     style="font-size:40px;font-style:normal;font-variant:normal;font-weight:bold;font-stretch:condensed;line-height:125%;letter-spacing:0px;word-spacing:0px;fill:#000000;font-family:Folio Std"
     d="m 123.77562,42.939628 -0.6,-0.44 -8.6,2.52 0,3.24 0.36,0.24 4.88,-1.36 0.04,7.76 -0.24,7.84 4.12,0 -0.2,-8.28 0.24,-11.52" />
  <path
     inkscape:connector-curvature="0"
     id="path5661"
     style="font-size:40px;font-style:normal;font-variant:normal;font-weight:bold;font-stretch:condensed;line-height:125%;letter-spacing:0px;word-spacing:0px;fill:#000000;font-family:Folio Std"
     d="m 138.23812,39.019628 c -4.31999,0 -7.32,2.360004 -7.32,6.32 0,2.999997 1.80001,4.560001 3.64,5.52 l 0,0.2 c -2.31999,1.119999 -4.52,2.800003 -4.52,5.96 0,3.519996 2.64001,6.04 7.32,6.04 4.88,0 8.12,-2.600004 8.12,-6.76 0,-3.319997 -2.28,-4.720001 -4.4,-5.76 l 0,-0.2 c 1.96,-1.239999 3.68,-2.840003 3.68,-5.64 0,-3.519997 -2.44,-5.68 -6.52,-5.68 m -0.2,2.88 c 2.16,0 3.52,1.200002 3.52,3.2 0,2.239998 -1.6,3.320001 -3.4,4.16 -2.03999,-0.799999 -3.88,-1.760002 -3.88,-4.04 0,-2.039998 1.40001,-3.32 3.76,-3.32 m -0.6,10.36 c 2.36,0.959999 4.64,1.840002 4.64,4.32 0,2.079998 -1.6,3.64 -4.36,3.64 -2.63999,0 -4.24,-1.480002 -4.24,-3.68 0,-2.479998 1.88001,-3.520001 3.96,-4.28" />
  <path
     inkscape:connector-curvature="0"
     id="path5663"
     style="font-size:40px;font-style:normal;font-variant:normal;font-weight:bold;font-stretch:condensed;line-height:125%;letter-spacing:0px;word-spacing:0px;fill:#000000;font-family:Folio Std"
     d="m 172.68,51.379628 -0.28,-0.32 -19.6,0 -0.24,2.52 0.28,0.32 19.64,0 0.2,-2.52" />
  <path
     inkscape:connector-curvature="0"
     id="path5665"
     style="font-size:40px;font-style:normal;font-variant:normal;font-weight:bold;font-stretch:condensed;line-height:125%;letter-spacing:0px;word-spacing:0px;fill:#000000;font-family:Folio Std"
     d="m 188.65125,48.579628 c -1.8,0 -3.36,0.560001 -4.72,1.48 l -0.28,-0.32 c 1.28,-3.799996 4.60001,-6.400002 10.68,-8.56 l 0,-0.4 -3.04,-1.84 -0.24,0 c -7.43999,3.079997 -11.72,8.600007 -11.72,15.32 0,5.519994 2.60001,8.84 7.72,8.84 5.19999,0 8.08,-3.400004 8.08,-7.68 0,-3.959996 -2.36,-6.84 -6.48,-6.84 m -1.32,11.76 c -3.08,0 -4.32,-2.080004 -4.32,-6.16 l 0.04,-0.96 c 1.4,-1.079999 2.88,-1.72 4.44,-1.72 2.56,0 4,1.600003 4,4.48 0,2.839997 -1.6,4.36 -4.16,4.36" />
  <path
     inkscape:connector-curvature="0"
     id="path5667"
     style="font-size:40px;font-style:normal;font-variant:normal;font-weight:bold;font-stretch:condensed;line-height:125%;letter-spacing:0px;word-spacing:0px;fill:#000000;font-family:Folio Std"
     d="m 196.87562,67.059628 1.44,1.28 0.4,0 c 4.6,-3.359997 6.48001,-8.080008 6.52,-16.24 -0.04,-7.879992 -1.92,-12.440004 -6.52,-15.84 l -0.4,0 -1.44,1.32 0,0.36 c 3.6,2.999997 5.04001,7.080007 5.08,14.2 -0.04,7.359992 -1.48,11.560003 -5.08,14.56 l 0,0.36" />
  <path
     inkscape:connector-curvature="0"
     id="path5669"
     style="font-size:40px;font-style:normal;font-variant:normal;font-weight:bold;font-stretch:condensed;line-height:125%;letter-spacing:0px;word-spacing:0px;fill:#000000;font-family:Folio Std"
     d="m 232.8025,47.619628 -0.28,-0.28 -16.48,0 -0.2,2.48 0.28,0.28 16.48,0 0.2,-2.48 m 0,7 -0.28,-0.28 -16.48,0 -0.2,2.52 0.28,0.28 16.48,0 0.2,-2.52" />
  <path
     inkscape:connector-curvature="0"
     id="path5671"
     style="font-size:40px;font-style:normal;font-variant:normal;font-weight:500;font-stretch:normal;text-align:start;line-height:125%;letter-spacing:0px;word-spacing:0px;writing-mode:lr-tb;text-anchor:start;fill:#ff2a2a;font-family:Alegreya Sans"
     d="m 251.3475,44.019628 -0.28,-0.32 -2.52,0.24 0,6.88 -6.88,0 -0.2,2.52 0.28,0.28 6.8,0 0,6.8 0.32,0.28 2.48,-0.2 0,-6.88 6.88,0 0.2,-2.52 -0.28,-0.28 -6.8,0 0,-6.8" />
  <path
     inkscape:connector-curvature="0"
     id="path5673"
     style="font-size:40px;font-style:normal;font-variant:normal;font-weight:500;font-stretch:normal;text-align:start;line-height:125%;letter-spacing:0px;word-spacing:0px;writing-mode:lr-tb;text-anchor:start;fill:#ff2a2a;font-family:Alegreya Sans"
     d="m 269.16625,42.939628 -0.6,-0.44 -8.6,2.52 0,3.24 0.36,0.24 4.88,-1.36 0.04,7.76 -0.24,7.84 4.12,0 -0.2,-8.28 0.24,-11.52" />
  <path
     inkscape:connector-curvature="0"
     id="path5675"
     style="font-size:40px;font-style:normal;font-variant:normal;font-weight:500;font-stretch:normal;text-align:start;line-height:125%;letter-spacing:0px;word-spacing:0px;writing-mode:lr-tb;text-anchor:start;fill:#ff2a2a;font-family:Alegreya Sans"
     d="m 283.02875,42.499628 c -2.6,0 -5.16,1.120002 -7.4,2.88 l 0.68,3.16 0.44,0 c 1.6,-1.599999 3.56,-2.56 5.4,-2.56 1.76,0 2.72,0.920001 2.72,2.16 0,1.559998 -1.4,3.440003 -4,6.24 l -5.48,5.76 0,2.52 0.2,0.16 1.48,-0.08 9.04,0 4.4,0.2 0.52,-3.36 -0.28,-0.28 -3.48,0.32 -6.52,0 -0.08,-0.2 3.56,-4.04 c 3.2,-3.599997 4.64,-6.080002 4.64,-8.24 0,-2.839997 -2.48,-4.64 -5.84,-4.64" />
  <g
     id="flowRoot2993-4"
     style="letter-spacing:0px;word-spacing:0px;"
     font-weight="bold"
     transform="matrix(0,-1.5701266,-5.2300333,0,2814.8122,-375.35581)"
     font-size="40px"
     line-height="125%"
     font-stretch="condensed"
     font-variant="normal"
     font-style="normal"
     font-family="Folio Std"
     fill="#000">
    <path
       id="path3363"
       d="m-240,530c0-0.52-0.2-0.68-0.68-0.72-3.36-0.2-4.84-1.6-5.32-3.04-0.12-0.4-0.12-0.72-0.12-1.4v-9.48c-0.04-1.68-1.32-3.72-4.76-4.64,4.76-1.28,4.76-4.04,4.76-5.84v-8.4c0-0.88,0-2.04,1.56-3.2,0.44-0.28,1.6-1,3.68-1.12,0.56-0.04,0.88-0.04,0.88-0.72,0-0.72-0.36-0.72-1.24-0.72-5.68,0-9.28,2-9.32,5.08v8.24c0,2.48,0,3.32-1.32,4.48-0.92,0.84-2.32,1.4-3.96,1.48-0.56,0.04-0.88,0.04-0.88,0.72,0,0.52,0.2,0.68,0.68,0.72,3.6,0.2,5.04,2,5.4,3.44,0.08,0.32,0.08,0.4,0.08,1.88v8.4c0,5.12,6.64,5.56,9.32,5.56,0.88,0,1.24,0,1.24-0.72" />
  </g>
</svg>
