<?xml version="1.0" encoding="UTF-8" standalone="no"?>
<!-- Created with Inkscape (http://www.inkscape.org/) -->
<svg id="svg2" xmlns:rdf="http://www.w3.org/1999/02/22-rdf-syntax-ns#" xmlns="http://www.w3.org/2000/svg" viewBox="0 0 292.02875 69.339627" height="100%" width="100%" version="1.1" xmlns:cc="http://creativecommons.org/ns#" xmlns:dc="http://purl.org/dc/elements/1.1/">
 <defs id="defs4"></defs>
 <metadata id="metadata7">
  <rdf:RDF>
   <cc:Work rdf:about="">
    <dc:format>image/svg+xml</dc:format>
    <dc:type rdf:resource="http://purl.org/dc/dcmitype/StillImage"/>
    <dc:title/>
   </cc:Work>
  </rdf:RDF>
 </metadata>
 <path id="path5568" d="m23.52,62.74,4.12,0-0.2-8.08,0.12-5.2c0.04-3.44-2.08-5.4-6.2-5.4-1.72,0.52-3.6,1.52-5.28,3h-0.24c-0.8-1.92-2.76-3-5.76-3-1.64,0.48-3.32,1.44-4.92,2.84h-0.28l0.04-2.68-3.88,0.36,0.2,10.44-0.24,7.72h4.04l-0.2-8.08,0.04-4.88c1.56-1.52,3.2-2.4,4.8-2.4,1.92,0,2.88,1.24,2.84,3.24l-0.28,12.12h4.08l-0.16-8.08,0.08-4.96c1.56-1.48,3.12-2.32,4.72-2.32,1.92,0,2.88,1.24,2.84,3.24l-0.28,12.12" fill="#000"/>
 <path id="path5570" d="m39.59,43.94c-2.44,0-4.92,0.84-7.2,2.4l0.52,2.84,0.32,0.2c2.16-1.76,3.92-2.56,5.72-2.56,1.84,0,2.88,1,2.88,3l-0.04,2.16-6.32,1.4c-2.48,0.56-3.88,1.92-3.88,4.44,0,3.2,2.2,5.2,5.92,5.24,1.52-0.6,2.88-1.64,4.16-3h0.28c0.2,1.72,1.28,2.8,2.92,2.96,0.92-0.12,1.8-0.44,2.52-0.88l0.4-2.24-0.36-0.28c-0.6,0.12-0.92,0.16-1.2,0.16-0.84,0-1.16-0.32-1.16-1.36,0-1.36,0.48-8.08,0.48-9.48,0-3.16-2.32-5-5.96-5m2.2,10.4-0.12,3.08c-1.32,1.52-2.6,2.44-4,2.44-1.48,0-2.44-0.92-2.44-2.56,0-1.08,0.4-1.52,1.36-1.72l5.2-1.24" fill="#000"/>
 <path id="path5572" d="m54.86,46.14-0.8-1.96-4.32,0.24,5.64,9-5.64,9.32,3.64,0,0.84-1.68,3.4-5.36,3.4,5.16,0.88,2.08,4.28-0.36-5.88-9.24,5.52-9.04-3.64,0-0.96,1.76-3.08,5.04-3.28-4.96" fill="#000"/>
 <path id="path5574" d="m78.19,37.58-1.44-1.32-0.4,0c-4.6,3.4-6.48,8.12-6.52,16.28,0.04,7.88,1.92,12.44,6.52,15.8h0.4l1.44-1.28v-0.36c-3.6-3-5.04-7.08-5.08-14.2,0.04-7.36,1.48-11.56,5.08-14.56v-0.36" fill="#000"/>
 <path id="path5576" d="m89.19,42.42c-5.76,0-9.08,3.88-9.08,10.64,0,6.36,3.12,10,8.56,10,5.76,0,9-3.84,9-10.56,0-6.44-3.08-10.08-8.48-10.08m-0.32,3.76c3.68,0,5.64,2.24,5.64,6.8,0,4.32-1.92,6.48-5.6,6.48-3.76,0-5.6-2.24-5.6-6.68s1.84-6.6,5.56-6.6" fill="#000"/>
 <path id="path5578" d="m104.8,58.5c-1.08,0.28-2.04,0.76-2.92,1.32v0.36c0.84,0.6,1.24,1.28,1.24,2.12,0,1.28-0.72,2.48-2.2,3.68l0.04,0.32,1.32,1.2c2.84-2.04,4.24-4,4.24-6,0-1.2-0.6-2.2-1.72-3" fill="#000"/>
 <path id="path5580" d="m123.8,42.94-0.6-0.44-8.6,2.52,0,3.24,0.36,0.24,4.88-1.36,0.04,7.76-0.24,7.84,4.12,0-0.2-8.28,0.24-11.52" fill="#000"/>
 <path id="path5582" d="m133.2,42.7-3.96-0.16-0.28,3.48,0.24,0.4,3.32-0.36,7.68,0-8.92,19.16,0.24,0.68,3.28,0.88,1.96-5.24,7.28-15.92-0.04-3-1.8,0.08-9,0" fill="#000"/>
 <path id="path5584" d="m170.3,51.38-0.28-0.32-19.6,0-0.24,2.52,0.28,0.32,19.64,0,0.2-2.52" fill="#000"/>
 <path id="path5586" d="m184.7,42.5c-2.6,0-5.16,1.12-7.4,2.88l0.68,3.16h0.44c1.6-1.6,3.56-2.56,5.4-2.56,1.76,0,2.72,0.92,2.72,2.16,0,1.56-1.4,3.44-4,6.24l-5.48,5.76v2.52l0.2,0.16,1.48-0.08h9.04l4.4,0.2,0.52-3.36-0.28-0.28-3.48,0.32h-6.52l-0.08-0.2,3.56-4.04c3.2-3.6,4.64-6.08,4.64-8.24,0-2.84-2.48-4.64-5.84-4.64" fill="#000"/>
 <path id="path5588" d="m194.1,67.06,1.44,1.28,0.4,0c4.6-3.36,6.48-8.08,6.52-16.24-0.04-7.88-1.92-12.44-6.52-15.84h-0.4l-1.44,1.32v0.36c3.6,3,5.04,7.08,5.08,14.2-0.04,7.36-1.48,11.56-5.08,14.56v0.36" fill="#000"/>
 <path id="path5590" d="m230,47.62-0.28-0.28-16.48,0-0.2,2.48,0.28,0.28,16.48,0,0.2-2.48m0,7-0.28-0.28-16.48,0-0.2,2.52,0.28,0.28,16.48,0,0.2-2.52" fill="#000"/>
 <path id="path5592" d="m248.5,44.02-0.28-0.32-2.52,0.24,0,6.88-6.88,0-0.2,2.52,0.28,0.28,6.8,0,0,6.8,0.32,0.28,2.48-0.2,0-6.88,6.88,0,0.2-2.52-0.28-0.28-6.8,0,0-6.8" style="text-align:start;" fill="#ff2a2a"/>
 <path id="path5594" d="m266.4,42.94-0.6-0.44-8.6,2.52,0,3.24,0.36,0.24,4.88-1.36,0.04,7.76-0.24,7.84,4.12,0-0.2-8.28,0.24-11.52" style="text-align:start;" fill="#ff2a2a"/>
 <path id="path5596" d="m286.3,42.78-0.24-0.28-3.92,0.2-5.56,0-2.2-0.12-0.56,0.56-0.2,10.8,0.32,0.36,3.56,0.68c3.36,0.6,4.68,1.84,4.68,3.96,0,2.68-2.08,4.52-5.4,4.52-1.44,0-2.92-0.28-4.56-1l-0.32,0.32,0.28,3.44c1.28,0.24,2.72,0.44,4.04,0.44,5.76,0,9.8-3.4,9.8-8.36,0-3.16-1.68-5.28-6.72-6.32l-2.48-0.52,0.12-5.48h5.36l3.28,0.28,0.28-0.28,0.44-3.2" style="text-align:start;" fill="#ff2a2a"/>
 <g id="flowRoot2993-4" style="letter-spacing:0px;word-spacing:0px;" font-weight="bold" transform="matrix(0,-1.5701266,-6.4283384,0,3430.3699,-375.35581)" font-size="40px" line-height="125%" font-stretch="condensed" font-variant="normal" font-style="normal" font-family="Folio Std" fill="#000">
  <path id="path3363" d="m-240,530c0-0.52-0.2-0.68-0.68-0.72-3.36-0.2-4.84-1.6-5.32-3.04-0.12-0.4-0.12-0.72-0.12-1.4v-9.48c-0.04-1.68-1.32-3.72-4.76-4.64,4.76-1.28,4.76-4.04,4.76-5.84v-8.4c0-0.88,0-2.04,1.56-3.2,0.44-0.28,1.6-1,3.68-1.12,0.56-0.04,0.88-0.04,0.88-0.72,0-0.72-0.36-0.72-1.24-0.72-5.68,0-9.28,2-9.32,5.08v8.24c0,2.48,0,3.32-1.32,4.48-0.92,0.84-2.32,1.4-3.96,1.48-0.56,0.04-0.88,0.04-0.88,0.72,0,0.52,0.2,0.68,0.68,0.72,3.6,0.2,5.04,2,5.4,3.44,0.08,0.32,0.08,0.4,0.08,1.88v8.4c0,5.12,6.64,5.56,9.32,5.56,0.88,0,1.24,0,1.24-0.72"/>
 </g>
</svg>
