<?xml version="1.0" encoding="UTF-8" standalone="no"?>
<!-- Created with Inkscape (http://www.inkscape.org/) -->

<svg
   xmlns:dc="http://purl.org/dc/elements/1.1/"
   xmlns:cc="http://creativecommons.org/ns#"
   xmlns:rdf="http://www.w3.org/1999/02/22-rdf-syntax-ns#"
   xmlns:svg="http://www.w3.org/2000/svg"
   xmlns="http://www.w3.org/2000/svg"
   xmlns:sodipodi="http://sodipodi.sourceforge.net/DTD/sodipodi-0.dtd"
   xmlns:inkscape="http://www.inkscape.org/namespaces/inkscape"
   id="svg2"
   viewBox="0 0 9.7457149 7.7540551"
   version="1.1"
   inkscape:version="0.48.4 r9939"
   width="100%"
   height="100%"
   sodipodi:docname="pbrack.svg">
  <defs
     id="defs3069" />
  <sodipodi:namedview
     pagecolor="#ffffff"
     bordercolor="#666666"
     borderopacity="1"
     objecttolerance="10"
     gridtolerance="10"
     guidetolerance="10"
     inkscape:pageopacity="0"
     inkscape:pageshadow="2"
     inkscape:window-width="1579"
     inkscape:window-height="959"
     id="namedview3067"
     showgrid="false"
     fit-margin-left="0.2"
     fit-margin-bottom="0.2"
     fit-margin-right="0.2"
     fit-margin-top="0.2"
     inkscape:zoom="51.541555"
     inkscape:cx="9.932414"
     inkscape:cy="4.4777214"
     inkscape:window-x="0"
     inkscape:window-y="23"
     inkscape:window-maximized="0"
     inkscape:current-layer="svg2" />
  <metadata
     id="metadata7">
    <rdf:RDF>
      <cc:Work
         rdf:about="">
        <dc:format>image/svg+xml</dc:format>
        <dc:type
           rdf:resource="http://purl.org/dc/dcmitype/StillImage" />
        <dc:title />
      </cc:Work>
    </rdf:RDF>
  </metadata>
  <g
     id="layer1"
     font-size="40px"
     font-weight="bold"
     transform="translate(-133.80037,-496.67607)"
     font-style="normal"
     font-stretch="condensed"
     font-variant="normal"
     style="font-size:40px;font-style:normal;font-variant:normal;font-weight:bold;font-stretch:condensed;fill:#000000;font-family:Folio Std">
    <g
       id="flowRoot2985"
       style="line-height:125%;letter-spacing:0px;word-spacing:0px"
       transform="matrix(0.14541557,0,0,0.14541557,128.72043,428.30143)"
       line-height="125%">
      <path
         id="path3366"
         d="m 60.6,497 c -0.247,-10e-6 -0.371,-0.169 -0.371,-0.508 0.0912,-0.586 0.267,-0.879 0.527,-0.879 0.833,-10e-6 1.41,-0.0781 1.74,-0.234 0.339,-0.143 0.599,-0.521 0.781,-1.13 l 4.51,-18 c 0.195,-0.495 0.293,-1.13 0.293,-1.91 -6e-6,-1.15 -0.391,-1.72 -1.17,-1.72 -0.833,2e-5 -1.45,0.501 -1.86,1.5 -0.404,0.99 -0.794,2.25 -1.17,3.77 -2e-6,0.169 -0.111,0.254 -0.332,0.254 h -0.469 c -0.0651,1e-5 -0.137,-0.0456 -0.215,-0.137 -0.0781,-0.104 -0.117,-0.195 -0.117,-0.273 0.286,-1.16 0.56,-2.14 0.82,-2.95 0.273,-0.807 0.69,-1.54 1.25,-2.21 0.573,-0.664 1.28,-0.996 2.13,-0.996 0.911,2e-5 1.71,0.26 2.4,0.781 0.69,0.508 1.13,1.2 1.33,2.09 0.729,-0.846 1.54,-1.54 2.42,-2.07 0.885,-0.534 1.8,-0.801 2.73,-0.801 1.12,2e-5 2.09,0.3 2.91,0.898 0.833,0.599 1.46,1.39 1.88,2.36 0.417,0.964 0.625,2.01 0.625,3.12 -1.9e-5,1.72 -0.443,3.5 -1.33,5.33 -0.872,1.84 -2.06,3.37 -3.57,4.59 -1.5,1.21 -3.11,1.82 -4.82,1.82 -0.781,0 -1.49,-0.221 -2.13,-0.664 -0.625,-0.443 -1.11,-1.02 -1.46,-1.74 l -1.82,7.11 c -0.0651,0.391 -0.104,0.618 -0.117,0.684 -4e-6,0.352 0.879,0.527 2.64,0.527 0.273,-1e-5 0.41,0.169 0.41,0.508 -0.0912,0.352 -0.169,0.586 -0.234,0.703 -0.0521,0.117 -0.202,0.176 -0.449,0.176 h -7.75 m 11,-8.36 c 0.924,0 1.78,-0.378 2.58,-1.13 0.794,-0.768 1.44,-1.63 1.93,-2.58 0.365,-0.716 0.703,-1.59 1.02,-2.62 0.326,-1.04 0.605,-2.15 0.84,-3.32 0.234,-1.17 0.352,-2.1 0.352,-2.79 -1.6e-5,-0.612 -0.0846,-1.18 -0.254,-1.72 -0.156,-0.534 -0.423,-0.977 -0.801,-1.33 -0.365,-0.365 -0.853,-0.547 -1.46,-0.547 -0.977,2e-5 -1.9,0.352 -2.77,1.05 -0.859,0.69 -1.64,1.55 -2.34,2.58 v 0.137 l -2.21,8.83 c 0.182,0.951 0.534,1.76 1.05,2.44 0.521,0.664 1.21,0.996 2.07,0.996"
         inkscape:connector-curvature="0" />
    </g>
    <g
       id="flowRoot2993-4"
       style="line-height:125%;letter-spacing:0px;word-spacing:0px"
       transform="matrix(0,0.16144211,-0.23364288,0,257.99932,542.97623)"
       line-height="125%">
      <path
         id="path3363"
         d="m -240,530 c 0,-0.52 -0.2,-0.68 -0.68,-0.72 -3.36,-0.2 -4.84,-1.6 -5.32,-3.04 -0.12,-0.4 -0.12,-0.72 -0.12,-1.4 v -9.48 c -0.04,-1.68 -1.32,-3.72 -4.76,-4.64 4.76,-1.28 4.76,-4.04 4.76,-5.84 v -8.4 c 0,-0.88 0,-2.04 1.56,-3.2 0.44,-0.28 1.6,-1 3.68,-1.12 0.56,-0.04 0.88,-0.04 0.88,-0.72 0,-0.72 -0.36,-0.72 -1.24,-0.72 -5.68,0 -9.28,2 -9.32,5.08 v 8.24 c 0,2.48 0,3.32 -1.32,4.48 -0.92,0.84 -2.32,1.4 -3.96,1.48 -0.56,0.04 -0.88,0.04 -0.88,0.72 0,0.52 0.2,0.68 0.68,0.72 3.6,0.2 5.04,2 5.4,3.44 0.08,0.32 0.08,0.4 0.08,1.88 v 8.4 c 0,5.12 6.64,5.56 9.32,5.56 0.88,0 1.24,0 1.24,-0.72"
         inkscape:connector-curvature="0" />
    </g>
  </g>
  <g
     transform="matrix(1.0592349,0,0,0.94407764,0.29909838,0.13597307)"
     style="font-size:3.68817401px;font-style:normal;font-variant:normal;font-weight:bold;font-stretch:condensed;line-height:125%;letter-spacing:0px;word-spacing:0px;fill:#000000;fill-opacity:1;stroke:none;font-family:Folio Std;-inkscape-font-specification:Folio Std Bold Condensed"
     id="text3071">
    <path
       d="m 5.3113233,5.0672693 c 1e-7,-0.060029 0.02041,-0.1122545 0.06123,-0.1566754 0.04202,-0.043221 0.093045,-0.064832 0.1530736,-0.064831 0.039619,-3e-7 0.072635,0.012005 0.099048,0.036017 0.027613,0.025212 0.04142,0.057627 0.04142,0.097247 -3e-7,0.046822 -0.015008,0.088842 -0.045022,0.1260606 -0.028814,0.038418 -0.065432,0.06363 -0.1098528,0.075636 0.043221,0.015607 0.086441,0.023411 0.1296624,0.023411 0.1044498,-7e-7 0.1950933,-0.048624 0.2719308,-0.1458702 C 5.989649,4.9622183 6.0436749,4.8541664 6.0748906,4.734109 L 6.4224578,3.347442 C 6.4392648,3.276609 6.4476688,3.2165804 6.4476698,3.1673554 6.4476687,3.0617061 6.4110508,3.0088807 6.337817,3.0088792 c -0.1080529,1.5e-6 -0.2028984,0.049225 -0.2845369,0.147671 -0.080439,0.097248 -0.1458707,0.2101022 -0.1962944,0.3385628 -0.0048,0.015609 -0.014407,0.023412 -0.028814,0.023411 l -0.043221,0 c -0.02041,10e-7 -0.030615,-0.011404 -0.030615,-0.034217 l 0,-0.010805 C 5.8095625,3.3258328 5.8882003,3.1955703 5.9902499,3.0827147 6.0922983,2.969862 6.210555,2.9134349 6.3450205,2.9134333 c 0.102048,1.6e-6 0.1854881,0.031817 0.2503205,0.095446 0.06603,0.063632 0.099046,0.1446709 0.099048,0.2431169 -1.3e-6,0.034818 -0.0036,0.069635 -0.010805,0.1044502 L 6.334216,4.7575204 C 6.309003,4.8571684 6.26098,4.9484118 6.1901467,5.031252 6.1193117,5.114091 6.0346712,5.1795227 5.9362245,5.2275464 c -0.098448,0.048022 -0.1992962,0.072034 -0.3025455,0.072035 -0.08284,-8e-7 -0.1572758,-0.01981 -0.2233074,-0.059429 -0.066032,-0.03962 -0.099048,-0.097247 -0.099048,-0.1728831 m 1.166961,-2.7589271 c -1.1e-6,-0.054024 0.021009,-0.1014465 0.06303,-0.1422684 0.042019,-0.040817 0.089442,-0.061227 0.1422684,-0.06123 0.042019,2.5e-6 0.076235,0.013209 0.1026494,0.039619 0.027612,0.025215 0.041418,0.05763 0.04142,0.097247 -1.5e-6,0.055229 -0.022212,0.1038521 -0.066632,0.1458701 -0.043222,0.040822 -0.091245,0.061232 -0.1440693,0.061229 -0.03962,2.1e-6 -0.072636,-0.013805 -0.099048,-0.04142 -0.026414,-0.027611 -0.03962,-0.060627 -0.039619,-0.099048"
       style="font-weight:normal;font-stretch:normal;font-family:cmmi10;-inkscape-font-specification:cmmi10"
       id="path3076"
       inkscape:connector-curvature="0" />
  </g>
</svg>
