<?xml version="1.0" encoding="UTF-8" standalone="no"?>
<!-- Created with Inkscape (http://www.inkscape.org/) -->
<svg id="svg2" xmlns:rdf="http://www.w3.org/1999/02/22-rdf-syntax-ns#" xmlns="http://www.w3.org/2000/svg" viewBox="0 0 14.2 9" version="1.1" xmlns:cc="http://creativecommons.org/ns#" xmlns:dc="http://purl.org/dc/elements/1.1/">
 <metadata id="metadata7">
  <rdf:RDF>
   <cc:Work rdf:about="">
    <dc:format>image/svg+xml</dc:format>
    <dc:type rdf:resource="http://purl.org/dc/dcmitype/StillImage"/>
    <dc:title/>
   </cc:Work>
  </rdf:RDF>
 </metadata>
 <g id="layer1" font-size="40px" font-weight="bold" transform="translate(-134.09947,-501.57057)" font-style="normal" font-stretch="condensed" font-variant="normal" font-family="Folio Std" fill="#000">
  <g id="flowRoot2985" style="letter-spacing:0px;word-spacing:0px;" transform="matrix(0.14541557,0,0,0.14541557,128.98829,438.07822)" line-height="125%">
   <path id="path3249" d="m63.6,489c-0.26,0-0.391-0.176-0.391-0.527,0.013-0.0651,0.0391-0.176,0.0781-0.332,0.0391-0.169,0.0911-0.299,0.156-0.391,0.0781-0.104,0.169-0.156,0.273-0.156,1.63,0,2.77-0.0911,3.42-0.273,0.339-0.117,0.586-0.475,0.742-1.07l5.49-22c0.0521-0.26,0.0781-0.443,0.0781-0.547-0.000012-0.286-0.156-0.449-0.469-0.488-0.508-0.104-1.47-0.156-2.89-0.156-0.26,0.00003-0.391-0.176-0.391-0.527,0.013-0.0651,0.039-0.176,0.0781-0.332,0.039-0.169,0.0911-0.299,0.156-0.391,0.0781-0.104,0.169-0.156,0.273-0.156h13.8c1.26,0.00003,2.49,0.228,3.67,0.684,1.18,0.443,2.15,1.13,2.91,2.05,0.755,0.924,1.13,2.04,1.13,3.36-0.00003,1.69-0.599,3.2-1.8,4.53-1.18,1.33-2.67,2.36-4.45,3.11-1.77,0.742-3.49,1.11-5.16,1.11h-6.5l-2.44,9.88c-0.0521,0.26-0.0781,0.449-0.0781,0.566-0.000009,0.104,0.013,0.195,0.0391,0.273,0.039,0.0651,0.0846,0.111,0.137,0.137,0.0651,0.013,0.163,0.0325,0.293,0.0586,0.508,0.104,1.47,0.156,2.89,0.156,0.26,0,0.391,0.176,0.391,0.527-0.0912,0.378-0.163,0.618-0.215,0.723-0.0521,0.104-0.208,0.156-0.469,0.156h-10.8m10.4-13.7,5.61,0c2.59,0.00002,4.56-0.697,5.92-2.09,0.69-0.69,1.25-1.69,1.68-2.99,0.443-1.3,0.664-2.48,0.664-3.54-0.000026-1.32-0.501-2.25-1.5-2.79-1-0.56-2.25-0.84-3.73-0.84h-3.83c-0.729,0.00003-1.21,0.0651-1.45,0.195-0.234,0.117-0.449,0.508-0.645,1.17l-2.71,10.9"/>
  </g>
  <g id="flowRoot2993-4" style="letter-spacing:0px;word-spacing:0px;" transform="matrix(0,-0.16144211,-0.355,0,322.3545,462.86422)" line-height="125%">
   <path id="path3246" d="m-240,530c0-0.52-0.2-0.68-0.68-0.72-3.36-0.2-4.84-1.6-5.32-3.04-0.12-0.4-0.12-0.72-0.12-1.4v-9.48c-0.04-1.68-1.32-3.72-4.76-4.64,4.76-1.28,4.76-4.04,4.76-5.84v-8.4c0-0.88,0-2.04,1.56-3.2,0.44-0.28,1.6-1,3.68-1.12,0.56-0.04,0.88-0.04,0.88-0.72,0-0.72-0.36-0.72-1.24-0.72-5.68,0-9.28,2-9.32,5.08v8.24c0,2.48,0,3.32-1.32,4.48-0.92,0.84-2.32,1.4-3.96,1.48-0.56,0.04-0.88,0.04-0.88,0.72,0,0.52,0.2,0.68,0.68,0.72,3.6,0.2,5.04,2,5.4,3.44,0.08,0.32,0.08,0.4,0.08,1.88v8.4c0,5.12,6.64,5.56,9.32,5.56,0.88,0,1.24,0,1.24-0.72"/>
  </g>
  <g id="flowRoot2985-6" style="letter-spacing:0px;word-spacing:0px;" transform="matrix(0.12077746,0,0,0.10109424,133.61259,461.11337)" line-height="125%">
   <path id="path3243" d="m63.8,488c-0.000002-0.156,0.013-0.273,0.0391-0.352l5.8-23.1c0.104-0.456,0.169-0.814,0.195-1.07-0.000008-0.43-0.866-0.644-2.6-0.645-0.273,0.00003-0.41-0.176-0.41-0.527,0.013-0.0651,0.0391-0.182,0.0781-0.352,0.0521-0.169,0.111-0.299,0.176-0.391,0.0781-0.0911,0.182-0.137,0.312-0.137l5.39-0.43h0.117c-0.000011,0.0261,0.0456,0.0651,0.137,0.117,0.0911,0.0391,0.143,0.0651,0.156,0.0781,0.0521,0.13,0.0781,0.234,0.0781,0.312l-4.2,16.7c0.964-0.404,2.17-1.36,3.63-2.87,1.47-1.52,2.62-2.62,3.44-3.28,0.833-0.664,1.87-0.996,3.12-0.996,0.742,0.00002,1.37,0.254,1.89,0.762,0.521,0.508,0.781,1.13,0.781,1.88-0.00002,0.469-0.0977,0.905-0.293,1.31-0.195,0.391-0.469,0.71-0.82,0.957-0.352,0.247-0.762,0.371-1.23,0.371-0.43,0.00001-0.794-0.13-1.09-0.391-0.286-0.273-0.43-0.625-0.43-1.05-0.000016-0.638,0.221-1.17,0.664-1.6,0.456-0.443,1-0.664,1.64-0.664-0.26-0.352-0.658-0.527-1.19-0.527-0.794,0.00002-1.56,0.228-2.3,0.684-0.729,0.456-1.52,1.11-2.38,1.97-0.846,0.846-1.62,1.63-2.32,2.34-0.703,0.703-1.35,1.24-1.95,1.6,1.58,0.182,2.94,0.599,4.1,1.25,1.16,0.638,1.74,1.62,1.74,2.95-0.000014,0.273-0.0521,0.618-0.156,1.04-0.234,1-0.352,1.8-0.352,2.4-0.000014,1.2,0.41,1.8,1.23,1.8,0.964,0,1.69-0.527,2.19-1.58,0.508-1.05,0.924-2.29,1.25-3.69,0.0521-0.156,0.163-0.234,0.332-0.234h0.469c0.104,0,0.189,0.0326,0.254,0.0976,0.0781,0.0651,0.117,0.15,0.117,0.254-0.000019,0.026-0.013,0.0651-0.0391,0.117-1,4.06-2.55,6.09-4.65,6.09-0.755,0-1.43-0.176-2.01-0.527-0.573-0.352-1.02-0.827-1.33-1.43-0.313-0.612-0.469-1.3-0.469-2.05-0.000011-0.43,0.0586-0.872,0.176-1.33,0.0781-0.312,0.117-0.605,0.117-0.879-0.000011-1.03-0.456-1.81-1.37-2.34-0.911-0.534-1.95-0.859-3.12-0.977l-2.03,8.16c-0.104,0.404-0.306,0.729-0.605,0.977-0.299,0.26-0.645,0.391-1.04,0.391-0.339,0-0.632-0.117-0.879-0.352-0.234-0.221-0.352-0.495-0.352-0.82"/>
  </g>
 </g>
</svg>
