<?xml version="1.0" encoding="UTF-8" standalone="no"?>
<!-- Created with Inkscape (http://www.inkscape.org/) -->

<svg
   xmlns:dc="http://purl.org/dc/elements/1.1/"
   xmlns:cc="http://creativecommons.org/ns#"
   xmlns:rdf="http://www.w3.org/1999/02/22-rdf-syntax-ns#"
   xmlns:svg="http://www.w3.org/2000/svg"
   xmlns="http://www.w3.org/2000/svg"
   xmlns:sodipodi="http://sodipodi.sourceforge.net/DTD/sodipodi-0.dtd"
   xmlns:inkscape="http://www.inkscape.org/namespaces/inkscape"
   width="423.90457"
   height="288.10535"
   id="svg2"
   version="1.1"
   inkscape:version="0.48.4 r9939"
   sodipodi:docname="reason1c.svg">
  <defs
     id="defs4">
    <marker
       inkscape:stockid="Arrow1Send"
       orient="auto"
       refY="0"
       refX="0"
       id="Arrow1Send"
       style="overflow:visible">
      <path
         id="path3776"
         d="M 0,0 5,-5 -12.5,0 5,5 0,0 z"
         style="fill-rule:evenodd;stroke:#000000;stroke-width:1pt"
         transform="matrix(-0.2,0,0,-0.2,-1.2,0)"
         inkscape:connector-curvature="0" />
    </marker>
    <marker
       inkscape:stockid="Arrow1Mstart"
       orient="auto"
       refY="0"
       refX="0"
       id="Arrow1Mstart"
       style="overflow:visible">
      <path
         id="path3767"
         d="M 0,0 5,-5 -12.5,0 5,5 0,0 z"
         style="fill-rule:evenodd;stroke:#000000;stroke-width:1pt"
         transform="matrix(0.4,0,0,0.4,4,0)"
         inkscape:connector-curvature="0" />
    </marker>
    <marker
       inkscape:stockid="Arrow1Lstart"
       orient="auto"
       refY="0"
       refX="0"
       id="Arrow1Lstart"
       style="overflow:visible">
      <path
         id="path3761"
         d="M 0,0 5,-5 -12.5,0 5,5 0,0 z"
         style="fill-rule:evenodd;stroke:#000000;stroke-width:1pt"
         transform="matrix(0.8,0,0,0.8,10,0)"
         inkscape:connector-curvature="0" />
    </marker>
    <marker
       inkscape:stockid="Arrow1Mend"
       orient="auto"
       refY="0"
       refX="0"
       id="Arrow1Mend"
       style="overflow:visible">
      <path
         id="path3770"
         d="M 0,0 5,-5 -12.5,0 5,5 0,0 z"
         style="fill-rule:evenodd;stroke:#000000;stroke-width:1pt"
         transform="matrix(-0.4,0,0,-0.4,-4,0)"
         inkscape:connector-curvature="0" />
    </marker>
    <marker
       inkscape:stockid="Arrow1Send"
       orient="auto"
       refY="0"
       refX="0"
       id="Arrow1Send-6"
       style="overflow:visible">
      <path
         inkscape:connector-curvature="0"
         id="path3776-5"
         d="M 0,0 5,-5 -12.5,0 5,5 0,0 z"
         style="fill-rule:evenodd;stroke:#000000;stroke-width:1pt"
         transform="matrix(-0.2,0,0,-0.2,-1.2,0)" />
    </marker>
  </defs>
  <sodipodi:namedview
     id="base"
     pagecolor="#ffffff"
     bordercolor="#666666"
     borderopacity="1.0"
     inkscape:pageopacity="0.0"
     inkscape:pageshadow="2"
     inkscape:zoom="1.979899"
     inkscape:cx="262.06913"
     inkscape:cy="120.64259"
     inkscape:document-units="px"
     inkscape:current-layer="layer1"
     showgrid="false"
     inkscape:window-width="1920"
     inkscape:window-height="1035"
     inkscape:window-x="0"
     inkscape:window-y="23"
     inkscape:window-maximized="1"
     fit-margin-top="2"
     fit-margin-left="2"
     fit-margin-right="2"
     fit-margin-bottom="2" />
  <metadata
     id="metadata7">
    <rdf:RDF>
      <cc:Work
         rdf:about="">
        <dc:format>image/svg+xml</dc:format>
        <dc:type
           rdf:resource="http://purl.org/dc/dcmitype/StillImage" />
        <dc:title />
      </cc:Work>
    </rdf:RDF>
  </metadata>
  <g
     inkscape:label="Layer 1"
     inkscape:groupmode="layer"
     id="layer1"
     transform="translate(-196.84343,289.35906)">
    <flowRoot
       xml:space="preserve"
       id="flowRoot5463"
       style="font-size:40px;font-style:normal;font-variant:normal;font-weight:bold;font-stretch:condensed;line-height:125%;letter-spacing:0px;word-spacing:0px;fill:#000000;fill-opacity:1;stroke:none;font-family:Folio Std;-inkscape-font-specification:Folio Std Bold Condensed"
       transform="translate(51.284095,220.10561)"><flowRegion
         id="flowRegion5465"><rect
           id="rect5467"
           width="147.73482"
           height="66.670067"
           x="25.75889"
           y="67.212463" /></flowRegion><flowPara
         id="flowPara5469" /></flowRoot>    <path
       style="font-size:medium;font-style:normal;font-variant:normal;font-weight:normal;font-stretch:normal;text-indent:0;text-align:start;text-decoration:none;line-height:normal;letter-spacing:normal;word-spacing:normal;text-transform:none;direction:ltr;block-progression:tb;writing-mode:lr-tb;text-anchor:start;baseline-shift:baseline;color:#000000;fill:#000000;fill-opacity:1;stroke:none;stroke-width:2;marker:none;visibility:visible;display:inline;overflow:visible;enable-background:accumulate;font-family:Sans;-inkscape-font-specification:Sans"
       d="m 210.9375,-221.34375 0,1 0,131.375 0,1 1,0 186.4375,0 1,0 0,-1 0,-131.375 0,-1 -1,0 -186.4375,0 -1,0 z m 2,2 184.4375,0 0,129.375 -184.4375,0 0,-129.375 z"
       id="rect5586"
       inkscape:connector-curvature="0" />
    <g
       transform="scale(1.00125,0.9987516)"
       style="font-size:30.19748688px;font-style:normal;font-variant:normal;font-weight:bold;font-stretch:condensed;text-align:center;line-height:125%;letter-spacing:0px;word-spacing:0px;text-anchor:middle;fill:#000000;fill-opacity:1;stroke:none;font-family:Folio Std;-inkscape-font-specification:Folio Std Bold Condensed"
       id="text5588">
      <path
         d="m 246.66014,-184.65581 0.21138,13.55867 -0.21138,5.82811 3.17074,0 -0.15099,-6.09989 0,-0.45296 2.14402,0 c 4.68061,0 7.51917,-2.71778 7.51917,-7.06621 0,-3.74449 -2.20442,-5.79792 -6.09989,-5.79792 l -6.58305,0.0302 m 3.04995,10.35773 0.12079,-7.85134 2.56678,-0.0906 c 2.446,0.0906 3.71429,1.17771 3.71429,3.6237 0,2.47619 -1.1777,3.95587 -3.38211,4.37864 l -3.01975,-0.0604"
         style="font-weight:500;font-stretch:normal;line-height:125%;writing-mode:lr-tb;font-family:Alegreya Sans;-inkscape-font-specification:Alegreya Sans Medium"
         id="path6469" />
      <path
         d="m 268.78216,-179.22027 c -1.2079,0 -2.65738,0.66435 -3.80488,2.74797 l -0.21139,0 0.0302,-2.77816 -2.92916,0.27177 0.18119,7.88155 -0.21138,5.82811 3.08014,0 -0.21138,-6.09989 0.0302,-1.99303 c 1.05691,-2.08363 2.11382,-2.92916 3.35192,-2.92916 0.27177,0 0.69454,0.0302 1.1173,0.15099 l 0.33218,-0.0906 0,-2.92915 c -0.21139,-0.0302 -0.51336,-0.0604 -0.75494,-0.0604"
         style="font-weight:500;font-stretch:normal;line-height:125%;writing-mode:lr-tb;font-family:Alegreya Sans;-inkscape-font-specification:Alegreya Sans Medium"
         id="path6471" />
      <path
         d="m 277.09307,-179.46185 c -4.16725,0 -6.49246,2.68758 -6.49246,7.45878 0,4.46923 2.20442,7.00582 6.0999,7.00582 4.16725,0 6.49246,-2.68758 6.49246,-7.45878 0,-4.46922 -2.20442,-7.00582 -6.0999,-7.00582 m -0.18118,2.14403 c 2.26481,0 3.41231,1.75145 3.41231,5.55633 0,3.17074 -1.1475,4.65042 -3.41231,4.65042 -2.29501,0 -3.44251,-1.72126 -3.44251,-5.55634 0,-3.11034 1.1475,-4.65041 3.44251,-4.65041"
         style="font-weight:500;font-stretch:normal;line-height:125%;writing-mode:lr-tb;font-family:Alegreya Sans;-inkscape-font-specification:Alegreya Sans Medium"
         id="path6473" />
      <path
         d="m 293.25439,-179.34106 c -1.38908,0.42277 -2.32521,0.96632 -3.6237,2.08363 l -0.21138,0 0.0302,-1.99303 -2.95936,0.27177 0.18119,7.88155 -0.18119,11.41465 3.04995,0 -0.0906,-5.55634 c 0.81533,0.15099 1.60046,0.24158 2.3554,0.24158 4.31824,0 6.85483,-2.71778 6.85483,-7.63996 0,-4.19745 -1.84205,-6.70385 -5.40535,-6.70385 m -1.2079,12.22999 c -0.84553,0 -1.72126,-0.21139 -2.62718,-0.66435 l -0.0604,-3.5935 0.0302,-3.68409 c 1.2381,-1.2683 2.29501,-1.81185 3.35192,-1.81185 1.93264,0 2.98955,1.69106 3.01975,4.62021 0.0604,3.53311 -1.44948,5.13358 -3.71429,5.13358"
         style="font-weight:500;font-stretch:normal;line-height:125%;writing-mode:lr-tb;font-family:Alegreya Sans;-inkscape-font-specification:Alegreya Sans Medium"
         id="path6475" />
      <path
         d="m 311.96976,-172.09366 0.51335,-0.48316 c 0.0604,-0.36237 0.12079,-1.08711 0.12079,-1.50987 0,-3.32172 -1.84205,-5.34496 -5.07318,-5.34496 -4.04645,0 -6.67364,2.74798 -6.67364,7.2776 0,4.40882 2.4158,7.1568 6.58305,7.1568 1.44948,0 2.92916,-0.39257 4.22765,-1.02671 l 0.36237,-2.446 -0.27178,-0.18119 c -1.35888,0.81534 -2.83856,1.2683 -4.07666,1.2683 -2.65737,0 -3.92567,-1.72126 -3.98607,-4.71081 l 8.27412,0 m -2.17422,-2.02323 -5.94891,0.15099 c 0.39257,-2.14402 1.66086,-3.35192 3.50291,-3.35192 1.50987,0 2.50639,0.87572 2.50639,2.83856 l -0.0604,0.36237"
         style="font-weight:500;font-stretch:normal;line-height:125%;writing-mode:lr-tb;font-family:Alegreya Sans;-inkscape-font-specification:Alegreya Sans Medium"
         id="path6477" />
      <path
         d="m 322.74837,-179.22027 c -1.2079,0 -2.65738,0.66435 -3.80488,2.74797 l -0.21138,0 0.0302,-2.77816 -2.92915,0.27177 0.18118,7.88155 -0.21138,5.82811 3.08014,0 -0.21138,-6.09989 0.0302,-1.99303 c 1.05691,-2.08363 2.11382,-2.92916 3.35192,-2.92916 0.27178,0 0.69454,0.0302 1.11731,0.15099 l 0.33217,-0.0906 0,-2.92915 c -0.21138,-0.0302 -0.51336,-0.0604 -0.75494,-0.0604"
         style="font-weight:500;font-stretch:normal;line-height:125%;writing-mode:lr-tb;font-family:Alegreya Sans;-inkscape-font-specification:Alegreya Sans Medium"
         id="path6479" />
      <path
         d="m 330.8696,-167.59423 c -1.23809,0 -1.78165,-0.48317 -1.75145,-1.99304 l 0.15099,-7.57957 3.89547,0 0.15099,-1.75145 -0.12079,-0.21138 -3.86528,0 0.0604,-2.98956 -0.27178,-0.24158 -2.71778,1.02672 0,2.20442 -1.84204,0 -0.15099,1.78165 0.12079,0.18118 1.90244,0 0.0302,5.88851 -0.12079,2.17422 c 0,2.3856 1.05691,3.6237 3.5633,4.01627 1.05691,-0.0906 1.99304,-0.39257 3.08015,-0.90593 l 0.30197,-1.93264 -0.30197,-0.21138 c -0.81533,0.39257 -1.47968,0.54356 -2.11383,0.54356"
         style="font-weight:500;font-stretch:normal;line-height:125%;writing-mode:lr-tb;font-family:Alegreya Sans;-inkscape-font-specification:Alegreya Sans Medium"
         id="path6481" />
      <path
         d="m 337.45785,-185.68253 c -1.08711,0 -1.75145,0.69454 -1.75145,1.75146 0,1.05691 0.60395,1.69105 1.66086,1.69105 1.02671,0 1.69106,-0.69454 1.69106,-1.78165 0,-1.02671 -0.57375,-1.66086 -1.60047,-1.66086 m 1.2079,14.31361 0.24158,-7.88154 -3.08014,0.27177 0.15099,7.88155 -0.18119,5.82811 3.08014,0 -0.21138,-6.09989"
         style="font-weight:500;font-stretch:normal;line-height:125%;writing-mode:lr-tb;font-family:Alegreya Sans;-inkscape-font-specification:Alegreya Sans Medium"
         id="path6483" />
      <path
         d="m 353.25538,-172.09366 0.51336,-0.48316 c 0.0604,-0.36237 0.12079,-1.08711 0.12079,-1.50987 0,-3.32172 -1.84205,-5.34496 -5.07318,-5.34496 -4.04646,0 -6.67364,2.74798 -6.67364,7.2776 0,4.40882 2.4158,7.1568 6.58305,7.1568 1.44948,0 2.92916,-0.39257 4.22765,-1.02671 l 0.36237,-2.446 -0.27178,-0.18119 c -1.35889,0.81534 -2.83857,1.2683 -4.07666,1.2683 -2.65738,0 -3.92568,-1.72126 -3.98607,-4.71081 l 8.27411,0 m -2.17422,-2.02323 -5.9489,0.15099 c 0.39256,-2.14402 1.66086,-3.35192 3.50291,-3.35192 1.50987,0 2.50639,0.87572 2.50639,2.83856 l -0.0604,0.36237"
         style="font-weight:500;font-stretch:normal;line-height:125%;writing-mode:lr-tb;font-family:Alegreya Sans;-inkscape-font-specification:Alegreya Sans Medium"
         id="path6485" />
      <path
         d="m 361.28602,-179.43165 c -3.20093,0 -5.07318,1.81185 -5.07318,4.19745 0,4.37863 6.25088,3.80489 6.25088,6.37167 0,0.90593 -0.78513,1.78165 -2.14402,1.78165 -1.1173,0 -2.65738,-0.57375 -3.86528,-1.63066 l -0.33217,0.21138 -0.36237,2.56679 c 1.38909,0.60395 2.89896,0.93612 4.22765,0.93612 3.47271,0 5.22417,-2.14402 5.22417,-4.37864 0,-4.25784 -6.25088,-3.71429 -6.25088,-6.25088 0,-0.87572 0.72474,-1.66086 1.96283,-1.66086 0.93612,0 1.99304,0.33218 3.08015,1.05691 l 0.39256,-0.0906 0.42277,-2.4158 c -1.11731,-0.45296 -2.35541,-0.69454 -3.53311,-0.69454"
         style="font-weight:500;font-stretch:normal;line-height:125%;writing-mode:lr-tb;font-family:Alegreya Sans;-inkscape-font-specification:Alegreya Sans Medium"
         id="path6487" />
      <path
         d="m 227.66828,-141.71499 c -4.16725,0 -6.49246,2.68758 -6.49246,7.45878 0,4.46922 2.20442,7.00582 6.09989,7.00582 4.16725,0 6.49246,-2.68758 6.49246,-7.45878 0,-4.46922 -2.20442,-7.00582 -6.09989,-7.00582 m -0.18118,2.14402 c 2.2648,0 3.41231,1.75146 3.41231,5.55634 0,3.17073 -1.14751,4.65041 -3.41231,4.65041 -2.29501,0 -3.44252,-1.72126 -3.44252,-5.55633 0,-3.11034 1.14751,-4.65042 3.44252,-4.65042"
         style="font-weight:500;font-stretch:normal;line-height:125%;writing-mode:lr-tb;font-family:Alegreya Sans;-inkscape-font-specification:Alegreya Sans Medium"
         id="path6489" />
      <path
         d="m 242.93783,-148.7812 c -3.47271,0 -5.49594,1.87225 -5.46575,5.31476 l 0.0302,2.08362 -2.05343,0 -0.15099,1.78166 0.12079,0.18118 2.08363,0 0.0604,6.0395 -0.18119,5.85831 3.08014,0 -0.21138,-6.13009 0.0906,-5.76772 3.50291,0 0.18119,-1.75145 -0.0906,-0.21139 -3.56331,0 0.0302,-2.59698 c 0.0302,-1.75145 0.84553,-2.59698 2.26481,-2.59698 0.69454,0 1.35889,0.15098 2.32521,0.57375 l 0.21138,-0.18119 0.18118,-2.3252 c -0.84552,-0.18119 -1.66086,-0.27178 -2.44599,-0.27178"
         style="font-weight:500;font-stretch:normal;line-height:125%;writing-mode:lr-tb;font-family:Alegreya Sans;-inkscape-font-specification:Alegreya Sans Medium"
         id="path6491" />
      <path
         d="m 255.72977,-129.84738 c -1.2381,0 -1.78165,-0.48316 -1.75146,-1.99303 l 0.15099,-7.57957 3.89548,0 0.15098,-1.75145 -0.12079,-0.21139 -3.86527,0 0.0604,-2.98955 -0.27178,-0.24158 -2.71777,1.02672 0,2.20441 -1.84205,0 -0.15099,1.78166 0.12079,0.18118 1.90245,0 0.0302,5.88851 -0.12079,2.17422 c 0,2.3856 1.05692,3.6237 3.56331,4.01627 1.05691,-0.0906 1.99303,-0.39257 3.08014,-0.90593 l 0.30198,-1.93264 -0.30198,-0.21138 c -0.81533,0.39257 -1.47968,0.54355 -2.11382,0.54355"
         style="font-weight:500;font-stretch:normal;line-height:125%;writing-mode:lr-tb;font-family:Alegreya Sans;-inkscape-font-specification:Alegreya Sans Medium"
         id="path6493" />
      <path
         d="m 269.29363,-127.52217 3.11034,0 -0.15099,-6.09989 0.0906,-3.92567 c 0.0302,-2.59699 -1.57028,-4.07667 -4.68062,-4.07667 -1.20789,0.36237 -2.50639,1.08712 -3.71429,2.14403 l -0.18118,0 0.15099,-9.24043 -3.08015,0.24157 0.15099,15.09875 -0.18118,5.85831 3.08014,0 -0.21138,-6.13009 0.0604,-3.65389 c 1.1777,-1.14751 2.4158,-1.81185 3.6237,-1.81185 1.44948,0 2.17422,0.93612 2.14402,2.44599 l -0.21138,9.14984"
         style="font-weight:500;font-stretch:normal;line-height:125%;writing-mode:lr-tb;font-family:Alegreya Sans;-inkscape-font-specification:Alegreya Sans Medium"
         id="path6495" />
      <path
         d="m 286.5496,-134.3468 0.51336,-0.48316 c 0.0604,-0.36237 0.12079,-1.08711 0.12079,-1.50988 0,-3.32172 -1.84205,-5.34495 -5.07318,-5.34495 -4.04646,0 -6.67364,2.74798 -6.67364,7.27759 0,4.40883 2.4158,7.15681 6.58305,7.15681 1.44948,0 2.92916,-0.39257 4.22765,-1.02672 l 0.36237,-2.44599 -0.27178,-0.18119 c -1.35888,0.81533 -2.83856,1.2683 -4.07666,1.2683 -2.65738,0 -3.92567,-1.72126 -3.98607,-4.71081 l 8.27411,0 m -2.17421,-2.02323 -5.94891,0.15098 c 0.39257,-2.14401 1.66086,-3.35192 3.50291,-3.35192 1.50987,0 2.50639,0.87573 2.50639,2.83857 l -0.0604,0.36237"
         style="font-weight:500;font-stretch:normal;line-height:125%;writing-mode:lr-tb;font-family:Alegreya Sans;-inkscape-font-specification:Alegreya Sans Medium"
         id="path6497" />
      <path
         d="m 299.41656,-141.68479 c -3.20093,0 -5.07317,1.81185 -5.07317,4.19745 0,4.37863 6.25088,3.80489 6.25088,6.37167 0,0.90592 -0.78514,1.78165 -2.14403,1.78165 -1.1173,0 -2.65738,-0.57375 -3.86527,-1.63066 l -0.33218,0.21138 -0.36237,2.56679 c 1.38909,0.60395 2.89896,0.93612 4.22765,0.93612 3.47271,0 5.22417,-2.14403 5.22417,-4.37864 0,-4.25784 -6.25088,-3.71429 -6.25088,-6.25088 0,-0.87572 0.72474,-1.66086 1.96283,-1.66086 0.93613,0 1.99304,0.33217 3.08015,1.05691 l 0.39257,-0.0906 0.42276,-2.4158 c -1.11731,-0.45296 -2.3554,-0.69454 -3.53311,-0.69454"
         style="font-weight:500;font-stretch:normal;line-height:125%;writing-mode:lr-tb;font-family:Alegreya Sans;-inkscape-font-specification:Alegreya Sans Medium"
         id="path6499" />
      <path
         d="m 312.06789,-141.71499 c -4.16725,0 -6.49246,2.68758 -6.49246,7.45878 0,4.46922 2.20442,7.00582 6.0999,7.00582 4.16724,0 6.49246,-2.68758 6.49246,-7.45878 0,-4.46922 -2.20443,-7.00582 -6.0999,-7.00582 m -0.18118,2.14402 c 2.26481,0 3.41231,1.75146 3.41231,5.55634 0,3.17073 -1.1475,4.65041 -3.41231,4.65041 -2.29501,0 -3.44252,-1.72126 -3.44252,-5.55633 0,-3.11034 1.14751,-4.65042 3.44252,-4.65042"
         style="font-weight:500;font-stretch:normal;line-height:125%;writing-mode:lr-tb;font-family:Alegreya Sans;-inkscape-font-specification:Alegreya Sans Medium"
         id="path6501" />
      <path
         d="m 324.48473,-133.65226 0.24158,-15.06854 -3.08015,0.24157 0.18119,15.09875 -0.21138,5.85831 3.08014,0 -0.21138,-6.13009"
         style="font-weight:500;font-stretch:normal;line-height:125%;writing-mode:lr-tb;font-family:Alegreya Sans;-inkscape-font-specification:Alegreya Sans Medium"
         id="path6503" />
      <path
         d="m 340.18459,-141.50361 -2.92916,0.27178 0,9.81419 c -1.05691,0.99651 -2.20442,1.54007 -3.29153,1.54007 -1.41928,0 -2.11382,-0.90593 -2.08362,-2.3856 l 0.15099,-9.24044 -3.04995,0.27178 0.12079,6.0395 -0.0604,3.77469 c -0.0302,2.59698 1.60047,4.07666 4.65042,4.07666 1.2079,-0.33218 2.4158,-1.02672 3.6237,-2.11383 l 0.24158,0 c 0.24158,1.2079 0.96632,2.02323 2.23461,2.14402 0.72474,-0.0906 1.35889,-0.33217 1.90244,-0.66434 l 0.30198,-1.69106 -0.27178,-0.21138 c -0.42277,0.0906 -0.69454,0.12079 -0.93612,0.12079 -0.60395,0 -0.81534,-0.24158 -0.81534,-0.99652 l 0.21139,-10.75031"
         style="font-weight:500;font-stretch:normal;line-height:125%;writing-mode:lr-tb;font-family:Alegreya Sans;-inkscape-font-specification:Alegreya Sans Medium"
         id="path6505" />
      <path
         d="m 349.62508,-129.84738 c -1.2381,0 -1.78166,-0.48316 -1.75146,-1.99303 l 0.15099,-7.57957 3.89548,0 0.15098,-1.75145 -0.12079,-0.21139 -3.86528,0 0.0604,-2.98955 -0.27178,-0.24158 -2.71777,1.02672 0,2.20441 -1.84205,0 -0.15099,1.78166 0.12079,0.18118 1.90245,0 0.0302,5.88851 -0.12079,2.17422 c 0,2.3856 1.05692,3.6237 3.56331,4.01627 1.05691,-0.0906 1.99303,-0.39257 3.08014,-0.90593 l 0.30198,-1.93264 -0.30198,-0.21138 c -0.81533,0.39257 -1.47968,0.54355 -2.11382,0.54355"
         style="font-weight:500;font-stretch:normal;line-height:125%;writing-mode:lr-tb;font-family:Alegreya Sans;-inkscape-font-specification:Alegreya Sans Medium"
         id="path6507" />
      <path
         d="m 356.21333,-147.93567 c -1.08711,0 -1.75146,0.69454 -1.75146,1.75145 0,1.05691 0.60395,1.69106 1.66086,1.69106 1.02672,0 1.69106,-0.69454 1.69106,-1.78165 0,-1.02671 -0.57375,-1.66086 -1.60046,-1.66086 m 1.2079,14.31361 0.24158,-7.88155 -3.08015,0.27178 0.15099,7.88155 -0.18119,5.82811 3.08015,0 -0.21138,-6.09989"
         style="font-weight:500;font-stretch:normal;line-height:125%;writing-mode:lr-tb;font-family:Alegreya Sans;-inkscape-font-specification:Alegreya Sans Medium"
         id="path6509" />
      <path
         d="m 367.39063,-141.71499 c -4.16725,0 -6.49246,2.68758 -6.49246,7.45878 0,4.46922 2.20442,7.00582 6.09989,7.00582 4.16725,0 6.49246,-2.68758 6.49246,-7.45878 0,-4.46922 -2.20442,-7.00582 -6.09989,-7.00582 m -0.18118,2.14402 c 2.26481,0 3.41231,1.75146 3.41231,5.55634 0,3.17073 -1.1475,4.65041 -3.41231,4.65041 -2.29501,0 -3.44252,-1.72126 -3.44252,-5.55633 0,-3.11034 1.14751,-4.65042 3.44252,-4.65042"
         style="font-weight:500;font-stretch:normal;line-height:125%;writing-mode:lr-tb;font-family:Alegreya Sans;-inkscape-font-specification:Alegreya Sans Medium"
         id="path6511" />
      <path
         d="m 385.2732,-127.52217 3.11034,0 -0.15098,-6.09989 0.0906,-3.92567 c 0.0302,-2.59699 -1.57027,-4.07667 -4.68061,-4.07667 -1.2079,0.36237 -2.50639,1.08712 -3.71429,2.14403 l -0.21138,0 0.0302,-2.02324 -2.92915,0.27178 0.15098,7.88155 -0.18118,5.82811 3.08014,0 -0.18118,-6.09989 0.0302,-3.68409 c 1.1777,-1.14751 2.4158,-1.81185 3.62369,-1.81185 1.44948,0 2.17422,0.93612 2.14403,2.44599 l -0.21139,9.14984"
         style="font-weight:500;font-stretch:normal;line-height:125%;writing-mode:lr-tb;font-family:Alegreya Sans;-inkscape-font-specification:Alegreya Sans Medium"
         id="path6513" />
    </g>
    <g
       transform="scale(1.00125,0.99875157)"
       style="font-size:30.19748688px;font-style:normal;font-variant:normal;font-weight:bold;font-stretch:condensed;text-align:center;line-height:125%;letter-spacing:0px;word-spacing:0px;text-anchor:middle;fill:#000000;fill-opacity:1;stroke:none;font-family:Folio Std;-inkscape-font-specification:Folio Std Bold Condensed"
       id="text5588-5">
      <path
         d="m 485.0201,-182.08903 3.11034,-0.0302 4.52962,0.18119 0.24158,-2.446 -0.21138,-0.27177 -10.8409,0 0.21139,13.55867 -0.21139,5.82811 3.17074,0 -0.15099,-6.09989 0.0302,-2.08363 2.80837,-0.0302 3.44251,0.0906 0.24158,-2.35541 -0.21138,-0.27177 -3.20094,0.0906 -3.04994,-0.0604 0.0906,-6.09989"
         style="font-weight:500;font-stretch:normal;line-height:125%;writing-mode:lr-tb;font-family:Alegreya Sans;-inkscape-font-specification:Alegreya Sans Medium"
         id="path6431" />
      <path
         d="m 496.4456,-185.68253 c -1.08711,0 -1.75145,0.69454 -1.75145,1.75146 0,1.05691 0.60395,1.69105 1.66086,1.69105 1.02671,0 1.69106,-0.69454 1.69106,-1.78165 0,-1.02671 -0.57375,-1.66086 -1.60047,-1.66086 m 1.2079,14.31361 0.24158,-7.88154 -3.08014,0.27177 0.15099,7.88155 -0.18119,5.82811 3.08014,0 -0.21138,-6.09989"
         style="font-weight:500;font-stretch:normal;line-height:125%;writing-mode:lr-tb;font-family:Alegreya Sans;-inkscape-font-specification:Alegreya Sans Medium"
         id="path6433" />
      <path
         d="m 510.64267,-165.26903 3.11034,0 -0.15099,-6.09989 0.0906,-3.92567 c 0.0302,-2.59698 -1.57027,-4.07666 -4.68061,-4.07666 -1.20789,0.36237 -2.50639,1.08711 -3.71429,2.14402 l -0.21138,0 0.0302,-2.02323 -2.92916,0.27177 0.15099,7.88155 -0.18119,5.82811 3.08015,0 -0.18119,-6.09989 0.0302,-3.68409 c 1.1777,-1.14751 2.4158,-1.81185 3.6237,-1.81185 1.44948,0 2.17422,0.93612 2.14402,2.44599 l -0.21138,9.14984"
         style="font-weight:500;font-stretch:normal;line-height:125%;writing-mode:lr-tb;font-family:Alegreya Sans;-inkscape-font-specification:Alegreya Sans Medium"
         id="path6435" />
      <path
         d="m 528.74701,-171.39912 0.24157,-15.06854 -3.08014,0.24158 0.0604,7.03601 c -0.78514,-0.15099 -1.60047,-0.24158 -2.35541,-0.24158 -4.25784,0 -6.85483,2.59699 -6.85483,7.2474 0,4.46922 2.20442,7.09641 6.25088,7.09641 1.2079,-0.54356 1.99304,-1.11731 3.14054,-2.08363 l 0.24158,0 c 0.21138,1.1777 0.96632,1.99303 2.23462,2.11382 0.72473,-0.0906 1.38908,-0.33217 1.93263,-0.66434 l 0.27178,-1.69106 -0.27178,-0.21138 c -0.42276,0.0906 -0.69454,0.12079 -0.93612,0.12079 -0.57375,0 -0.75494,-0.24158 -0.78513,-0.99652 l -0.0906,-2.89896 m -5.43555,-5.9187 c 0.87572,0 1.72126,0.24158 2.68757,0.69454 l 0.0906,5.49594 -0.0604,1.96284 c -1.08711,1.20789 -2.02323,1.57027 -2.95935,1.57027 -2.11382,0 -3.38212,-1.72126 -3.41232,-4.95239 -0.0604,-3.23113 1.38909,-4.7712 3.6539,-4.7712"
         style="font-weight:500;font-stretch:normal;line-height:125%;writing-mode:lr-tb;font-family:Alegreya Sans;-inkscape-font-specification:Alegreya Sans Medium"
         id="path6437" />
      <path
         d="m 535.19511,-185.68253 c -1.08711,0 -1.75145,0.69454 -1.75145,1.75146 0,1.05691 0.60395,1.69105 1.66086,1.69105 1.02671,0 1.69106,-0.69454 1.69106,-1.78165 0,-1.02671 -0.57375,-1.66086 -1.60047,-1.66086 m 1.2079,14.31361 0.24158,-7.88154 -3.08014,0.27177 0.15098,7.88155 -0.18118,5.82811 3.08014,0 -0.21138,-6.09989"
         style="font-weight:500;font-stretch:normal;line-height:125%;writing-mode:lr-tb;font-family:Alegreya Sans;-inkscape-font-specification:Alegreya Sans Medium"
         id="path6439" />
      <path
         d="m 549.39218,-165.26903 3.11034,0 -0.15099,-6.09989 0.0906,-3.92567 c 0.0302,-2.59698 -1.57028,-4.07666 -4.68061,-4.07666 -1.2079,0.36237 -2.5064,1.08711 -3.71429,2.14402 l -0.21139,0 0.0302,-2.02323 -2.92916,0.27177 0.15099,7.88155 -0.18118,5.82811 3.08014,0 -0.18118,-6.09989 0.0302,-3.68409 c 1.1777,-1.14751 2.4158,-1.81185 3.6237,-1.81185 1.44948,0 2.17422,0.93612 2.14402,2.44599 l -0.21138,9.14984"
         style="font-weight:500;font-stretch:normal;line-height:125%;writing-mode:lr-tb;font-family:Alegreya Sans;-inkscape-font-specification:Alegreya Sans Medium"
         id="path6441" />
      <path
         d="m 569.39896,-179.73362 -0.27178,-0.18119 c -1.44948,0.45296 -2.95935,0.81533 -4.46923,1.05691 -0.78513,-0.33217 -1.69106,-0.51335 -2.77817,-0.51335 -3.41231,0 -5.64693,1.81185 -5.64693,4.92219 0,1.75145 0.72475,3.11034 2.08363,3.86527 l 0,0.15099 c -0.81533,0.51336 -1.44948,1.14751 -1.93264,1.84205 0,1.41928 0.93612,2.11382 2.20442,2.53659 l 0,0.15099 c -1.02672,0.66434 -1.96284,1.38908 -2.59699,2.44599 0,2.32521 1.84205,4.04646 5.34496,4.04646 3.80488,0 6.67364,-2.05343 6.67364,-4.741 0,-4.62021 -8.87806,-2.71778 -8.87806,-4.8618 0,-0.33217 0.15099,-0.60395 0.63415,-0.99651 0.57375,0.12079 1.1777,0.18118 1.84205,0.18118 3.5331,0 5.70732,-1.90244 5.70732,-4.86179 0,-0.87573 -0.18118,-1.66087 -0.57375,-2.32521 l 0.0604,-0.12079 c 0.90593,-0.15099 1.78166,-0.30198 2.59699,-0.57375 l 0,-2.02323 m -7.67016,7.94194 c -1.81185,0 -2.77817,-1.02672 -2.77817,-2.80837 0,-1.81185 1.02671,-2.77817 2.89896,-2.77817 1.84204,0 2.74797,0.96632 2.74797,2.68758 0,1.84204 -1.02672,2.89896 -2.86876,2.89896 m 3.6237,8.21371 c 0,1.29849 -1.54008,2.17422 -3.6539,2.17422 -2.05343,0 -3.08014,-0.81533 -3.08014,-1.87224 0,-0.84553 0.69454,-1.57027 1.93263,-2.35541 2.35541,0.36237 4.80141,0.45297 4.80141,2.05343"
         style="font-weight:500;font-stretch:normal;line-height:125%;writing-mode:lr-tb;font-family:Alegreya Sans;-inkscape-font-specification:Alegreya Sans Medium"
         id="path6443" />
      <path
         d="m 460.51508,-129.84738 c -1.2381,0 -1.78166,-0.48316 -1.75146,-1.99303 l 0.15099,-7.57957 3.89547,0 0.15099,-1.75145 -0.12079,-0.21139 -3.86528,0 0.0604,-2.98955 -0.27178,-0.24158 -2.71777,1.02672 0,2.20441 -1.84205,0 -0.15099,1.78166 0.12079,0.18118 1.90245,0 0.0302,5.88851 -0.12079,2.17422 c 0,2.3856 1.05692,3.6237 3.56331,4.01627 1.05691,-0.0906 1.99303,-0.39257 3.08014,-0.90593 l 0.30197,-1.93264 -0.30197,-0.21138 c -0.81533,0.39257 -1.47968,0.54355 -2.11382,0.54355"
         style="font-weight:500;font-stretch:normal;line-height:125%;writing-mode:lr-tb;font-family:Alegreya Sans;-inkscape-font-specification:Alegreya Sans Medium"
         id="path6445" />
      <path
         d="m 474.07894,-127.52217 3.11034,0 -0.15099,-6.09989 0.0906,-3.92567 c 0.0302,-2.59699 -1.57027,-4.07667 -4.68061,-4.07667 -1.20789,0.36237 -2.50639,1.08712 -3.71429,2.14403 l -0.18118,0 0.15099,-9.24043 -3.08015,0.24157 0.15099,15.09875 -0.18119,5.85831 3.08015,0 -0.21138,-6.13009 0.0604,-3.65389 c 1.1777,-1.14751 2.4158,-1.81185 3.6237,-1.81185 1.44948,0 2.17422,0.93612 2.14402,2.44599 l -0.21138,9.14984"
         style="font-weight:500;font-stretch:normal;line-height:125%;writing-mode:lr-tb;font-family:Alegreya Sans;-inkscape-font-specification:Alegreya Sans Medium"
         id="path6447" />
      <path
         d="m 491.33491,-134.3468 0.51336,-0.48316 c 0.0604,-0.36237 0.12079,-1.08711 0.12079,-1.50988 0,-3.32172 -1.84205,-5.34495 -5.07318,-5.34495 -4.04646,0 -6.67364,2.74798 -6.67364,7.27759 0,4.40883 2.4158,7.15681 6.58305,7.15681 1.44948,0 2.92916,-0.39257 4.22765,-1.02672 l 0.36237,-2.44599 -0.27178,-0.18119 c -1.35889,0.81533 -2.83856,1.2683 -4.07666,1.2683 -2.65738,0 -3.92567,-1.72126 -3.98607,-4.71081 l 8.27411,0 m -2.17422,-2.02323 -5.9489,0.15098 c 0.39257,-2.14401 1.66086,-3.35192 3.50291,-3.35192 1.50987,0 2.50639,0.87573 2.50639,2.83857 l -0.0604,0.36237"
         style="font-weight:500;font-stretch:normal;line-height:125%;writing-mode:lr-tb;font-family:Alegreya Sans;-inkscape-font-specification:Alegreya Sans Medium"
         id="path6449" />
      <path
         d="m 504.20187,-141.68479 c -3.20093,0 -5.07317,1.81185 -5.07317,4.19745 0,4.37863 6.25088,3.80489 6.25088,6.37167 0,0.90592 -0.78514,1.78165 -2.14403,1.78165 -1.1173,0 -2.65738,-0.57375 -3.86527,-1.63066 l -0.33218,0.21138 -0.36237,2.56679 c 1.38909,0.60395 2.89896,0.93612 4.22765,0.93612 3.47271,0 5.22417,-2.14403 5.22417,-4.37864 0,-4.25784 -6.25088,-3.71429 -6.25088,-6.25088 0,-0.87572 0.72474,-1.66086 1.96283,-1.66086 0.93612,0 1.99304,0.33217 3.08015,1.05691 l 0.39256,-0.0906 0.42277,-2.4158 c -1.11731,-0.45296 -2.35541,-0.69454 -3.53311,-0.69454"
         style="font-weight:500;font-stretch:normal;line-height:125%;writing-mode:lr-tb;font-family:Alegreya Sans;-inkscape-font-specification:Alegreya Sans Medium"
         id="path6451" />
      <path
         d="m 516.85321,-141.71499 c -4.16725,0 -6.49246,2.68758 -6.49246,7.45878 0,4.46922 2.20442,7.00582 6.09989,7.00582 4.16725,0 6.49246,-2.68758 6.49246,-7.45878 0,-4.46922 -2.20442,-7.00582 -6.09989,-7.00582 m -0.18119,2.14402 c 2.26481,0 3.41232,1.75146 3.41232,5.55634 0,3.17073 -1.14751,4.65041 -3.41232,4.65041 -2.29501,0 -3.44251,-1.72126 -3.44251,-5.55633 0,-3.11034 1.1475,-4.65042 3.44251,-4.65042"
         style="font-weight:500;font-stretch:normal;line-height:125%;writing-mode:lr-tb;font-family:Alegreya Sans;-inkscape-font-specification:Alegreya Sans Medium"
         id="path6453" />
      <path
         d="m 529.27004,-133.65226 0.24158,-15.06854 -3.08015,0.24157 0.18119,15.09875 -0.21139,5.85831 3.08015,0 -0.21138,-6.13009"
         style="font-weight:500;font-stretch:normal;line-height:125%;writing-mode:lr-tb;font-family:Alegreya Sans;-inkscape-font-specification:Alegreya Sans Medium"
         id="path6455" />
      <path
         d="m 544.9699,-141.50361 -2.92916,0.27178 0,9.81419 c -1.05691,0.99651 -2.20442,1.54007 -3.29153,1.54007 -1.41928,0 -2.11382,-0.90593 -2.08362,-2.3856 l 0.15098,-9.24044 -3.04994,0.27178 0.12079,6.0395 -0.0604,3.77469 c -0.0302,2.59698 1.60047,4.07666 4.65042,4.07666 1.20789,-0.33218 2.4158,-1.02672 3.62369,-2.11383 l 0.24158,0 c 0.24158,1.2079 0.96632,2.02323 2.23462,2.14402 0.72474,-0.0906 1.35889,-0.33217 1.90244,-0.66434 l 0.30197,-1.69106 -0.27177,-0.21138 c -0.42277,0.0906 -0.69455,0.12079 -0.93612,0.12079 -0.60395,0 -0.81534,-0.24158 -0.81534,-0.99652 l 0.21139,-10.75031"
         style="font-weight:500;font-stretch:normal;line-height:125%;writing-mode:lr-tb;font-family:Alegreya Sans;-inkscape-font-specification:Alegreya Sans Medium"
         id="path6457" />
      <path
         d="m 554.41039,-129.84738 c -1.2381,0 -1.78166,-0.48316 -1.75146,-1.99303 l 0.15099,-7.57957 3.89547,0 0.15099,-1.75145 -0.12079,-0.21139 -3.86528,0 0.0604,-2.98955 -0.27178,-0.24158 -2.71777,1.02672 0,2.20441 -1.84205,0 -0.15099,1.78166 0.12079,0.18118 1.90244,0 0.0302,5.88851 -0.12079,2.17422 c 0,2.3856 1.05692,3.6237 3.56331,4.01627 1.05691,-0.0906 1.99303,-0.39257 3.08014,-0.90593 l 0.30197,-1.93264 -0.30197,-0.21138 c -0.81533,0.39257 -1.47968,0.54355 -2.11382,0.54355"
         style="font-weight:500;font-stretch:normal;line-height:125%;writing-mode:lr-tb;font-family:Alegreya Sans;-inkscape-font-specification:Alegreya Sans Medium"
         id="path6459" />
      <path
         d="m 560.99863,-147.93567 c -1.08711,0 -1.75146,0.69454 -1.75146,1.75145 0,1.05691 0.60395,1.69106 1.66087,1.69106 1.02671,0 1.69105,-0.69454 1.69105,-1.78165 0,-1.02671 -0.57375,-1.66086 -1.60046,-1.66086 m 1.2079,14.31361 0.24158,-7.88155 -3.08015,0.27178 0.15099,7.88155 -0.18118,5.82811 3.08014,0 -0.21138,-6.09989"
         style="font-weight:500;font-stretch:normal;line-height:125%;writing-mode:lr-tb;font-family:Alegreya Sans;-inkscape-font-specification:Alegreya Sans Medium"
         id="path6461" />
      <path
         d="m 572.17595,-141.71499 c -4.16725,0 -6.49246,2.68758 -6.49246,7.45878 0,4.46922 2.20442,7.00582 6.09989,7.00582 4.16725,0 6.49246,-2.68758 6.49246,-7.45878 0,-4.46922 -2.20442,-7.00582 -6.09989,-7.00582 m -0.18119,2.14402 c 2.26481,0 3.41232,1.75146 3.41232,5.55634 0,3.17073 -1.14751,4.65041 -3.41232,4.65041 -2.295,0 -3.44251,-1.72126 -3.44251,-5.55633 0,-3.11034 1.14751,-4.65042 3.44251,-4.65042"
         style="font-weight:500;font-stretch:normal;line-height:125%;writing-mode:lr-tb;font-family:Alegreya Sans;-inkscape-font-specification:Alegreya Sans Medium"
         id="path6463" />
      <path
         d="m 590.05852,-127.52217 3.11034,0 -0.15099,-6.09989 0.0906,-3.92567 c 0.0302,-2.59699 -1.57028,-4.07667 -4.68061,-4.07667 -1.2079,0.36237 -2.5064,1.08712 -3.7143,2.14403 l -0.21138,0 0.0302,-2.02324 -2.92916,0.27178 0.15099,7.88155 -0.18118,5.82811 3.08014,0 -0.18119,-6.09989 0.0302,-3.68409 c 1.1777,-1.14751 2.4158,-1.81185 3.6237,-1.81185 1.44948,0 2.17422,0.93612 2.14402,2.44599 l -0.21138,9.14984"
         style="font-weight:500;font-stretch:normal;line-height:125%;writing-mode:lr-tb;font-family:Alegreya Sans;-inkscape-font-specification:Alegreya Sans Medium"
         id="path6465" />
    </g>
    <g
       transform="translate(132.08767,-422.31031)"
       style="font-size:40px;font-style:normal;font-variant:normal;font-weight:bold;font-stretch:condensed;line-height:125%;letter-spacing:0px;word-spacing:0px;fill:#000000;fill-opacity:1;stroke:none;font-family:Folio Std;-inkscape-font-specification:Folio Std Bold Condensed"
       id="flowRoot5696">
      <path
         d="m 152.84,152.55125 c 3.56,-1.4 5.56,-4.24 5.56,-7.96 0,-4.64 -2.72,-7.16 -7.56,-7.16 l -6.8,0.04 0.12,17.8 -0.12,7.76 2.08,0 -0.08,-7.88 0,-2.12 5.04,0 c 2,3.44 4.24,6.84 6.56,10.16 l 0.32,0.16 c 0.64,-0.12 1.2,-0.24 1.8,-0.52 l 0,-0.28 c -2.48,-3.28 -4.8,-6.6 -6.92,-10 m -6.76,-1.36 0.08,-11.92 4.44,-0.08 c 3.68,0.12 5.68,1.96 5.68,5.52 0,3.44 -1.76,5.68 -5,6.56 l -5.2,-0.08"
         style="font-weight:300;font-stretch:normal;font-family:Alegreya Sans;-inkscape-font-specification:Alegreya Sans Light"
         id="path6396" />
      <path
         d="m 169.92187,144.59125 c -4.87999,0 -8.04,3.64001 -8.04,9.52 0,5.59999 2.88001,9.16 7.76,9.16 1.92,0 3.80001,-0.6 5.36,-1.6 l 0.24,-1.8 -0.32,-0.12 c -1.47999,1.16 -3.4,1.8 -5.12,1.8 -3.87999,0 -5.96,-2.92 -5.96,-7.56 l 0,-0.64 11.64,-0.2 0.48,-0.4 c 0.04,-0.4 0.08,-1.16 0.08,-1.52 0,-4.12 -2.28,-6.64 -6.12,-6.64 m 4.16,6.96 -10.08,0.28 c 0.6,-3.56 2.68001,-5.68 5.76,-5.68 2.64,0 4.4,1.68 4.4,4.88 l -0.08,0.52"
         style="font-weight:300;font-stretch:normal;font-family:Alegreya Sans;-inkscape-font-specification:Alegreya Sans Light"
         id="path6398" />
      <path
         d="m 186.61625,144.55125 c -2.12,0 -4.32,0.92 -6.44,2.6 l 0.32,1.48 0.24,0.12 c 2,-1.72 3.88,-2.6 5.6,-2.6 2.24,0 3.52,1.24 3.52,3.52 l -0.08,3.24 -6.64,1.56 c -2.24,0.52 -3.52,1.84 -3.52,4.04 0,2.96 1.88,4.76 5.12,4.76 1.64,-0.32 3.28,-1.44 4.72,-3.08 l 0.2,0 c 0.08,2 0.96,2.96 2.52,3 0.72,-0.04 1.44,-0.28 2.04,-0.64 l 0.24,-1.32 -0.28,-0.2 c -0.56,0.28 -1.08,0.4 -1.52,0.4 -0.96,0 -1.32,-0.52 -1.32,-1.88 0,-1.2 0.44,-9.12 0.44,-10.32 0,-2.96 -1.92,-4.68 -5.16,-4.68 m 3.12,9.84 -0.16,3.88 c -1.56,2.04 -3.28,3.24 -4.92,3.24 -1.96,0 -3.16,-1.2 -3.16,-3.24 0,-1.32 0.72,-2.08 2.04,-2.4 l 6.2,-1.48"
         style="font-weight:300;font-stretch:normal;font-family:Alegreya Sans;-inkscape-font-specification:Alegreya Sans Light"
         id="path6400" />
      <path
         d="m 203.74125,144.63125 c -3.6,0 -5.84,2.08 -5.84,4.88 0,5.51999 8.6,4.76 8.6,8.84 0,1.68 -1.48,3.36 -4.08,3.36 -1.48,0 -3.2,-0.6 -4.56,-1.72 l -0.28,0.16 -0.28,1.8 c 1.48,0.84 3.28,1.32 5,1.32 3.8,0 6.12,-2.44 6.12,-5.24 0,-5.35999 -8.6,-4.6 -8.6,-8.68 0,-1.68 1.44,-3.16 3.72,-3.16 1.12,0 2.32,0.32 3.64,1.08 l 0.36,-0.08 0.32,-1.72 c -1.44,-0.6 -2.88,-0.84 -4.12,-0.84"
         style="font-weight:300;font-stretch:normal;font-family:Alegreya Sans;-inkscape-font-specification:Alegreya Sans Light"
         id="path6402" />
      <path
         d="m 220.2325,144.55125 c -5,0 -7.96,3.56001 -7.96,9.6 0,5.71999 2.8,9.12 7.6,9.12 5.03999,0 8,-3.56001 8,-9.56 0,-5.75999 -2.84,-9.16 -7.64,-9.16 m -0.08,1.56 c 3.64,0 5.76,2.88001 5.76,8 0,4.88 -2.16,7.6 -5.96,7.6 -3.6,0 -5.72,-2.80001 -5.72,-7.96 0,-4.84 2.16,-7.64 5.92,-7.64"
         style="font-weight:300;font-stretch:normal;font-family:Alegreya Sans;-inkscape-font-specification:Alegreya Sans Light"
         id="path6404" />
      <path
         d="m 244.88375,163.03125 2.08,0 -0.08,-7.88 0.04,-5.12 c 0.04,-3.44 -1.96,-5.44 -5.68,-5.44 -1.8,0.2 -3.84,1.32 -5.64,3.08 l -0.2,0 0,-2.92 -1.96,0.24 0.08,10.24 -0.12,7.8 2.08,0 -0.12,-7.92 0.04,-5.4 c 1.84,-2.12 3.96,-3.32 5.88,-3.32 2.44,0 3.76,1.52 3.72,4.04 l -0.12,12.6"
         style="font-weight:300;font-stretch:normal;font-family:Alegreya Sans;-inkscape-font-specification:Alegreya Sans Light"
         id="path6406" />
      <path
         d="m 254.87437,137.11125 c -0.83999,0 -1.36,0.56 -1.36,1.4 0,0.84 0.48001,1.32 1.32,1.32 0.84,0 1.36,-0.52 1.36,-1.4 0,-0.8 -0.48,-1.32 -1.32,-1.32 m 0.84,18 0.16,-10.36 -2.08,0.24 0.12,10.24 -0.12,7.8 2.04,0 -0.12,-7.92"
         style="font-weight:300;font-stretch:normal;font-family:Alegreya Sans;-inkscape-font-specification:Alegreya Sans Light"
         id="path6408" />
      <path
         d="m 274.49313,163.03125 2.07999,0 -0.08,-7.88 0.04,-5.12 c 0.04,-3.44 -1.96,-5.44 -5.68,-5.44 -1.79999,0.2 -3.84,1.32 -5.64,3.08 l -0.2,0 0,-2.92 -1.95999,0.24 0.08,10.24 -0.12,7.8 2.08,0 -0.12,-7.92 0.04,-5.4 c 1.84,-2.12 3.96001,-3.32 5.88,-3.32 2.44,0 3.76,1.52 3.72001,4.04 l -0.12,12.6"
         style="font-weight:300;font-stretch:normal;font-family:Alegreya Sans;-inkscape-font-specification:Alegreya Sans Light"
         id="path6410" />
      <path
         d="m 298.68375,144.39125 -0.24,-0.16 c -1.6,0.44 -3.64,0.88 -5.48,1.24 -1,-0.56 -2.24,-0.84 -3.68,-0.84 -4.16,0 -6.76,2.36 -6.76,6.32 0,2.32 0.88,4.08 2.56,5.12 l 0,0.12 c -1.16,0.76 -2.04,1.6 -2.4,2.4 0,1.72 1.4,2.52 3.24,3 l 0,0.2 c -2,1.16 -3.24,2.32 -3.8,4 0,2.84 2.4,4.92 6.52,4.92 4.56,0 8.32,-2.6 8.32,-5.76 0,-5.71999 -12.28,-3.36 -12.28,-6.44 0,-0.56 0.36,-1 1.56,-1.92 0.84,0.28 1.76,0.44 2.8,0.44 4.2,0 6.76,-2.44 6.76,-6.28 0,-1.52 -0.4,-2.84 -1.16,-3.84 l 0.04,-0.12 c 1.32,-0.24 2.64,-0.52 4,-0.88 l 0,-1.52 m -9.56,11.12 c -3,0 -4.72,-1.76 -4.72,-4.64 0,-3 1.8,-4.72 4.84,-4.72 3,0 4.68,1.68 4.68,4.6 0,3 -1.8,4.76 -4.8,4.76 m 5.96,9.72 c 0,2.12 -2.76,3.96 -6.24,3.96 -3.16,0 -4.84,-1.48 -4.84,-3.12 0,-1.6 1.56,-2.88 3.8,-4.12 3.44,0.56 7.28,0.76 7.28,3.28"
         style="font-weight:300;font-stretch:normal;font-family:Alegreya Sans;-inkscape-font-specification:Alegreya Sans Light"
         id="path6412" />
      <path
         d="m 314.8975,144.55125 c -2.12,0 -4.32,0.92 -6.44,2.6 l 0.32,1.48 0.24,0.12 c 2,-1.72 3.88,-2.6 5.6,-2.6 2.24,0 3.52,1.24 3.52,3.52 l -0.08,3.24 -6.64,1.56 c -2.24,0.52 -3.52,1.84 -3.52,4.04 0,2.96 1.88,4.76 5.12,4.76 1.64,-0.32 3.28,-1.44 4.72,-3.08 l 0.2,0 c 0.08,2 0.96,2.96 2.52,3 0.72,-0.04 1.44,-0.28 2.04,-0.64 l 0.24,-1.32 -0.28,-0.2 c -0.56,0.28 -1.08,0.4 -1.52,0.4 -0.96,0 -1.32,-0.52 -1.32,-1.88 0,-1.2 0.44,-9.12 0.44,-10.32 0,-2.96 -1.92,-4.68 -5.16,-4.68 m 3.12,9.84 -0.16,3.88 c -1.56,2.04 -3.28,3.24 -4.92,3.24 -1.96,0 -3.16,-1.2 -3.16,-3.24 0,-1.32 0.72,-2.08 2.04,-2.4 l 6.2,-1.48"
         style="font-weight:300;font-stretch:normal;font-family:Alegreya Sans;-inkscape-font-specification:Alegreya Sans Light"
         id="path6414" />
      <path
         d="m 335.4625,144.63125 c -2.08,0.28 -3.8,1.16 -5.48,2.8 l -0.2,0 0.08,-12.48 -2.04,0.2 0.12,20.16 -0.16,7.72 0.4,0.24 1.48,-0.72 c 1.32,0.48 2.72,0.76 4.08,0.76 5.43999,0 8.64,-3.60001 8.64,-9.88 0,-5.51999 -2.44,-8.8 -6.92,-8.8 m -1.56,17.08 c -1.24,0 -2.6,-0.36 -4.08,-1.12 l -0.08,-5.48 0.04,-5.64 c 1.72,-2.08 3.56,-3.08 5.52,-3.08 3.24,0 5.08,2.64 5.12,7.2 0.04,5.31999 -2.44,8.12 -6.52,8.12"
         style="font-weight:300;font-stretch:normal;font-family:Alegreya Sans;-inkscape-font-specification:Alegreya Sans Light"
         id="path6416" />
      <path
         d="m 354.295,144.55125 c -5,0 -7.96,3.56001 -7.96,9.6 0,5.71999 2.8,9.12 7.6,9.12 5.03999,0 8,-3.56001 8,-9.56 0,-5.75999 -2.84,-9.16 -7.64,-9.16 m -0.08,1.56 c 3.64,0 5.76,2.88001 5.76,8 0,4.88 -2.16,7.6 -5.96,7.6 -3.6,0 -5.72,-2.80001 -5.72,-7.96 0,-4.84 2.16,-7.64 5.92,-7.64"
         style="font-weight:300;font-stretch:normal;font-family:Alegreya Sans;-inkscape-font-specification:Alegreya Sans Light"
         id="path6418" />
      <path
         d="m 380.26625,144.75125 -2,0.24 0,13.44 c -1.84,1.96 -3.8,3 -5.64,3 -2.32,0 -3.56,-1.48 -3.52,-4.04 l 0.12,-12.64 -2.08,0.24 0.08,8.44 -0.04,4.36 c -0.04,3.48 1.88,5.44 5.4,5.44 1.92,-0.2 3.84,-1.24 5.64,-3.04 l 0.24,0 c 0.12,1.96 0.96,2.96 2.48,3 0.72,-0.04 1.44,-0.28 2.04,-0.64 l 0.24,-1.32 -0.28,-0.2 c -0.56,0.28 -1.08,0.4 -1.48,0.4 -0.92,0 -1.32,-0.56 -1.32,-1.96 l 0.12,-14.72"
         style="font-weight:300;font-stretch:normal;font-family:Alegreya Sans;-inkscape-font-specification:Alegreya Sans Light"
         id="path6420" />
      <path
         d="m 392.73875,161.43125 c -1.84,0 -2.76,-1.04 -2.76,-3.36 l 0.12,-11.72 5.8,0 0.16,-1.28 -0.16,-0.2 -5.8,0 0.04,-4.16 -0.24,-0.2 -1.76,0.72 0,3.64 -2.48,0 -0.16,1.28 0.16,0.2 2.48,0 0.04,8.32 -0.08,3.6 c 0,3.04 1.32,4.64 4.08,4.96 1.12,-0.04 2.28,-0.4 3.6,-1.08 l 0.2,-1.44 -0.24,-0.2 c -1.12,0.64 -2.12,0.92 -3,0.92"
         style="font-weight:300;font-stretch:normal;font-family:Alegreya Sans;-inkscape-font-specification:Alegreya Sans Light"
         id="path6422" />
      <path
         d="m 407.25625,160.43125 c -0.84,0 -1.36,0.56 -1.36,1.4 0,0.84 0.48,1.32 1.32,1.32 0.84,0 1.36,-0.52 1.36,-1.4 0,-0.8 -0.48,-1.32 -1.32,-1.32"
         style="font-weight:300;font-stretch:normal;font-family:Alegreya Sans;-inkscape-font-specification:Alegreya Sans Light"
         id="path6424" />
      <path
         d="m 416.475,160.43125 c -0.84,0 -1.36,0.56 -1.36,1.4 0,0.84 0.48,1.32 1.32,1.32 0.84,0 1.36,-0.52 1.36,-1.4 0,-0.8 -0.48,-1.32 -1.32,-1.32"
         style="font-weight:300;font-stretch:normal;font-family:Alegreya Sans;-inkscape-font-specification:Alegreya Sans Light"
         id="path6426" />
      <path
         d="m 425.69375,160.43125 c -0.84,0 -1.36,0.56 -1.36,1.4 0,0.84 0.48,1.32 1.32,1.32 0.84,0 1.36,-0.52 1.36,-1.4 0,-0.8 -0.48,-1.32 -1.32,-1.32"
         style="font-weight:300;font-stretch:normal;font-family:Alegreya Sans;-inkscape-font-specification:Alegreya Sans Light"
         id="path6428" />
    </g>
    <g
       transform="matrix(0.7923588,0,0,0.7923588,113.90257,-329.63719)"
       style="font-size:40px;font-style:normal;font-variant:normal;font-weight:bold;font-stretch:condensed;line-height:125%;letter-spacing:0px;word-spacing:0px;fill:#000000;fill-opacity:1;stroke:none;font-family:Folio Std;-inkscape-font-specification:Folio Std Bold Condensed"
       id="flowRoot5704">
      <path
         d="m 130.12,411.59375 -1.96,-20.04 -4.36,0 -1,2.92 -4,9.92 -0.28,0 -3.76,-9.88 -0.92,-2.96 -4.48,0 -2.16,20.04 3.24,0 0.52,-6.44 0.88,-7.8 0.32,0 4.8,12.12 3,0 5.2,-12.12 0.24,0 0.92,8.16 0.4,6.08 3.4,0"
         style="font-weight:500;font-stretch:normal;text-align:start;line-height:125%;writing-mode:lr-tb;text-anchor:start;font-family:Alegreya Sans SC;-inkscape-font-specification:Alegreya Sans SC Medium"
         id="path6367" />
      <path
         d="m 139.34375,405.23375 0.2,-13.68 -3.88,0 0.16,14.04 -0.16,6 3.84,0 -0.16,-6.36"
         style="font-weight:500;font-stretch:normal;text-align:start;line-height:125%;writing-mode:lr-tb;text-anchor:start;font-family:Alegreya Sans SC;-inkscape-font-specification:Alegreya Sans SC Medium"
         id="path6369" />
      <path
         d="m 146.36687,391.55375 0.16,14.04 -0.16,6 3.84,0 -0.16,-6.36 0,-0.24 2.28,0 c 5.16,0 8.44,-2.8 8.44,-7.4 0,-3.92 -2.48,-6.08 -6.79999,-6.08 l -7.60001,0.04 m 3.72,10.48 0.12,-7.52 2.6,-0.08 c 2.6,0.12 3.92,1.16 3.92,3.48 0,2.36 -1.16,3.72 -3.44,4.2 l -3.2,-0.08"
         style="font-weight:500;font-stretch:normal;text-align:start;line-height:125%;writing-mode:lr-tb;text-anchor:start;font-family:Alegreya Sans SC;-inkscape-font-specification:Alegreya Sans SC Medium"
         id="path6371" />
      <path
         d="m 180.11375,391.31375 c -6.31999,0 -9.92,3.72001 -9.92,10.4 0,6.51999 3.36001,10.16 9.48,10.16 2.08,0 3.8,-0.44 5.52,-1.24 l 0.32,-3.4 -0.4,-0.2 c -1.44,1 -3.4,1.64 -5.24,1.64 -3.64,0 -5.64,-2.52 -5.64,-7.32 0,-4.68 1.96,-6.88 5.52,-6.88 1.92,0 3.72,0.64 5,1.64 l 0.36,-0.12 0.72,-3.4 c -1.6,-0.84 -3.56,-1.28 -5.72,-1.28"
         style="font-weight:500;font-stretch:normal;text-align:start;line-height:125%;writing-mode:lr-tb;text-anchor:start;font-family:Alegreya Sans SC;-inkscape-font-specification:Alegreya Sans SC Medium"
         id="path6373" />
      <path
         d="m 198.16062,391.27375 c -6.35999,0 -9.92,3.80001 -9.92,10.52 0,6.43999 3.32001,10.12 9.24,10.12 6.32,0 9.92,-3.88001 9.92,-10.8 0,-6.23999 -3.36,-9.84 -9.24,-9.84 m -0.36,3.16 c 3.88,0 5.6,2.08001 5.6,7.44 0,4.96 -1.8,6.92 -5.64,6.92 -3.79999,0 -5.52,-2.04001 -5.52,-7.48 0,-4.92 1.76001,-6.88 5.56,-6.88"
         style="font-weight:500;font-stretch:normal;text-align:start;line-height:125%;writing-mode:lr-tb;text-anchor:start;font-family:Alegreya Sans SC;-inkscape-font-specification:Alegreya Sans SC Medium"
         id="path6375" />
      <path
         d="m 229.46437,405.47375 0.2,-14 -3.56,0.2 0.12,13.96 -0.32,0 -9.48,-14.08 -4.07999,0 0.11999,14.16 -0.16,5.88 3.48,0 -0.12,-6.8 0.04,-7.28 0.24,0 9.48,14.08 4.16,0 -0.12,-6.12"
         style="font-weight:500;font-stretch:normal;text-align:start;line-height:125%;writing-mode:lr-tb;text-anchor:start;font-family:Alegreya Sans SC;-inkscape-font-specification:Alegreya Sans SC Medium"
         id="path6377" />
      <path
         d="m 242.72875,391.31375 c -4.64,0 -7.44,2.68 -7.44,6 0,6.11999 9.28,5.44 9.28,9.08 0,1.4 -1.28,2.56 -3.24,2.56 -1.68,0 -4,-0.84 -5.64,-2.48 l -0.44,0.24 -0.52,3.88 c 2.04,0.88 4.32,1.28 6.12,1.28 4.99999,0 7.52,-3 7.52,-6.16 0,-6.07999 -9.32,-5.44 -9.32,-8.96 0,-1.24 1.12,-2.52 3.2,-2.52 1.4,0 2.84,0.6 4.4,1.84 l 0.6,-0.12 0.6,-3.64 c -1.64,-0.64 -3.48,-1 -5.12,-1"
         style="font-weight:500;font-stretch:normal;text-align:start;line-height:125%;writing-mode:lr-tb;text-anchor:start;font-family:Alegreya Sans SC;-inkscape-font-specification:Alegreya Sans SC Medium"
         id="path6379" />
      <path
         d="m 266.2075,391.87375 -0.2,-0.32 -14.92,0 -0.28,3.08 0.28,0.32 3.96,-0.28 1.64,0 0.08,10.92 -0.16,6 3.84,0 -0.12,-6.36 0.08,-10.56 1.68,0 3.88,0.28 0.24,-3.08"
         style="font-weight:500;font-stretch:normal;text-align:start;line-height:125%;writing-mode:lr-tb;text-anchor:start;font-family:Alegreya Sans SC;-inkscape-font-specification:Alegreya Sans SC Medium"
         id="path6381" />
      <path
         d="m 281.02375,403.59375 c 2.56,-1.36 4.04,-3.56 4.04,-6.2 0,-3.76 -2.48,-5.88 -6.8,-5.88 l -7.6,0.04 0.16,14.04 -0.16,6 3.84,0 -0.16,-6.36 0,-0.56 3.52,-0.04 c 1.28,2.36 2.72,4.64 4.12,6.88 l 0.6,0.36 c 1.24,-0.08 2.44,-0.36 3.64,-0.72 l 0.04,-0.48 c -1.88,-2.32 -3.64,-4.68 -5.24,-7.08 m -6.64,-2 0.12,-7.04 2.64,-0.08 c 2.6,0.12 3.88,1.08 3.88,3.28 0,2.08 -1.08,3.36 -3.16,3.96 l -3.48,-0.12"
         style="font-weight:500;font-stretch:normal;text-align:start;line-height:125%;writing-mode:lr-tb;text-anchor:start;font-family:Alegreya Sans SC;-inkscape-font-specification:Alegreya Sans SC Medium"
         id="path6383" />
      <path
         d="m 307.21625,411.59375 -6.76,-20.04 -4.48,0 -7.48,20.04 3.8,0 0.56,-2.68 0.76,-2 4,-0.04 4.48,0.04 0.72,2.2 0.52,2.48 3.88,0 m -6.12,-7.68 -3.2,0.04 -3.16,-0.04 3.24,-8.76 0.28,0 2.84,8.76"
         style="font-weight:500;font-stretch:normal;text-align:start;line-height:125%;writing-mode:lr-tb;text-anchor:start;font-family:Alegreya Sans SC;-inkscape-font-specification:Alegreya Sans SC Medium"
         id="path6385" />
      <path
         d="m 315.4375,405.23375 0.2,-13.68 -3.88,0 0.16,14.04 -0.16,6 3.84,0 -0.16,-6.36"
         style="font-weight:500;font-stretch:normal;text-align:start;line-height:125%;writing-mode:lr-tb;text-anchor:start;font-family:Alegreya Sans SC;-inkscape-font-specification:Alegreya Sans SC Medium"
         id="path6387" />
      <path
         d="m 339.62063,405.47375 0.19999,-14 -3.56,0.2 0.12,13.96 -0.31999,0 -9.48001,-14.08 -4.07999,0 0.12,14.16 -0.16001,5.88 3.48,0 -0.12,-6.8 0.04,-7.28 0.23999,0 9.48,14.08 4.16001,0 -0.12,-6.12"
         style="font-weight:500;font-stretch:normal;text-align:start;line-height:125%;writing-mode:lr-tb;text-anchor:start;font-family:Alegreya Sans SC;-inkscape-font-specification:Alegreya Sans SC Medium"
         id="path6389" />
      <path
         d="m 359.645,391.87375 -0.2,-0.32 -14.92,0 -0.28,3.08 0.28,0.32 3.96,-0.28 1.64,0 0.08,10.92 -0.16,6 3.84,0 -0.12,-6.36 0.08,-10.56 1.68,0 3.88,0.28 0.24,-3.08"
         style="font-weight:500;font-stretch:normal;text-align:start;line-height:125%;writing-mode:lr-tb;text-anchor:start;font-family:Alegreya Sans SC;-inkscape-font-specification:Alegreya Sans SC Medium"
         id="path6391" />
      <path
         d="m 369.91625,391.31375 c -4.64,0 -7.44,2.68 -7.44,6 0,6.11999 9.28,5.44 9.28,9.08 0,1.4 -1.28,2.56 -3.24,2.56 -1.68,0 -4,-0.84 -5.64,-2.48 l -0.44,0.24 -0.52,3.88 c 2.04,0.88 4.32,1.28 6.12,1.28 4.99999,0 7.52,-3 7.52,-6.16 0,-6.07999 -9.32,-5.44 -9.32,-8.96 0,-1.24 1.12,-2.52 3.2,-2.52 1.4,0 2.84,0.6 4.4,1.84 l 0.6,-0.12 0.6,-3.64 c -1.64,-0.64 -3.48,-1 -5.12,-1"
         style="font-weight:500;font-stretch:normal;text-align:start;line-height:125%;writing-mode:lr-tb;text-anchor:start;font-family:Alegreya Sans SC;-inkscape-font-specification:Alegreya Sans SC Medium"
         id="path6393" />
    </g>
    <g
       transform="matrix(0.7923588,0,0,0.7923588,371.33434,-329.63719)"
       style="font-size:40px;font-style:normal;font-variant:normal;font-weight:bold;font-stretch:condensed;line-height:125%;letter-spacing:0px;word-spacing:0px;fill:#000000;fill-opacity:1;stroke:none;font-family:Folio Std;-inkscape-font-specification:Folio Std Bold Condensed"
       id="flowRoot5704-6">
      <path
         d="m 124.56,411.59375 -6.76,-20.04 -4.48,0 -7.48,20.04 3.8,0 0.56,-2.68 0.76,-2 4,-0.04 4.48,0.04 0.72,2.2 0.52,2.48 3.88,0 m -6.12,-7.68 -3.2,0.04 -3.16,-0.04 3.24,-8.76 0.28,0 2.84,8.76"
         style="font-weight:500;font-stretch:normal;text-align:start;line-height:125%;writing-mode:lr-tb;text-anchor:start;font-family:Alegreya Sans SC;-inkscape-font-specification:Alegreya Sans SC Medium"
         id="path6348" />
      <path
         d="m 140.38125,408.71375 -0.24,-0.32 -7.4,0 -0.04,-3.16 0.2,-13.68 -3.92,0 0.16,14.04 -0.16,6 11.12,0 0.28,-2.88"
         style="font-weight:500;font-stretch:normal;text-align:start;line-height:125%;writing-mode:lr-tb;text-anchor:start;font-family:Alegreya Sans SC;-inkscape-font-specification:Alegreya Sans SC Medium"
         id="path6350" />
      <path
         d="m 152.16562,391.31375 c -6.79999,0 -10.8,3.72001 -10.8,10.68 0,6.23999 3.24001,9.88 9.84,9.88 2.08,0 4.36001,-0.4 7.12,-1.24 l 0,-4.88 0.04,-2.64 -3.52,0.24 0.04,3 0,1.68 c -1.51999,0.56 -2.36,0.72 -3.48,0.72 -4.19999,0 -6,-1.88001 -6,-6.92 0,-5.27999 2.00001,-7.36 6.08,-7.36 1.96,0 3.44001,0.48 5.44,1.72 l 0.4,0 1.16,-3.64 c -2.15999,-0.84 -4.12,-1.24 -6.32,-1.24"
         style="font-weight:500;font-stretch:normal;text-align:start;line-height:125%;writing-mode:lr-tb;text-anchor:start;font-family:Alegreya Sans SC;-inkscape-font-specification:Alegreya Sans SC Medium"
         id="path6352" />
      <path
         d="m 172.22312,391.27375 c -6.35999,0 -9.92,3.80001 -9.92,10.52 0,6.43999 3.32001,10.12 9.24,10.12 6.32,0 9.92,-3.88001 9.92,-10.8 0,-6.23999 -3.36,-9.84 -9.24,-9.84 m -0.36,3.16 c 3.88,0 5.6,2.08001 5.6,7.44 0,4.96 -1.8,6.92 -5.64,6.92 -3.79999,0 -5.52,-2.04001 -5.52,-7.48 0,-4.92 1.76001,-6.88 5.56,-6.88"
         style="font-weight:500;font-stretch:normal;text-align:start;line-height:125%;writing-mode:lr-tb;text-anchor:start;font-family:Alegreya Sans SC;-inkscape-font-specification:Alegreya Sans SC Medium"
         id="path6354" />
      <path
         d="m 196.72687,403.59375 c 2.56,-1.36 4.04,-3.56 4.04,-6.2 0,-3.76 -2.48,-5.88 -6.79999,-5.88 l -7.60001,0.04 0.16,14.04 -0.16,6 3.84,0 -0.16,-6.36 0,-0.56 3.52,-0.04 c 1.28,2.36 2.72001,4.64 4.12,6.88 l 0.6,0.36 c 1.24,-0.08 2.44001,-0.36 3.64,-0.72 l 0.04,-0.48 c -1.88,-2.32 -3.64001,-4.68 -5.24001,-7.08 m -6.64,-2 0.12,-7.04 2.64,-0.08 c 2.6,0.12 3.88,1.08 3.88,3.28 0,2.08 -1.08,3.36 -3.16,3.96 l -3.48,-0.12"
         style="font-weight:500;font-stretch:normal;text-align:start;line-height:125%;writing-mode:lr-tb;text-anchor:start;font-family:Alegreya Sans SC;-inkscape-font-specification:Alegreya Sans SC Medium"
         id="path6356" />
      <path
         d="m 210.35937,405.23375 0.2,-13.68 -3.88,0 0.16,14.04 -0.16,6 3.84,0 -0.16,-6.36"
         style="font-weight:500;font-stretch:normal;text-align:start;line-height:125%;writing-mode:lr-tb;text-anchor:start;font-family:Alegreya Sans SC;-inkscape-font-specification:Alegreya Sans SC Medium"
         id="path6358" />
      <path
         d="m 230.5825,391.87375 -0.2,-0.32 -14.92,0 -0.28,3.08 0.28,0.32 3.96,-0.28 1.64,0 0.08,10.92 -0.16,6 3.84,0 -0.12,-6.36 0.08,-10.56 1.68,0 3.88,0.28 0.24,-3.08"
         style="font-weight:500;font-stretch:normal;text-align:start;line-height:125%;writing-mode:lr-tb;text-anchor:start;font-family:Alegreya Sans SC;-inkscape-font-specification:Alegreya Sans SC Medium"
         id="path6360" />
      <path
         d="m 252.23875,405.23375 0.2,-13.68 -3.88,0 0.08,8.36 -4.88,0.04 -4.96,-0.08 0.12,-8.32 -3.88,0 0.16,14.04 -0.16,6 3.84,0 -0.16,-6.36 0.04,-2 4.72,-0.08 5.16,0.04 0.04,2.4 -0.12,6 3.84,0 -0.16,-6.36"
         style="font-weight:500;font-stretch:normal;text-align:start;line-height:125%;writing-mode:lr-tb;text-anchor:start;font-family:Alegreya Sans SC;-inkscape-font-specification:Alegreya Sans SC Medium"
         id="path6362" />
      <path
         d="m 280.82312,411.59375 -1.96,-20.04 -4.36,0 -1,2.92 -4,9.92 -0.28,0 -3.76,-9.88 -0.92,-2.96 -4.47999,0 -2.16001,20.04 3.24,0 0.52,-6.44 0.88,-7.8 0.32001,0 4.79999,12.12 3,0 5.20001,-12.12 0.23999,0 0.92,8.16 0.40001,6.08 3.39999,0"
         style="font-weight:500;font-stretch:normal;text-align:start;line-height:125%;writing-mode:lr-tb;text-anchor:start;font-family:Alegreya Sans SC;-inkscape-font-specification:Alegreya Sans SC Medium"
         id="path6364" />
    </g>
    <path
       inkscape:connector-curvature="0"
       id="path5751"
       d="m 302.15625,-88.84375 0,44.28125 6,0 0,-44.28125 -6,0 z"
       style="font-size:medium;font-style:normal;font-variant:normal;font-weight:normal;font-stretch:normal;text-indent:0;text-align:start;text-decoration:none;line-height:normal;letter-spacing:normal;word-spacing:normal;text-transform:none;direction:ltr;block-progression:tb;writing-mode:lr-tb;text-anchor:start;baseline-shift:baseline;color:#000000;fill:#000000;fill-opacity:1;stroke:none;stroke-width:6;marker:none;visibility:visible;display:inline;overflow:visible;enable-background:accumulate;font-family:Sans;-inkscape-font-specification:Sans" />
    <path
       id="path6522"
       d="m 305.16066,-49.166466 -8.5,-6.24284 8.5,21.849941 8.5,-21.849941 -8.5,6.24284 z"
       style="fill-rule:evenodd;stroke:#000000;stroke-width:0.2pt"
       inkscape:connector-curvature="0" />
    <path
       inkscape:connector-curvature="0"
       id="path5751-1"
       d="m 521.53125,-88.84375 0,44.28125 6,0 0,-44.28125 -6,0 z"
       style="font-size:medium;font-style:normal;font-variant:normal;font-weight:normal;font-stretch:normal;text-indent:0;text-align:start;text-decoration:none;line-height:normal;letter-spacing:normal;word-spacing:normal;text-transform:none;direction:ltr;block-progression:tb;writing-mode:lr-tb;text-anchor:start;baseline-shift:baseline;color:#000000;fill:#000000;fill-opacity:1;stroke:none;stroke-width:6;marker:none;visibility:visible;display:inline;overflow:visible;enable-background:accumulate;font-family:Sans;-inkscape-font-specification:Sans" />
    <path
       id="path6530"
       d="m 524.52232,-49.324412 -8.78766,-6.453433 8.78766,22.587018 8.78766,-22.587018 -8.78766,6.453433 z"
       style="fill-rule:evenodd;stroke:#000000;stroke-width:0.2pt"
       inkscape:connector-curvature="0" />
    <path
       style="font-size:medium;font-style:normal;font-variant:normal;font-weight:normal;font-stretch:normal;text-indent:0;text-align:start;text-decoration:none;line-height:normal;letter-spacing:normal;word-spacing:normal;text-transform:none;direction:ltr;block-progression:tb;writing-mode:lr-tb;text-anchor:start;baseline-shift:baseline;color:#000000;fill:#000000;fill-opacity:1;stroke:none;stroke-width:2;marker:none;visibility:visible;display:inline;overflow:visible;enable-background:accumulate;font-family:Sans;-inkscape-font-specification:Sans"
       d="m 430.28125,-221.34375 0,1 0,131.375 0,1 1,0 186.46875,0 1,0 0,-1 0,-131.375 0,-1 -1,0 -186.46875,0 -1,0 z m 2,2 184.46875,0 0,129.375 -184.46875,0 0,-129.375 z"
       id="rect5586-6"
       inkscape:connector-curvature="0" />
  </g>
</svg>
