<?xml version="1.0" encoding="UTF-8" standalone="no"?>
<!-- Created with Inkscape (http://www.inkscape.org/) -->

<svg
   xmlns:dc="http://purl.org/dc/elements/1.1/"
   xmlns:cc="http://creativecommons.org/ns#"
   xmlns:rdf="http://www.w3.org/1999/02/22-rdf-syntax-ns#"
   xmlns:svg="http://www.w3.org/2000/svg"
   xmlns="http://www.w3.org/2000/svg"
   xmlns:sodipodi="http://sodipodi.sourceforge.net/DTD/sodipodi-0.dtd"
   xmlns:inkscape="http://www.inkscape.org/namespaces/inkscape"
   version="1.2"
   width="6.1379352"
   height="13.629643"
   id="svg2"
   inkscape:version="0.48.4 r9939"
   sodipodi:docname="sbrack.svg">
  <sodipodi:namedview
     pagecolor="#ffffff"
     bordercolor="#666666"
     borderopacity="1"
     objecttolerance="10"
     gridtolerance="10"
     guidetolerance="10"
     inkscape:pageopacity="0"
     inkscape:pageshadow="2"
     inkscape:window-width="640"
     inkscape:window-height="480"
     id="namedview3086"
     showgrid="false"
     fit-margin-top="0.2"
     fit-margin-left="0.2"
     fit-margin-right="0.2"
     fit-margin-bottom="0.2"
     inkscape:zoom="35.677453"
     inkscape:cx="0.84500685"
     inkscape:cy="4.5174771"
     inkscape:window-x="0"
     inkscape:window-y="23"
     inkscape:window-maximized="0"
     inkscape:current-layer="svg2" />
  <defs
     id="defs4" />
  <metadata
     id="metadata7">
    <rdf:RDF>
      <cc:Work
         rdf:about="">
        <dc:format>image/svg+xml</dc:format>
        <dc:type
           rdf:resource="http://purl.org/dc/dcmitype/StillImage" />
        <dc:title />
      </cc:Work>
    </rdf:RDF>
  </metadata>
  <g
     transform="translate(-126.27959,-505.32345)"
     id="layer1">
    <g
       transform="matrix(0.15343203,0,0,0.33074109,169.00343,343.36246)"
       id="flowRoot2993"
       style="font-size:40px;font-style:normal;font-variant:normal;font-weight:bold;font-stretch:condensed;line-height:125%;letter-spacing:0px;word-spacing:0px;fill:#000000;fill-opacity:1;stroke:none;font-family:Folio Std;-inkscape-font-specification:Folio Std Bold Condensed">
      <path
         d="m -239.75375,529.57587 c 0,-0.52 -0.2,-0.68 -0.68,-0.72 -3.36,-0.2 -4.84,-1.6 -5.32,-3.04 -0.12,-0.4 -0.12,-0.72 -0.12,-1.4 l 0,-9.48 c -0.04,-1.68 -1.32,-3.72 -4.76,-4.64 4.76,-1.28 4.76,-4.04 4.76,-5.84 l 0,-8.4 c 0,-0.88 0,-2.04 1.56,-3.2 0.44,-0.28 1.6,-1 3.68,-1.12 0.56,-0.04 0.88,-0.04 0.88,-0.72 0,-0.72 -0.36,-0.72 -1.24,-0.72 -5.67999,0 -9.28,2 -9.32,5.08 l 0,8.24 c 0,2.48 0,3.32 -1.32,4.48 -0.92,0.84 -2.32,1.4 -3.96,1.48 -0.56,0.04 -0.88,0.04 -0.88,0.72 0,0.52 0.2,0.68 0.68,0.72 3.6,0.2 5.04,2 5.4,3.44 0.08,0.32 0.08,0.4 0.08,1.88 l 0,8.4 c 0,5.11999 6.64,5.56 9.32,5.56 0.88,0 1.24,0 1.24,-0.72"
         id="path3184"
         style="font-family:Latin Modern Roman;-inkscape-font-specification:Latin Modern Roman"
         inkscape:connector-curvature="0" />
    </g>
    <g
       transform="matrix(0.14541557,0,0,0.14541557,117.2173,442.31513)"
       id="flowRoot2985-6"
       style="font-size:40px;font-style:normal;font-variant:normal;font-weight:bold;font-stretch:condensed;line-height:125%;letter-spacing:0px;word-spacing:0px;fill:#000000;fill-opacity:1;stroke:none;font-family:Folio Std;-inkscape-font-specification:Folio Std Bold Condensed">
      <path
         d="m 65.101562,486.37109 c 0.716142,1.22396 2.154943,1.83594 4.316407,1.83594 0.937491,0 1.829417,-0.15625 2.675781,-0.46875 0.846343,-0.32552 1.542957,-0.80729 2.089844,-1.44531 0.559882,-0.63802 0.83983,-1.41276 0.839843,-2.32422 -1.3e-5,-0.6901 -0.247408,-1.2565 -0.742187,-1.69922 -0.494804,-0.4427 -1.100272,-0.74218 -1.816406,-0.89844 l -2.167969,-0.42968 c -0.989591,-0.24739 -1.803392,-0.70963 -2.441406,-1.38672 -0.638027,-0.67708 -0.957037,-1.49739 -0.957032,-2.46094 -5e-6,-1.18488 0.319005,-2.23306 0.957032,-3.14453 0.651035,-0.91144 1.503898,-1.60806 2.558593,-2.08985 1.054678,-0.48175 2.148427,-0.72263 3.28125,-0.72265 1.210925,2e-5 2.291653,0.29298 3.242188,0.8789 0.963525,0.57294 1.445296,1.4258 1.445312,2.5586 -1.6e-5,0.61199 -0.175797,1.15236 -0.527343,1.62109 -0.338558,0.46876 -0.813818,0.70314 -1.425782,0.70313 -0.351576,1e-5 -0.657566,-0.11067 -0.917968,-0.33203 -0.24741,-0.23437 -0.371108,-0.52733 -0.371094,-0.87891 -1.4e-5,-0.31249 0.08462,-0.61197 0.253906,-0.89844 0.182278,-0.29946 0.416653,-0.53384 0.703125,-0.70312 0.299465,-0.18228 0.605454,-0.27342 0.917969,-0.27344 -0.23439,-0.5729 -0.677098,-0.98957 -1.328125,-1.25 -0.638034,-0.2604 -1.328138,-0.39061 -2.070313,-0.39063 -0.677094,2e-5 -1.354177,0.13674 -2.03125,0.41016 -0.677092,0.27345 -1.223967,0.6771 -1.640625,1.21094 -0.403653,0.52085 -0.605476,1.13934 -0.605468,1.85547 -8e-6,0.48178 0.169263,0.90496 0.507812,1.26953 0.338533,0.36459 0.7552,0.62501 1.25,0.78125 l 2.324219,0.46875 c 0.742175,0.15626 1.419258,0.43621 2.03125,0.83984 0.624986,0.39064 1.113266,0.89194 1.464844,1.50391 0.364567,0.59896 0.546859,1.28907 0.546875,2.07031 -1.6e-5,0.98959 -0.279964,1.96615 -0.839844,2.92969 -0.546889,0.96354 -1.223972,1.73177 -2.03125,2.30469 -1.419282,0.96354 -3.157562,1.44531 -5.214844,1.44531 -1.419277,0 -2.721359,-0.32552 -3.90625,-0.97656 -1.184898,-0.65104 -1.777346,-1.6211 -1.777344,-2.91016 -2e-6,-0.72916 0.208332,-1.36067 0.625,-1.89453 0.429685,-0.54687 1.009111,-0.82031 1.738282,-0.82031 0.429682,0 0.787755,0.13021 1.074218,0.39062 0.299474,0.26042 0.449213,0.60548 0.449219,1.03516 -6e-6,0.61198 -0.22787,1.14583 -0.683594,1.60156 -0.455733,0.45573 -0.989587,0.6836 -1.601562,0.68359 l -0.195313,0"
         id="path3181"
         style="font-weight:normal;font-stretch:normal;font-family:cmmi10;-inkscape-font-specification:cmmi10"
         inkscape:connector-curvature="0" />
    </g>
  </g>
  <g
     transform="matrix(1.0592349,0,0,0.94407763,-4.0707877,5.1134953)"
     style="font-size:3.68817401px;font-style:normal;font-variant:normal;font-weight:bold;font-stretch:condensed;line-height:125%;letter-spacing:0px;word-spacing:0px;fill:#000000;fill-opacity:1;stroke:none;font-family:Folio Std;-inkscape-font-specification:Folio Std Bold Condensed"
     id="text3071">
    <path
       d="m 5.3113233,5.0672693 c 1e-7,-0.060029 0.02041,-0.1122545 0.06123,-0.1566754 0.04202,-0.043221 0.093045,-0.064832 0.1530736,-0.064831 0.039619,-3e-7 0.072635,0.012005 0.099048,0.036017 0.027613,0.025212 0.04142,0.057627 0.04142,0.097247 -3e-7,0.046822 -0.015008,0.088842 -0.045022,0.1260606 -0.028814,0.038418 -0.065432,0.06363 -0.1098528,0.075636 0.043221,0.015607 0.086441,0.023411 0.1296624,0.023411 0.1044498,-7e-7 0.1950933,-0.048624 0.2719308,-0.1458702 C 5.989649,4.9622183 6.0436749,4.8541664 6.0748906,4.734109 L 6.4224578,3.347442 C 6.4392648,3.276609 6.4476688,3.2165804 6.4476698,3.1673554 6.4476687,3.0617061 6.4110508,3.0088807 6.337817,3.0088792 c -0.1080529,1.5e-6 -0.2028984,0.049225 -0.2845369,0.147671 -0.080439,0.097248 -0.1458707,0.2101022 -0.1962944,0.3385628 -0.0048,0.015609 -0.014407,0.023412 -0.028814,0.023411 l -0.043221,0 c -0.02041,10e-7 -0.030615,-0.011404 -0.030615,-0.034217 l 0,-0.010805 C 5.8095625,3.3258328 5.8882003,3.1955703 5.9902499,3.0827147 6.0922983,2.969862 6.210555,2.9134349 6.3450205,2.9134333 c 0.102048,1.6e-6 0.1854881,0.031817 0.2503205,0.095446 0.06603,0.063632 0.099046,0.1446709 0.099048,0.2431169 -1.3e-6,0.034818 -0.0036,0.069635 -0.010805,0.1044502 L 6.334216,4.7575204 C 6.309003,4.8571684 6.26098,4.9484118 6.1901467,5.031252 6.1193117,5.114091 6.0346712,5.1795227 5.9362245,5.2275464 c -0.098448,0.048022 -0.1992962,0.072034 -0.3025455,0.072035 -0.08284,-8e-7 -0.1572758,-0.01981 -0.2233074,-0.059429 -0.066032,-0.03962 -0.099048,-0.097247 -0.099048,-0.1728831 m 1.166961,-2.7589271 c -1.1e-6,-0.054024 0.021009,-0.1014465 0.06303,-0.1422684 0.042019,-0.040817 0.089442,-0.061227 0.1422684,-0.06123 0.042019,2.5e-6 0.076235,0.013209 0.1026494,0.039619 0.027612,0.025215 0.041418,0.05763 0.04142,0.097247 -1.5e-6,0.055229 -0.022212,0.1038521 -0.066632,0.1458701 -0.043222,0.040822 -0.091245,0.061232 -0.1440693,0.061229 -0.03962,2.1e-6 -0.072636,-0.013805 -0.099048,-0.04142 -0.026414,-0.027611 -0.03962,-0.060627 -0.039619,-0.099048"
       style="font-weight:normal;font-stretch:normal;font-family:cmmi10;-inkscape-font-specification:cmmi10"
       id="path3076"
       inkscape:connector-curvature="0" />
  </g>
</svg>
